<svg version="1.2" baseProfile="tiny-ps" xmlns="http://www.w3.org/2000/svg" viewBox="0 0 55 58" width="55" height="58">
	<title>SSA-web_design-v06</title>
	<defs>
		<clipPath clipPathUnits="userSpaceOnUse" id="cp1">
			<path d="M0 57.46L54.74 57.46L54.74 1L0 1L0 57.46Z" />
		</clipPath>
	</defs>
	<style>
		tspan { white-space:pre }
		.shp0 { fill: #009ddf } 
		.shp1 { fill: #003866 } 
		.shp2 { fill: transparent } 
	</style>
	<g id="SSA-web_design-v06">
		<g id="Group 33">
			<g id="Group 32">
				<g id="Group 29">
					<g id="Group 28">
						<g id="Group 27">
							<g id="Group 20">
								<path id="Fill 1" class="shp0" d="M18.38 10.17C18.38 5.1 22.51 1 27.6 1C32.69 1 36.81 5.1 36.81 10.17C36.81 15.23 32.69 19.34 27.6 19.34C22.51 19.34 18.38 15.23 18.38 10.17" />
								<path id="Fill 3" class="shp0" d="M34.4 17.58C32.64 19.48 29.54 21.37 25.57 21.37C22.49 21.37 19.83 20.18 18.14 18.86C8.08 19.91 0.59 21.39 0.59 21.39L0.59 25.45L53.93 25.44L53.94 17.09C53.94 17.09 44.84 17.03 34.4 17.58" />
								<path id="Fill 5" fill-rule="evenodd" class="shp1" d="M4.26 26.72L4.35 26.83C4.37 26.85 5.67 28.37 7.91 28.39C10.02 28.41 11.16 27.2 11.17 27.18L11.26 27.09L11.87 27.55L11.76 27.66C11.4 28.05 10.68 28.71 9.57 29.19C10.18 29.26 10.76 29.37 11.44 29.49L11.83 29.57L11.83 33.45L11.64 33.4C10.85 33.14 10 32.89 9.14 32.89C6.88 32.89 5.48 34.15 5.48 36.17C5.48 38.29 6.79 39.56 8.97 39.56C9.83 39.56 10.69 39.39 11.68 39.04L11.86 38.97L11.86 42.87L11.76 42.9C11.31 43.03 9.72 43.45 8.08 43.45C3.1 43.45 0 40.63 0 36.09C0 32.89 1.88 30.47 5.06 29.53C3.62 29.14 2.73 28.4 2.69 28.37L2.57 28.27L4.16 26.82L4.26 26.72ZM46.39 32.24L46.39 34.51L47.48 34.51C48.24 34.51 49.16 34.31 49.16 33.38C49.16 32.62 48.63 32.24 47.59 32.24L46.39 32.24ZM46.39 37.67L46.39 40.1L47.53 40.1C47.95 40.1 49.29 40.01 49.29 38.87C49.29 38.03 48.78 37.67 47.57 37.67L46.39 37.67ZM49.76 29.31C52.81 29.31 54.5 30.56 54.5 32.84C54.5 34.52 53.75 35.58 52.18 36.16C53.79 36.63 54.74 38.05 54.74 39.3C54.74 42.78 52.04 43.26 49.11 43.26L41.24 43.26L41.24 29.31L49.76 29.31ZM30.9 36.28C30.9 38.69 31.51 39.86 32.75 39.86C34.47 39.86 34.64 38.01 34.66 36.29C34.64 34.75 34.42 32.7 32.75 32.7C31.52 32.7 30.9 33.91 30.9 36.28ZM25.22 36.28C25.22 31.7 27.97 29.07 32.75 29.07C37.58 29.07 40.34 31.7 40.34 36.28C40.34 40.93 37.65 43.49 32.75 43.49C27.9 43.49 25.22 40.93 25.22 36.28ZM12.38 33.65C12.38 30.61 14.74 29.07 19.38 29.07C20.79 29.07 22.36 29.24 23.81 29.54L23.95 29.57L23.95 33.46L23.71 33.37C22.49 32.93 21.15 32.7 19.84 32.7C18.85 32.7 17.83 32.79 17.83 33.42C17.83 33.92 18.71 34.1 19.82 34.32C21.92 34.73 24.8 35.3 24.8 38.76C24.8 43.03 20.16 43.49 18.17 43.49C16.23 43.49 14.58 43.3 12.65 42.85L12.51 42.82L12.51 38.87L12.77 38.98C14.08 39.54 15.71 39.86 17.25 39.86C18.27 39.86 19.35 39.66 19.35 39.11C19.35 38.57 18.46 38.39 17.33 38.15C15.24 37.72 12.38 37.12 12.38 33.65Z" />
								<path id="Clip 8" class="shp2" d="M0 57.46L54.74 57.46L54.74 1L0 1L0 57.46Z" />
								<g id="Mask by Clip 8" clip-path="url(#cp1)">
									<path id="Fill 7" class="shp1" d="M0.59 48.74L53.93 48.74L53.93 48.17L0.59 48.17L0.59 48.74Z" />
									<path id="Fill 9" fill-rule="evenodd" class="shp1" d="M1.44 55L1.44 53.7L1.93 53.7C2.21 53.7 2.34 53.89 2.34 54.32C2.34 54.85 2.23 55 1.85 55L1.44 55ZM1.44 55.66L1.99 55.66C2.91 55.66 3.27 55.28 3.27 54.33C3.27 53.88 3.15 53.53 2.92 53.31C2.7 53.09 2.49 53.04 1.81 53.04L0.54 53.04L0.54 57.39L1.44 57.39L1.44 55.66Z" />
									<path id="Fill 10" fill-rule="evenodd" class="shp1" d="M8.38 53.64C8.75 53.64 8.87 53.8 8.9 54.36C8.92 54.81 8.92 54.79 8.92 55.06C8.92 55.18 8.91 55.39 8.9 55.64C8.9 56.05 8.89 56.12 8.89 56.18C8.85 56.61 8.71 56.79 8.38 56.79C7.96 56.79 7.87 56.63 7.84 55.92C7.83 55.6 7.83 55.59 7.83 55.17C7.83 55.01 7.83 54.78 7.83 54.64C7.84 54.45 7.86 54.19 7.87 54.13C7.91 53.78 8.05 53.64 8.38 53.64ZM7.06 53.66C6.94 53.93 6.9 54.32 6.9 55.21C6.9 55.98 6.94 56.38 7.01 56.63C7.18 57.18 7.64 57.46 8.39 57.46C9 57.46 9.43 57.25 9.65 56.85C9.8 56.59 9.84 56.19 9.84 55.21C9.84 54.43 9.8 53.97 9.72 53.74C9.55 53.24 9.09 52.97 8.39 52.97C7.71 52.97 7.26 53.21 7.06 53.66Z" />
									<path id="Fill 11" class="shp1" d="M13.63 57.39L14.55 57.39L14.55 53.04L13.63 53.04L13.63 57.39Z" />
									<path id="Fill 12" class="shp1" d="M21.04 54.38L21.04 54.24C21.04 53.79 20.99 53.58 20.81 53.36C20.61 53.12 20.22 52.97 19.72 52.97C18.86 52.97 18.36 53.44 18.36 54.23C18.36 54.78 18.61 55.07 19.42 55.48C20.06 55.81 20.18 55.94 20.18 56.28C20.18 56.6 20.01 56.79 19.72 56.79C19.52 56.79 19.36 56.7 19.3 56.54C19.26 56.43 19.25 56.34 19.25 56.04L18.32 56.04C18.32 56.55 18.35 56.76 18.48 56.96C18.67 57.27 19.11 57.46 19.66 57.46C20.67 57.46 21.11 57.06 21.11 56.16C21.11 55.62 20.89 55.3 20.3 55L20.18 54.93L20.05 54.86L19.91 54.79C19.8 54.73 19.68 54.66 19.57 54.58C19.38 54.43 19.29 54.28 19.29 54.08C19.29 53.81 19.46 53.64 19.71 53.64C20.02 53.64 20.11 53.8 20.11 54.38L21.04 54.38Z" />
									<path id="Fill 13" class="shp1" d="M27.54 53.04L24.63 53.04L24.63 53.72L25.63 53.72L25.63 57.39L26.55 57.39L26.55 53.72L27.54 53.72L27.54 53.04Z" />
									<path id="Fill 14" fill-rule="evenodd" class="shp1" d="M32.53 53.64C32.91 53.64 33.02 53.8 33.05 54.36C33.07 54.81 33.07 54.79 33.07 55.06C33.07 55.18 33.06 55.39 33.06 55.64C33.05 56.05 33.04 56.12 33.04 56.18C33 56.61 32.86 56.79 32.53 56.79C32.12 56.79 32.02 56.63 31.99 55.92C31.98 55.6 31.98 55.59 31.98 55.17C31.98 55.01 31.99 54.78 31.99 54.64C31.99 54.45 32.01 54.19 32.02 54.13C32.06 53.78 32.2 53.64 32.53 53.64ZM31.21 53.66C31.09 53.93 31.05 54.32 31.05 55.21C31.05 55.98 31.09 56.38 31.16 56.63C31.33 57.18 31.79 57.46 32.54 57.46C33.16 57.46 33.59 57.25 33.8 56.85C33.95 56.59 33.99 56.19 33.99 55.21C33.99 54.43 33.96 53.97 33.88 53.74C33.71 53.24 33.24 52.97 32.54 52.97C31.86 52.97 31.42 53.21 31.21 53.66Z" />
									<path id="Fill 15" class="shp1" d="M40.66 53.04L39.82 53.04L39.4 54.97C39.26 55.59 39.18 56.1 39.09 56.83C39.03 56.01 38.97 55.56 38.83 54.97L38.39 53.04L37.42 53.04L38.53 57.39L39.58 57.39L40.66 53.04Z" />
									<path id="Fill 16" class="shp1" d="M47.19 53.04L46.38 53.04L46.38 55.02C46.38 55.05 46.38 55.11 46.39 55.24C46.39 55.32 46.39 55.22 46.4 55.62L46.41 55.76C46.42 56.14 46.44 56.34 46.47 56.82C46.36 56.24 46.3 55.98 46.2 55.56C46.09 55.14 45.98 54.74 45.91 54.54L45.4 53.04L44.18 53.04L44.18 57.39L44.99 57.39L44.99 55.39C44.99 55.22 44.98 55.05 44.93 54.49L44.92 54.32C44.89 53.87 44.9 54.08 44.87 53.7L44.86 53.55C44.98 54.16 44.98 54.2 45.1 54.65C45.19 54.98 45.21 55.07 45.22 55.12L45.91 57.39L47.19 57.39L47.19 53.04Z" />
									<path id="Fill 17" fill-rule="evenodd" class="shp1" d="M52.87 55.74L51.98 55.74L52.25 54.69C52.27 54.61 52.33 54.34 52.36 54.15C52.39 54.02 52.41 53.9 52.45 53.64C52.47 53.76 52.49 53.85 52.49 53.9C52.56 54.29 52.58 54.45 52.64 54.69L52.87 55.74ZM53.09 53.04L51.91 53.04L50.74 57.39L51.57 57.39L51.81 56.42L53.02 56.42L53.27 57.39L54.22 57.39L53.09 53.04Z" />
									<path id="Fill 18" class="shp1" d="M25.7 52.6L26.48 52.6L27.11 51.67L26.39 51.67L26.09 52.16L25.79 51.67L25.07 51.67L25.7 52.6Z" />
									<path id="Fill 19" class="shp1" d="M45.3 52.6L46.08 52.6L46.71 51.67L45.99 51.67L45.69 52.16L45.39 51.67L44.67 51.67L45.3 52.6Z" />
								</g>
							</g>
						</g>
					</g>
				</g>
			</g>
		</g>
	</g>
</svg>