<svg version="1.2" baseProfile="tiny-ps" xmlns="http://www.w3.org/2000/svg" viewBox="0 0 63 50" width="63" height="50">
	<title>SSA-web_design-v06</title>
	<defs>
		<clipPath clipPathUnits="userSpaceOnUse" id="cp1">
			<path d="M1 39.42L9.78 39.42L9.78 49.96L1 49.96L1 39.42Z" />
		</clipPath>
	</defs>
	<style>
		tspan { white-space:pre }
		.shp0 { fill: #c21b17 } 
		.shp1 { fill: transparent } 
	</style>
	<g id="SSA-web_design-v06">
		<g id="Group 33">
			<g id="Group 32">
				<g id="Group 29">
					<g id="Group 28">
						<g id="Group 27">
							<g id="Group 61">
								<g id="Group 60">
									<path id="Fill 1" class="shp0" d="M12.75 44.28L12.76 40.04C15.43 40.04 16.41 39.91 16.87 43.17L17.16 43.17L17.16 39.54L9.89 39.55L9.89 40.04L11.15 40.04L11.15 49.38L9.76 49.38L9.76 49.87L17.25 49.87L17.25 46.05L16.87 46.05C16.5 48.94 15.77 49.38 13.71 49.38L12.75 49.38L12.75 44.84L13.31 44.84C14.23 44.87 14.76 45.4 14.94 46.98L15.28 46.98L15.28 42.3C15.28 42.31 14.95 42.3 14.95 42.3C14.95 42.32 14.88 44.31 13.27 44.28L12.75 44.28Z" />
									<g id="Group 5">
										<path id="Clip 4" class="shp1" d="M1 39.42L9.78 39.42L9.78 49.96L1 49.96L1 39.42Z" />
										<g id="Mask by Clip 4" clip-path="url(#cp1)">
											<path id="Fill 3" class="shp0" d="M9.78 44.47L5.68 44.47L5.68 44.93L7.09 44.93L7.09 48.29C6.85 49.14 5.59 49.5 5.21 49.5C2.6 49.5 2.78 45.68 2.78 44.66C2.78 43.73 2.69 39.82 5.21 39.82C6.99 39.82 7.93 41.58 8.31 43.17L8.59 43.17C8.59 42.52 8.6 39.41 8.59 39.42C8.6 39.39 7.37 40.29 7.37 40.28C7.4 40.27 6.81 39.45 5.21 39.45C2.12 39.45 0.99 42.52 1 44.66C1.01 46.62 1.92 49.96 5.21 49.96C6.25 49.96 6.98 49.44 7.37 48.84C7.37 48.83 8.67 49.86 8.68 49.87L8.68 44.93L9.78 44.93L9.78 44.47Z" />
										</g>
									</g>
									<path id="Fill 6" fill-rule="evenodd" class="shp0" d="M45.61 46.14L47.1 41.68L48.69 46.14L45.61 46.14ZM38.12 44.36L38.12 40.04L40.27 40.04C41.53 40.23 41.58 41.68 41.58 42.14C41.58 43.26 41.11 44.36 39.8 44.36L38.12 44.36ZM57.7 46.05C57.32 48.94 56.59 49.37 54.53 49.37L54.41 49.37L54.41 40.04L55.72 40.04L55.72 39.54L51.41 39.54L51.41 40.04L52.72 40.04L52.72 49.37L51.68 49.37L47.85 39.26L47.29 39.26C47.3 39.26 44.11 48.43 44.1 48.46C44.11 48.43 43.86 49.25 43.34 49.35C42.85 49.37 42.89 49.12 42.89 49.03L42.89 47.26C42.89 46.8 42.85 45.75 42.37 45.26C41.83 44.72 40.9 44.68 40.92 44.66C40.92 44.66 43.27 44.17 43.27 41.95C43.27 40.39 42.18 39.61 40.36 39.54L35.19 39.54L35.19 40.04L36.51 40.04L36.51 49.37L35.19 49.37L35.19 49.87L39.43 49.87L39.43 49.37L38.11 49.37L38.11 44.89L39.87 44.89C42.94 45.14 39.35 49.87 43.36 49.87L45.89 49.87L45.89 49.37C45.75 49.37 44.82 49.4 44.76 48.75C44.72 48.29 45.37 46.62 45.37 46.62L48.81 46.62C48.81 46.61 49.89 49.37 49.89 49.37L48.69 49.37L48.69 49.87L58.07 49.87L58.07 46.05L57.7 46.05ZM47.29 39.26C47.29 39.26 47.29 39.26 47.29 39.26L47.29 39.26Z" />
									<path id="Fill 8" class="shp0" d="M30.09 40.04C32.76 40.04 33.75 39.91 34.21 43.17L34.49 43.17L34.49 39.54L23.9 39.54L23.9 40.04L24.17 40.04C24.55 40.04 25.43 40.07 25.49 40.84L25.49 40.84L25.49 46.8L20.53 39.54L17.83 39.54L17.83 40.04L18.28 40.04C18.81 40.04 19.56 40.06 19.59 40.84L19.59 48.47C19.59 49.21 18.47 49.5 18 49.5L18 49.5L18 49.87L21.65 49.87L21.65 49.5C21.18 49.5 20.06 49.21 20.06 48.47L20.07 41.76C22.03 44.55 25.74 49.87 25.77 49.87L25.95 49.87L25.95 40.84C26.01 40.07 26.89 40.04 27.27 40.04L28.48 40.04L28.48 49.38L27.1 49.38L27.1 49.87L34.59 49.87L34.59 46.05L34.21 46.05C33.84 48.94 33.11 49.38 31.05 49.38L30.09 49.38L30.09 44.84L30.64 44.84C31.57 44.87 32.09 45.4 32.28 46.98L32.62 46.98L32.62 42.3C32.61 42.31 32.29 42.3 32.29 42.3C32.29 42.32 32.22 44.31 30.6 44.28L30.09 44.28L30.09 40.04Z" />
									<path id="Fill 10" class="shp0" d="M62.78 40.04L62.78 39.54L58.55 39.54L58.55 40.04L59.88 40.04L59.89 49.36L58.55 49.36L58.55 49.87L62.78 49.87L62.78 49.36L61.45 49.36L61.45 40.04L62.78 40.04Z" />
									<path id="Fill 12" fill-rule="evenodd" class="shp0" d="M48.42 30.37L51.84 29.61L51.53 26.58L51.53 26.51C51.44 26.11 51.19 24.9 49.6 24.77C43.48 24.28 42.06 23.38 40.58 22.42C40.58 22.42 40.57 22.41 40.57 22.41L40.56 22.41L40.47 22.35C38.88 21.33 37.3 21.32 37.15 21.32C35.42 21.32 33.22 22.01 33.05 22.06C32.52 22.22 32.02 22.37 31.54 22.53C29.63 23.14 27.98 23.67 25.2 23.59L24.69 23.57L24.56 24.06C24.46 24.44 23.68 27.5 24.43 29.46C23.76 29.99 23.76 30.6 23.76 30.68C23.79 31.35 23.63 31.52 23.58 31.57C23.26 31.9 22.19 31.95 21.3 31.95L20.96 31.95L20.77 32.21C20.21 32.97 19.02 33.15 18.25 32.95C17.92 31.93 17.91 31.15 18.23 30.69C18.61 30.14 19.43 30.08 19.76 30.08L19.95 30.08C20.76 30.08 21.42 29.42 21.42 28.61L21.42 23.13C21.67 22.75 21.87 22.31 22.04 21.82C23.38 21.61 24.41 20.47 24.41 19.11C24.41 18.59 24.26 18.08 23.98 17.65C25.22 17.05 26.28 15.84 26.28 14.25C26.28 12.66 25.47 11.93 24.71 11.45C24.93 10.84 25.28 9.76 25.52 8.68L26.6 4.85C27.08 3.35 28.33 2.38 29.79 2.38L48.7 2.38C47.9 3.5 46.77 4.03 45.19 4.03L33.75 4.03L33.15 5.3L43.4 5.3C42.6 6.58 41.42 7.18 39.74 7.18L32.31 7.18L31.71 8.46L38.35 8.46C37.54 9.69 36.38 10.27 34.73 10.27L30.68 10.27L30.08 11.54L34.33 11.54C34.37 11.59 34.47 11.79 34.47 12.3C34.47 13.12 33.78 13.79 32.93 13.79C32.64 13.79 32.39 13.72 31.95 13.54C31.77 13.47 31.58 13.39 31.39 13.31L30.4 14.19C30.59 14.27 30.77 14.34 30.96 14.42L30.96 14.42C31.81 14.79 32.29 14.98 32.93 14.98C33.72 14.98 34.42 14.66 34.92 14.14C35.65 14.19 36.82 14.29 37.96 14.38C39.32 14.49 40.6 14.6 41.27 14.63C41.6 14.65 41.91 14.67 42.21 14.68C42.77 14.71 43.29 14.73 43.8 14.77C46.39 18.94 47.71 19.49 52.71 20.09C53.07 20.73 53.39 21.41 53.7 22.09L53.7 30.22L53.7 30.27C53.73 30.64 53.73 30.77 53.68 30.83C53.51 31.06 52.73 31.38 52.47 31.49L48.25 33.07C47.69 32.32 47.49 31.53 47.71 30.96C47.84 30.64 48.09 30.44 48.42 30.37ZM38.47 33.17L42.04 29.42C42.77 28.68 42.99 27.79 42.69 26.91C42.52 26.41 42.05 25.44 41.56 24.45C42.97 25.1 45.12 25.69 49.49 26.04C50.02 26.08 50.16 26.26 50.26 26.74L50.45 28.62L48.17 29.12C47.4 29.28 46.8 29.78 46.52 30.5C46.21 31.3 46.31 32.25 46.8 33.17L38.47 33.17ZM31.78 33.17C31.55 32.27 31.64 31.55 32.06 31.08C32.45 30.63 33.06 30.49 33.49 30.55L35.92 31L35.98 31.01L36.32 31.01L38.04 29.17L38.06 29.15C38.35 28.81 39.25 27.78 38.34 26.46L36.04 22.68C36.42 22.63 36.8 22.6 37.15 22.6L37.17 22.6C37.18 22.6 38.33 22.58 39.57 23.3C39.74 23.65 39.97 24.12 40.23 24.65C40.71 25.62 41.31 26.83 41.48 27.32C41.53 27.48 41.69 27.95 41.12 28.54L36.71 33.17L31.78 33.17ZM30.47 33.17L22.63 33.17C23.47 33.09 24.08 32.89 24.5 32.45C25.02 31.92 25.06 31.2 25.05 30.68C25.06 30.63 25.15 30.46 25.53 30.28L26.21 29.98L25.8 29.36C25.13 28.33 25.42 26.09 25.68 24.87L25.74 24.87C28.4 24.87 30.12 24.32 31.94 23.74C32.41 23.59 32.9 23.43 33.41 23.28L33.43 23.28C33.44 23.27 33.97 23.11 34.69 22.94L37.25 27.13L37.27 27.17C37.53 27.53 37.56 27.77 37.09 28.31L35.81 29.68L33.71 29.3L33.69 29.29C32.75 29.15 31.72 29.52 31.09 30.24C30.63 30.77 30.18 31.69 30.47 33.17ZM16.98 33.17L15.65 33.17L15.65 22.87C16.13 22.8 16.64 22.66 17.11 22.45C17.09 22.9 17.02 23.25 16.94 23.73C16.92 23.84 16.9 23.95 16.88 24.07L16.75 24.82L17.51 24.82C18.65 24.82 19.49 24.64 20.14 24.31L20.14 28.61C20.14 28.72 20.06 28.81 19.95 28.81L19.76 28.81C18.63 28.81 17.69 29.23 17.18 29.96C16.63 30.74 16.57 31.82 16.98 33.17ZM14.37 32.05L8.33 30.49L2.29 32.05L2.29 21.3L8.33 19.74L14.37 21.3L14.37 32.05ZM3.07 33.17L8.33 31.81L13.59 33.17L3.07 33.17ZM6.72 16.75L7.27 16.84L7.44 16.32C7.49 16.18 7.55 16.07 7.64 15.99C7.79 15.85 8.02 15.78 8.31 15.79C9.08 15.81 10.05 16.35 10.83 17.19C11.12 17.49 11.37 17.84 11.6 18.2C11.64 18.28 11.69 18.36 11.74 18.43C11.8 18.53 11.85 18.61 11.87 18.63C11.89 18.68 12.28 19.26 12.26 19.3C12.52 18.93 12.79 18.56 13.05 18.19C13.06 18.17 13.05 18.14 13.02 18.09C12.96 17.97 12.82 17.75 12.74 17.61C12.72 17.58 12.7 17.55 12.68 17.52C12.68 17.52 12.68 17.51 12.67 17.51C12.67 17.5 12.63 17.44 12.58 17.37C12.5 17.23 12.37 17.03 12.31 16.92L13.98 14.26C14.4 14.35 14.76 14.36 14.92 14.36L14.97 14.36C17.32 14.36 19.76 13.01 19.76 10.74L19.76 10.69C19.73 10.07 19.61 9.48 19.52 9.01C19.46 8.7 19.4 8.41 19.4 8.26C19.4 8.01 19.75 7.73 20.25 7.73L21.02 7.73L20.67 5.77C21.74 4.98 22.4 3.7 22.37 2.48C23.52 3.36 24.34 4.89 24.49 6.52C24.53 6.99 24.44 7.65 24.28 8.35L24.2 8.64L24.22 8.64C23.94 9.78 23.54 10.95 23.33 11.5L23.13 12.01L23.61 12.28C24.47 12.77 25 13.12 25 14.25C25 15.54 23.83 16.53 22.7 16.74L21.16 17.03L22.46 17.9C22.88 18.18 23.13 18.63 23.13 19.11C23.13 19.92 22.44 20.58 21.58 20.58L21.09 20.58L20.95 21.03C20.47 22.59 19.95 23.35 18.28 23.51C18.36 23.04 18.41 22.58 18.41 21.94C18.41 21.79 18.4 21.37 18.39 21.23L18.32 19.78L17.29 20.82C16.94 21.17 16.33 21.45 15.65 21.58L15.65 20.31L8.33 18.42L5.73 19.1C5.15 18.52 5.03 17.56 5.17 17.34C5.43 16.95 6 16.62 6.72 16.75ZM13.24 12.5L14.35 12.54C15.69 12.49 17.06 11.94 17.22 10.54C17.22 9.6 16.54 8.68 15.59 8.68C15.08 8.68 14.51 9.03 13.87 9.45C13.45 9.73 13.12 9.95 12.87 9.95C12.7 9.95 12.57 9.84 12.57 9.74C12.57 9.73 12.57 9.71 12.58 9.7L13.28 8.76L12.67 8.35C12.54 8.27 12.34 8.11 12.32 7.99C12.31 7.93 12.39 7.83 12.41 7.8C12.67 7.51 12.95 7.15 13.25 6.71C13.43 6.46 13.53 6.32 13.83 6.32C14.13 6.32 14.37 6.56 14.37 6.85C14.37 7.04 14.59 7.2 14.85 7.2C15.12 7.2 15.23 7.01 15.4 6.85C15.4 6.85 16.03 6.28 15.69 6.01C15.31 5.7 13.79 6.33 14.22 4.94L14.32 4.74C14.48 4.53 15.21 3.99 16.71 3.99C17 3.99 17.3 4.01 17.61 4.05L17.83 4.08L21.02 2.12C21.05 2.18 21.06 2.23 21.06 2.23L21.06 2.23L21.06 2.25C21.23 3.21 20.62 4.36 19.65 4.91L19.26 5.14L19.51 6.57C18.69 6.82 18.12 7.47 18.12 8.26C18.12 8.53 18.18 8.85 18.26 9.26C18.35 9.71 18.45 10.22 18.48 10.74C18.48 12.23 16.41 13.21 14.66 13.16L14.62 13.15C14.55 13.15 13.43 13.06 13.16 12.85C13.11 12.81 13.07 12.72 13.08 12.66C13.1 12.57 13.17 12.5 13.24 12.5ZM16.64 1.91C16.95 1.71 17.35 1.53 17.74 1.42C18.36 1.24 19.07 1.23 19.8 1.37L17.54 2.76C17.26 2.73 16.98 2.71 16.71 2.71C16.33 2.71 15.98 2.75 15.65 2.8C15.68 2.77 15.7 2.74 15.72 2.71C15.92 2.45 16.25 2.17 16.64 1.91ZM58.73 2.38C57.93 3.5 56.79 4.03 55.22 4.03L48.92 4.03C49.42 3.59 49.85 3.04 50.2 2.38L58.73 2.38ZM43.47 7.18C44.03 6.7 44.49 6.07 44.86 5.3L53.43 5.3C52.63 6.58 51.45 7.18 49.77 7.18L43.47 7.18ZM38.46 10.27C39 9.8 39.45 9.19 39.82 8.46L48.37 8.46C47.57 9.69 46.4 10.27 44.76 10.27L38.46 10.27ZM51.06 17.71C51.33 18.02 51.58 18.34 51.83 18.7C48.47 18.26 47.3 17.77 45.43 14.93C45.68 14.97 45.94 15.01 46.21 15.05C48.2 15.38 49.84 16.27 51.06 17.71ZM59.93 29.37C60.05 29.59 60.18 29.8 60.32 30.03C59.35 29.97 58.61 29.43 57.93 28.42C58.56 28.2 59.32 28.35 59.6 28.8C59.72 29 59.83 29.19 59.93 29.37ZM51.62 33.17L52.93 32.68L52.95 32.67C54.8 31.91 55.07 31.43 54.98 30.2L54.98 25.22C56.4 28.8 57.73 31.31 60.47 31.31C60.85 31.31 61.24 31.26 61.67 31.17L62.74 30.93L62.01 30.12C61.54 29.6 61.31 29.2 61.05 28.74C60.94 28.55 60.83 28.35 60.69 28.14C60.05 27.1 58.52 26.75 57.29 27.3C56.73 26.19 56.16 24.75 55.48 22.96L55.34 22.62C55.22 22.36 55.1 22.09 54.98 21.82L54.98 21.78L54.96 21.78C54.54 20.84 54.09 19.89 53.56 19C53.07 18.2 52.57 17.51 52.04 16.88C50.61 15.21 48.72 14.17 46.42 13.79C44.82 13.53 43.7 13.48 42.27 13.41C41.98 13.39 41.67 13.38 41.34 13.36C40.69 13.33 39.36 13.22 38.07 13.11C37.2 13.04 36.3 12.97 35.6 12.91C35.65 12.72 35.68 12.51 35.68 12.3C35.68 12.02 35.65 11.77 35.6 11.54L44.76 11.54C47.12 11.54 48.83 10.5 49.84 8.46C52.19 8.43 53.89 7.37 54.89 5.3L55.22 5.3C57.66 5.3 59.41 4.2 60.41 2.01L60.82 1.1L29.79 1.1C27.76 1.1 26.02 2.43 25.37 4.48L25.35 4.55C24.82 3.08 23.86 1.84 22.62 1.11C20.9 0.09 18.94 -0.25 17.38 0.19C16.87 0.34 16.35 0.57 15.93 0.85C15.58 1.08 15.08 1.46 14.71 1.92C14.31 2.43 13.93 3.04 13.65 3.62C13.47 3.76 13.33 3.91 13.24 4.06L12.86 4.75L12.85 4.79C12.4 5.79 11.86 6.48 11.44 6.97C11.02 7.46 11 7.92 11.06 8.22C11.12 8.55 11.3 8.82 11.49 9.02L11.47 9.04C11.35 9.25 11.29 9.5 11.29 9.74C11.29 10.56 12 11.18 12.87 11.18C13.51 11.18 14.03 10.88 14.58 10.52C14.81 10.37 15.4 9.98 15.59 9.96C15.84 9.96 16.06 10.18 16.06 10.42C16.06 11.09 15.2 11.45 14.58 11.49L13.32 11.63C12.41 11.71 11.98 12.19 11.98 12.62C11.98 13.05 12.19 13.29 12.33 13.44L12.42 13.53L12.74 13.81L11.41 15.96C10.45 15.08 9.34 14.55 8.35 14.52C7.71 14.5 7.16 14.69 6.75 15.07C6.64 15.18 6.53 15.31 6.44 15.45L6.42 15.45C5.36 15.45 4.52 16.01 4.1 16.64C3.65 17.33 3.81 18.53 4.38 19.44L1.01 20.31L1.01 36.37L62.88 36.37L62.88 33.17L51.62 33.17Z" />
									<path id="Fill 14" fill-rule="evenodd" class="shp0" d="M3.61 22.41L3.64 22.4C3.73 22.38 3.79 22.38 3.83 22.42C3.87 22.45 3.9 22.52 3.89 22.62C3.89 22.73 3.87 22.81 3.82 22.87C3.78 22.93 3.71 22.97 3.63 23C3.62 23 3.61 23 3.6 23L3.61 22.41ZM3.78 23.71L3.78 23.65L3.77 23.65C3.7 23.67 3.66 23.67 3.64 23.67C3.62 23.66 3.61 23.65 3.6 23.64C3.59 23.63 3.59 23.6 3.59 23.5L3.6 23.11C3.75 23.07 3.86 23.03 3.93 23C4.03 22.95 4.11 22.88 4.17 22.8C4.23 22.72 4.26 22.63 4.27 22.53C4.27 22.42 4.22 22.33 4.13 22.28C4.04 22.22 3.89 22.22 3.69 22.28L3.07 22.44L3.06 22.44L3.06 22.51L3.08 22.5C3.14 22.49 3.18 22.48 3.2 22.49C3.22 22.49 3.24 22.5 3.24 22.51C3.25 22.52 3.25 22.55 3.25 22.65L3.24 23.59C3.24 23.68 3.23 23.72 3.22 23.73C3.21 23.75 3.2 23.77 3.18 23.79C3.15 23.8 3.11 23.82 3.05 23.84L3.04 23.84L3.04 23.91L3.77 23.72L3.78 23.71Z" />
									<path id="Fill 16" fill-rule="evenodd" class="shp0" d="M4.58 22.99L4.79 22.49L4.97 22.89L4.58 22.99ZM4.13 23.56L4.13 23.62L4.63 23.49L4.63 23.43L4.61 23.43C4.54 23.45 4.49 23.45 4.48 23.44C4.45 23.44 4.44 23.42 4.44 23.38C4.44 23.35 4.45 23.31 4.47 23.26L4.53 23.11L5.02 22.99L5.08 23.14C5.11 23.19 5.11 23.2 5.11 23.21C5.12 23.22 5.12 23.23 5.12 23.24C5.12 23.26 5.11 23.27 5.1 23.29C5.08 23.31 5.04 23.32 4.99 23.34L4.95 23.35L4.95 23.41L5.65 23.23L5.66 23.23L5.66 23.17L5.65 23.17C5.61 23.17 5.58 23.17 5.55 23.16C5.54 23.14 5.5 23.1 5.44 22.98L4.95 21.93L4.95 21.92L4.91 21.93L4.38 23.22C4.33 23.34 4.29 23.42 4.26 23.46C4.23 23.51 4.19 23.54 4.14 23.56L4.13 23.56Z" />
									<path id="Fill 18" class="shp0" d="M6.32 23L6.3 23C6.26 23.01 6.23 23.02 6.21 23.02L6.21 23.02L6.21 23.02C6.18 23.02 6.16 23.01 6.15 23C6.14 22.99 6.13 22.97 6.13 22.96C6.13 22.94 6.15 22.89 6.23 22.77L6.44 22.47L6.63 22.71C6.67 22.76 6.69 22.79 6.7 22.81C6.7 22.81 6.7 22.82 6.7 22.83C6.7 22.85 6.7 22.86 6.68 22.88C6.67 22.89 6.65 22.9 6.58 22.93L6.57 22.93L6.57 23L7.28 22.81L7.29 22.81L7.29 22.75L7.27 22.75C7.24 22.75 7.21 22.75 7.18 22.74C7.17 22.73 7.13 22.7 7.05 22.6L6.68 22.12L6.95 21.73C7.02 21.62 7.07 21.56 7.08 21.54C7.11 21.5 7.14 21.48 7.16 21.46C7.19 21.45 7.22 21.44 7.26 21.43L7.27 21.42L7.27 21.36L6.72 21.5L6.72 21.56L6.74 21.56C6.78 21.55 6.81 21.55 6.82 21.55C6.84 21.55 6.85 21.56 6.86 21.57C6.87 21.58 6.88 21.59 6.88 21.61C6.87 21.64 6.85 21.69 6.76 21.83L6.62 22.04L6.46 21.83L6.39 21.74C6.39 21.73 6.38 21.72 6.38 21.71C6.38 21.69 6.39 21.68 6.41 21.66C6.42 21.65 6.45 21.63 6.48 21.62L6.53 21.61L6.53 21.55L5.81 21.73L5.8 21.73L5.8 21.8L5.81 21.8C5.84 21.79 5.87 21.79 5.88 21.8C5.9 21.8 5.92 21.81 5.93 21.83C5.94 21.84 5.96 21.86 6.03 21.95L6.38 22.39L6.1 22.8C6.01 22.93 5.94 23.01 5.9 23.05C5.86 23.09 5.82 23.12 5.76 23.14L5.75 23.14L5.75 23.21L6.32 23.06L6.32 23Z" />
									<path id="Fill 20" class="shp0" d="M3.97 24.48C4.03 24.46 4.08 24.46 4.1 24.46C4.15 24.47 4.18 24.49 4.21 24.52C4.23 24.55 4.25 24.61 4.27 24.69L4.28 24.7L4.34 24.69L4.34 24.27L3.06 24.6L3.05 24.61L3.04 25.02L3.1 25.01L3.11 25C3.12 24.89 3.16 24.8 3.22 24.73C3.26 24.68 3.33 24.64 3.42 24.62L3.51 24.6L3.49 25.69C3.49 25.78 3.48 25.81 3.48 25.82C3.47 25.85 3.45 25.87 3.44 25.88C3.41 25.9 3.38 25.91 3.34 25.92L3.29 25.94L3.29 26.01L4.04 25.81L4.05 25.81L4.05 25.74L3.99 25.76C3.95 25.77 3.92 25.77 3.9 25.76C3.88 25.76 3.87 25.75 3.86 25.73C3.86 25.72 3.85 25.7 3.86 25.6L3.87 24.5L3.97 24.48Z" />
									<path id="Fill 22" class="shp0" d="M5.05 24.23C5.06 24.2 5.07 24.18 5.09 24.17C5.11 24.15 5.14 24.13 5.18 24.12L5.24 24.11L5.24 24.04L4.48 24.24L4.47 24.24L4.47 24.31L4.53 24.29C4.57 24.28 4.6 24.28 4.62 24.29C4.64 24.29 4.65 24.3 4.66 24.32C4.66 24.32 4.67 24.35 4.67 24.45L4.65 25.39C4.65 25.48 4.64 25.51 4.64 25.52C4.63 25.55 4.62 25.57 4.6 25.58C4.58 25.6 4.54 25.62 4.51 25.63L4.45 25.64L4.45 25.71L5.2 25.51L5.21 25.51L5.21 25.44L5.15 25.46C5.11 25.47 5.08 25.47 5.06 25.46C5.04 25.46 5.03 25.45 5.03 25.43C5.02 25.43 5.02 25.4 5.02 25.3L5.03 24.36C5.03 24.27 5.04 24.24 5.05 24.23" />
									<path id="Fill 24" fill-rule="evenodd" class="shp0" d="M6.09 24.43C6.05 24.47 5.98 24.49 5.9 24.52L5.9 23.98C6 23.95 6.07 23.95 6.11 23.95C6.15 23.96 6.18 23.98 6.21 24.02C6.23 24.05 6.24 24.09 6.24 24.15C6.24 24.22 6.22 24.27 6.2 24.32C6.17 24.36 6.14 24.4 6.09 24.43ZM5.89 24.63C5.99 24.6 6.07 24.59 6.12 24.6C6.17 24.61 6.21 24.63 6.23 24.67C6.26 24.72 6.27 24.77 6.27 24.84C6.27 24.89 6.26 24.95 6.23 25C6.21 25.05 6.17 25.1 6.13 25.13C6.08 25.17 6.03 25.19 5.98 25.21C5.95 25.22 5.92 25.21 5.91 25.2C5.89 25.19 5.88 25.17 5.88 25.13L5.89 24.63ZM5.47 25.36C5.45 25.38 5.4 25.39 5.34 25.41L5.33 25.41L5.33 25.48L6.06 25.29C6.27 25.24 6.42 25.15 6.53 25.04C6.62 24.94 6.67 24.84 6.67 24.73C6.67 24.62 6.63 24.54 6.55 24.5C6.5 24.47 6.42 24.45 6.31 24.45C6.42 24.4 6.49 24.34 6.53 24.28C6.59 24.21 6.61 24.14 6.61 24.07C6.62 24 6.6 23.94 6.56 23.89C6.52 23.84 6.46 23.8 6.39 23.79C6.32 23.78 6.21 23.79 6.04 23.84L5.36 24.01L5.35 24.01L5.35 24.08L5.37 24.07C5.43 24.06 5.48 24.05 5.5 24.06C5.51 24.06 5.53 24.07 5.54 24.09C5.54 24.1 5.55 24.13 5.55 24.23L5.53 25.16C5.53 25.25 5.52 25.29 5.51 25.3C5.51 25.32 5.49 25.34 5.47 25.36Z" />
									<path id="Fill 26" class="shp0" d="M7.34 23.63C7.35 23.61 7.36 23.59 7.38 23.58C7.4 23.56 7.44 23.54 7.47 23.53L7.53 23.52L7.53 23.45L6.78 23.65L6.77 23.65L6.77 23.72L6.83 23.7C6.87 23.69 6.89 23.69 6.91 23.7C6.94 23.7 6.95 23.71 6.95 23.72C6.96 23.73 6.96 23.76 6.96 23.85L6.94 24.8C6.94 24.89 6.94 24.92 6.93 24.93C6.92 24.96 6.91 24.98 6.89 24.99C6.87 25.01 6.84 25.02 6.8 25.03L6.74 25.05L6.74 25.12L7.5 24.92L7.51 24.92L7.51 24.85L7.44 24.87C7.41 24.88 7.38 24.88 7.36 24.87C7.34 24.87 7.33 24.86 7.32 24.84C7.32 24.83 7.31 24.81 7.31 24.71L7.33 23.77C7.33 23.68 7.33 23.65 7.34 23.63" />
									<path id="Fill 28" fill-rule="evenodd" class="shp0" d="M5.7 27.04L5.31 27.13L5.51 26.64L5.7 27.04ZM7.27 26.27C7.24 26.32 7.21 26.36 7.16 26.39C7.11 26.42 7.04 26.45 6.95 26.47L6.9 26.48L6.91 25.88L7.02 25.85C7.12 25.83 7.2 25.83 7.25 25.87C7.29 25.9 7.31 25.98 7.31 26.08C7.31 26.15 7.3 26.22 7.27 26.27ZM7.87 26.92C7.84 26.93 7.81 26.93 7.78 26.91C7.77 26.91 7.74 26.89 7.69 26.82L7.37 26.44C7.45 26.39 7.52 26.34 7.56 26.29C7.64 26.2 7.68 26.1 7.68 25.99C7.68 25.9 7.66 25.83 7.61 25.77C7.56 25.72 7.49 25.69 7.41 25.69C7.33 25.68 7.2 25.7 7.03 25.75L6.37 25.92L6.36 25.92L6.36 25.98L6.38 25.98C6.44 25.96 6.48 25.96 6.5 25.96C6.52 25.97 6.54 25.98 6.54 25.99C6.55 26 6.55 26.03 6.55 26.13L6.54 27.06C6.54 27.16 6.53 27.19 6.52 27.21C6.51 27.23 6.5 27.25 6.48 27.26C6.46 27.28 6.42 27.29 6.37 27.31C6.33 27.31 6.3 27.31 6.28 27.3C6.25 27.28 6.22 27.22 6.17 27.12L5.68 26.07L5.68 26.06L5.64 26.07L5.11 27.36C5.06 27.48 5.02 27.56 4.99 27.6C4.96 27.65 4.92 27.68 4.87 27.7L4.85 27.7C4.81 27.71 4.78 27.71 4.76 27.7C4.74 27.7 4.73 27.69 4.73 27.67C4.72 27.67 4.72 27.64 4.72 27.55L4.73 26.6C4.74 26.51 4.74 26.48 4.75 26.47C4.76 26.44 4.77 26.42 4.79 26.41C4.81 26.39 4.84 26.37 4.88 26.36L4.94 26.35L4.94 26.28L4.34 26.44L4.34 26.44L3.95 27.46L3.57 26.64L2.98 26.79L2.98 26.79L2.97 26.86L3.04 26.84C3.07 26.83 3.1 26.83 3.12 26.84C3.14 26.84 3.16 26.85 3.16 26.86C3.16 26.87 3.17 26.9 3.17 26.99L3.15 27.9C3.15 27.98 3.15 28 3.15 28.01C3.14 28.04 3.13 28.07 3.12 28.09C3.11 28.11 3.09 28.13 3.06 28.15C3.03 28.16 3.01 28.18 2.98 28.18L2.95 28.19L2.95 28.26L3.45 28.13L3.46 28.12L3.46 28.06L3.45 28.06C3.38 28.08 3.34 28.08 3.31 28.07C3.29 28.05 3.27 28.03 3.26 28C3.26 27.99 3.26 27.96 3.26 27.88L3.28 26.92L3.78 28.03L3.78 28.04L3.83 28.03L4.37 26.64L4.35 27.63C4.35 27.72 4.34 27.75 4.34 27.76C4.33 27.79 4.32 27.81 4.3 27.82C4.28 27.84 4.24 27.86 4.2 27.87L4.15 27.88L4.15 27.95L4.86 27.76L4.86 27.76L5.34 27.64L5.35 27.64L5.36 27.57L5.34 27.57C5.26 27.59 5.22 27.59 5.21 27.58C5.18 27.58 5.17 27.56 5.17 27.52C5.17 27.49 5.18 27.45 5.2 27.4L5.26 27.25L5.74 27.13L5.81 27.28C5.84 27.34 5.84 27.35 5.84 27.35C5.84 27.36 5.85 27.37 5.84 27.38C5.84 27.4 5.84 27.42 5.82 27.43C5.8 27.45 5.77 27.46 5.71 27.48L5.68 27.49L5.68 27.55L6.34 27.38L6.38 27.37L6.39 27.37L7.08 27.19L7.09 27.19L7.09 27.12L7.07 27.13C7.02 27.14 6.99 27.15 6.96 27.15C6.96 27.15 6.95 27.15 6.95 27.14C6.93 27.14 6.91 27.13 6.91 27.12C6.9 27.11 6.89 27.08 6.9 26.98L6.9 26.59L6.98 26.57L7.42 27.1L7.42 27.1L7.88 26.99L7.88 26.98L7.89 26.92L7.87 26.92Z" />
									<path id="Fill 30" class="shp0" d="M4.28 28.59C4.28 28.63 4.27 28.65 4.25 28.67C4.24 28.69 4.22 28.7 4.2 28.71C4.19 28.71 4.15 28.71 4.08 28.7C3.97 28.69 3.87 28.69 3.76 28.72C3.63 28.75 3.5 28.82 3.38 28.92C3.25 29.02 3.15 29.14 3.08 29.28C3.01 29.43 2.97 29.57 2.97 29.71C2.97 29.84 3 29.96 3.06 30.06C3.12 30.16 3.21 30.23 3.33 30.26C3.39 30.27 3.44 30.28 3.5 30.28C3.58 30.28 3.66 30.27 3.74 30.25C3.86 30.22 3.96 30.17 4.05 30.11C4.13 30.05 4.22 29.97 4.3 29.86L4.3 29.86L4.31 29.69L4.28 29.72C4.2 29.84 4.12 29.93 4.05 29.99C3.97 30.04 3.89 30.08 3.81 30.11C3.7 30.13 3.62 30.13 3.55 30.09C3.49 30.06 3.44 29.99 3.41 29.9C3.38 29.8 3.37 29.69 3.37 29.56C3.37 29.44 3.4 29.31 3.44 29.2C3.48 29.11 3.53 29.03 3.6 28.96C3.68 28.89 3.76 28.84 3.84 28.82C3.94 28.79 4.03 28.8 4.11 28.85C4.19 28.89 4.25 28.98 4.27 29.1L4.28 29.11L4.34 29.09L4.35 28.57L4.28 28.58L4.28 28.59Z" />
									<path id="Fill 32" class="shp0" d="M5.73 29.23C5.69 29.36 5.63 29.47 5.55 29.55C5.48 29.63 5.37 29.69 5.24 29.72L5.16 29.75C5.12 29.75 5.09 29.76 5.08 29.75C5.06 29.75 5.05 29.74 5.05 29.72C5.05 29.72 5.04 29.69 5.04 29.59L5.05 29.19C5.11 29.18 5.16 29.17 5.19 29.18C5.22 29.19 5.25 29.21 5.27 29.26C5.3 29.3 5.31 29.36 5.32 29.44L5.32 29.46L5.38 29.44L5.4 28.66L5.33 28.67L5.33 28.68C5.32 28.8 5.29 28.89 5.25 28.95C5.21 29.02 5.15 29.06 5.06 29.08L5.05 29.09L5.06 28.53L5.2 28.49C5.3 28.46 5.37 28.45 5.41 28.45C5.47 28.46 5.52 28.48 5.56 28.51C5.59 28.54 5.62 28.61 5.63 28.7L5.64 28.72L5.7 28.7L5.71 28.25L4.51 28.56L4.5 28.56L4.5 28.63L4.56 28.61C4.6 28.6 4.63 28.6 4.66 28.61C4.67 28.62 4.68 28.63 4.69 28.65C4.69 28.66 4.69 28.69 4.69 28.77L4.68 29.71C4.67 29.8 4.67 29.83 4.66 29.85C4.65 29.87 4.64 29.89 4.62 29.9C4.6 29.92 4.57 29.94 4.53 29.95L4.47 29.96L4.47 30.03L5.71 29.71L5.72 29.71L5.79 29.21L5.73 29.22L5.73 29.23Z" />
									<path id="Fill 34" class="shp0" d="M7.69 28.72C7.65 28.86 7.59 28.97 7.51 29.05C7.44 29.13 7.33 29.19 7.2 29.22L7.12 29.24C7.08 29.25 7.05 29.25 7.04 29.25C7.02 29.24 7.01 29.23 7.01 29.22C7.01 29.21 7 29.18 7 29.08L7.01 28.69C7.07 28.67 7.12 28.67 7.15 28.68C7.18 28.68 7.21 28.71 7.23 28.75C7.26 28.8 7.27 28.86 7.28 28.93L7.28 28.95L7.34 28.93L7.36 28.15L7.29 28.17L7.29 28.18C7.28 28.29 7.25 28.38 7.21 28.45C7.17 28.51 7.11 28.56 7.02 28.58L7.01 28.58L7.02 28.02L7.16 27.99C7.26 27.96 7.33 27.95 7.37 27.95C7.43 27.95 7.48 27.97 7.52 28.01C7.55 28.04 7.58 28.11 7.59 28.2L7.6 28.21L7.66 28.2L7.67 27.75L6.47 28.05L6.46 28.06L6.45 28.12L6.52 28.11C6.56 28.1 6.59 28.1 6.62 28.11C6.63 28.11 6.64 28.13 6.65 28.15C6.65 28.15 6.65 28.18 6.65 28.26L6.63 29.21C6.63 29.3 6.63 29.33 6.62 29.34C6.61 29.37 6.6 29.38 6.58 29.4C6.56 29.42 6.53 29.43 6.49 29.44L6.43 29.46L6.43 29.52L7.67 29.2L7.68 29.2L7.75 28.7L7.69 28.72L7.69 28.72Z" />
									<path id="Fill 36" class="shp0" d="M9.45 22.88L9.51 22.9L9.97 21.91C10.02 21.8 10.06 21.73 10.09 21.7C10.13 21.67 10.17 21.65 10.22 21.66L10.23 21.66L10.23 21.59L9.74 21.47L9.74 21.53L9.75 21.54C9.8 21.55 9.84 21.57 9.86 21.58C9.88 21.6 9.9 21.61 9.91 21.63C9.92 21.65 9.93 21.66 9.93 21.68C9.93 21.7 9.92 21.72 9.92 21.74C9.91 21.77 9.89 21.81 9.86 21.88L9.61 22.42L9.3 21.65C9.27 21.57 9.25 21.52 9.24 21.5C9.24 21.48 9.23 21.47 9.23 21.46C9.23 21.44 9.24 21.43 9.25 21.43C9.27 21.42 9.31 21.42 9.36 21.44L9.4 21.45L9.4 21.38L8.7 21.2L8.7 21.27L8.71 21.27C8.76 21.29 8.79 21.31 8.81 21.34C8.83 21.37 8.87 21.46 8.94 21.61L9.45 22.88Z" />
									<path id="Fill 38" fill-rule="evenodd" class="shp0" d="M10.48 22.6L10.66 22.21L10.87 22.7L10.48 22.6ZM10.05 22.94L10.05 23L10.55 23.13L10.55 23.07L10.54 23.06C10.45 23.03 10.41 23.02 10.4 23.01C10.37 22.98 10.36 22.95 10.36 22.91C10.36 22.89 10.36 22.85 10.38 22.81L10.43 22.7L10.92 22.82L10.99 23.01C11.02 23.08 11.03 23.1 11.03 23.1C11.03 23.11 11.03 23.13 11.03 23.14C11.03 23.16 11.03 23.17 11.02 23.17C11.01 23.17 11 23.17 10.99 23.17C10.97 23.17 10.94 23.17 10.91 23.16L10.87 23.15L10.87 23.22L11.58 23.4L11.58 23.33L11.57 23.33C11.53 23.32 11.5 23.3 11.47 23.27C11.44 23.24 11.4 23.15 11.35 23.03L10.81 21.72L10.81 21.71L10.77 21.71L10.29 22.73C10.24 22.83 10.21 22.89 10.18 22.91C10.15 22.94 10.11 22.95 10.06 22.94L10.05 22.94Z" />
									<path id="Fill 40" class="shp0" d="M11.65 22.03C11.69 22.04 11.72 22.05 11.74 22.07C11.77 22.09 11.79 22.12 11.82 22.16L11.85 22.21L11.88 23.22C11.88 23.29 11.87 23.34 11.84 23.36C11.82 23.38 11.76 23.38 11.69 23.36L11.67 23.36L11.68 23.42L12.2 23.56L12.2 23.49L12.16 23.48C12.11 23.47 12.07 23.45 12.04 23.41C12 23.37 11.98 23.32 11.98 23.24L11.96 22.37L12.92 23.78L12.92 23.78L12.98 23.79L12.95 22.58C12.95 22.51 12.95 22.47 12.96 22.44C12.97 22.42 12.98 22.41 13 22.4C13.02 22.4 13.06 22.4 13.11 22.4L13.13 22.41L13.13 22.34L12.63 22.22L12.64 22.28L12.65 22.28C12.72 22.3 12.78 22.33 12.81 22.38C12.83 22.42 12.84 22.48 12.85 22.56L12.86 23.13L12.16 22.1L12.16 22.09L11.64 21.96L11.64 22.02L11.65 22.03Z" />
									<path id="Fill 42" class="shp0" d="M9.07 24.74C9.14 24.82 9.21 24.89 9.3 24.95C9.38 25.01 9.49 25.05 9.62 25.09C9.72 25.11 9.82 25.13 9.91 25.13L9.94 25.13C10.02 25.13 10.1 25.12 10.17 25.1L10.18 25.1L10.18 24.79C10.17 24.72 10.18 24.71 10.18 24.7C10.19 24.68 10.2 24.67 10.22 24.66C10.23 24.66 10.27 24.66 10.31 24.67L10.33 24.67L10.33 24.61L9.65 24.43L9.65 24.5L9.7 24.51C9.73 24.52 9.75 24.53 9.78 24.55C9.8 24.57 9.81 24.59 9.82 24.6C9.82 24.61 9.83 24.64 9.83 24.71L9.84 25C9.81 25 9.78 25 9.75 25C9.72 25 9.68 25 9.65 24.99C9.56 24.97 9.49 24.92 9.42 24.86C9.35 24.79 9.3 24.7 9.27 24.59C9.24 24.48 9.22 24.36 9.22 24.22C9.21 24.11 9.23 24 9.25 23.9C9.27 23.81 9.32 23.74 9.38 23.7C9.44 23.65 9.52 23.65 9.61 23.67C9.71 23.7 9.81 23.76 9.9 23.85C9.98 23.94 10.05 24.06 10.1 24.21L10.1 24.22L10.16 24.23L10.15 23.71L10.15 23.7L10.09 23.68L10.08 23.7C10.07 23.74 10.06 23.75 10.05 23.76C10.04 23.77 10.02 23.77 10.01 23.77C10 23.77 9.98 23.75 9.9 23.7C9.83 23.66 9.78 23.63 9.76 23.61C9.7 23.59 9.64 23.57 9.57 23.55C9.36 23.49 9.18 23.52 9.04 23.64C8.9 23.76 8.83 23.93 8.84 24.15C8.84 24.27 8.87 24.39 8.92 24.5C8.95 24.58 9.01 24.66 9.07 24.74" />
									<path id="Fill 44" class="shp0" d="M11.52 25.54L11.57 25.07L11.51 25.06L11.51 25.07C11.48 25.19 11.42 25.26 11.35 25.3C11.27 25.34 11.17 25.35 11.04 25.31L10.96 25.29C10.92 25.28 10.89 25.27 10.87 25.25C10.86 25.24 10.85 25.22 10.84 25.21C10.84 25.19 10.83 25.16 10.83 25.06L10.82 24.68C10.87 24.69 10.92 24.71 10.95 24.74C10.98 24.76 11.02 24.8 11.04 24.86C11.07 24.92 11.09 24.99 11.1 25.07L11.1 25.08L11.17 25.1L11.15 24.33L11.15 24.32L11.08 24.3L11.08 24.32C11.07 24.42 11.05 24.5 11.01 24.54C10.98 24.58 10.92 24.59 10.83 24.57L10.81 24.57L10.8 24.01L10.93 24.04C11.04 24.07 11.11 24.1 11.15 24.12C11.21 24.15 11.26 24.2 11.3 24.25C11.34 24.31 11.37 24.39 11.39 24.49L11.39 24.5L11.45 24.52L11.44 24.08L11.44 24.07L10.23 23.75L10.23 23.82L10.29 23.83C10.33 23.85 10.37 23.86 10.39 23.89C10.41 23.91 10.42 23.93 10.43 23.95C10.43 23.96 10.43 23.99 10.44 24.07L10.46 25.01C10.46 25.11 10.46 25.13 10.45 25.14C10.45 25.16 10.44 25.17 10.42 25.17C10.4 25.18 10.37 25.18 10.33 25.17L10.27 25.15L10.27 25.22L11.5 25.54L11.52 25.54Z" />
									<path id="Fill 46" class="shp0" d="M12.91 25.37L12.85 25.36L12.84 25.37C12.81 25.47 12.78 25.55 12.75 25.59C12.71 25.64 12.67 25.67 12.63 25.68C12.58 25.7 12.52 25.69 12.45 25.67L12.33 25.64C12.25 25.62 12.22 25.61 12.21 25.6C12.18 25.59 12.17 25.57 12.16 25.55C12.16 25.54 12.15 25.5 12.15 25.41L12.12 24.5C12.12 24.4 12.12 24.38 12.13 24.37C12.14 24.35 12.15 24.34 12.16 24.34C12.18 24.33 12.22 24.33 12.25 24.34L12.33 24.36L12.33 24.3L11.55 24.09L11.55 24.16L11.61 24.17C11.64 24.18 11.67 24.2 11.7 24.22C11.72 24.24 11.73 24.25 11.74 24.27C11.75 24.28 11.75 24.32 11.75 24.41L11.78 25.36C11.78 25.45 11.78 25.47 11.77 25.48C11.76 25.5 11.75 25.51 11.74 25.51C11.72 25.52 11.69 25.52 11.65 25.51L11.59 25.49L11.59 25.56L12.85 25.89L12.87 25.89L12.91 25.38L12.91 25.37Z" />
									<path id="Fill 48" class="shp0" d="M12.89 24.5L12.94 24.52C12.98 24.53 13.01 24.54 13.03 24.56C13.05 24.58 13.07 24.6 13.08 24.62C13.08 24.63 13.09 24.66 13.09 24.75L13.12 25.7C13.12 25.79 13.11 25.82 13.11 25.82C13.1 25.84 13.09 25.85 13.08 25.86C13.05 25.87 13.02 25.86 12.99 25.85L12.92 25.84L12.92 25.9L13.67 26.1L13.69 26.1L13.69 26.04L13.63 26.02C13.59 26.01 13.56 26 13.54 25.98C13.52 25.96 13.51 25.94 13.5 25.92C13.49 25.91 13.49 25.88 13.48 25.79L13.46 24.84C13.46 24.75 13.46 24.72 13.46 24.71C13.47 24.7 13.48 24.69 13.5 24.68C13.52 24.67 13.55 24.68 13.59 24.69L13.65 24.7L13.65 24.64L12.88 24.44L12.89 24.5Z" />
									<path id="Fill 50" class="shp0" d="M9.46 27.1C9.36 27.08 9.26 27.01 9.18 26.91C9.09 26.81 9.03 26.68 8.99 26.52L8.99 26.51L8.93 26.5L8.94 27.06L8.94 27.07L9 27.08L9.01 27.07C9.02 27.05 9.03 27.04 9.05 27.03C9.06 27.02 9.08 27.02 9.1 27.02C9.12 27.03 9.14 27.04 9.17 27.06C9.24 27.1 9.29 27.14 9.33 27.15C9.37 27.18 9.41 27.19 9.46 27.2C9.51 27.22 9.56 27.22 9.61 27.22C9.69 27.22 9.76 27.2 9.82 27.16C9.91 27.1 9.96 27 9.95 26.88C9.95 26.78 9.92 26.68 9.86 26.59C9.8 26.5 9.68 26.4 9.51 26.27C9.39 26.18 9.32 26.12 9.28 26.09C9.24 26.04 9.21 26 9.19 25.97C9.17 25.94 9.16 25.91 9.16 25.88C9.16 25.84 9.18 25.8 9.22 25.78C9.25 25.75 9.31 25.75 9.37 25.76C9.46 25.79 9.55 25.84 9.63 25.94C9.7 26.03 9.76 26.14 9.78 26.26L9.78 26.27L9.85 26.28L9.82 25.78L9.82 25.77L9.77 25.76L9.77 25.77C9.76 25.83 9.75 25.84 9.74 25.84C9.74 25.85 9.73 25.85 9.71 25.84C9.7 25.84 9.68 25.83 9.62 25.79C9.57 25.75 9.53 25.72 9.5 25.71C9.45 25.69 9.41 25.67 9.36 25.65C9.23 25.62 9.12 25.64 9.04 25.7C8.95 25.76 8.91 25.85 8.92 25.97C8.92 26.04 8.94 26.11 8.97 26.17C9 26.24 9.05 26.3 9.1 26.36C9.16 26.42 9.25 26.5 9.39 26.6C9.48 26.67 9.55 26.72 9.58 26.76C9.62 26.79 9.65 26.83 9.66 26.86C9.68 26.9 9.69 26.93 9.69 26.97C9.69 27.02 9.67 27.06 9.63 27.09C9.59 27.12 9.53 27.12 9.46 27.1" />
									<path id="Fill 52" class="shp0" d="M11.09 26.26C11.14 26.3 11.17 26.34 11.2 26.38C11.23 26.42 11.25 26.49 11.28 26.59L11.28 26.6L11.34 26.61L11.33 26.21L11.33 26.2L10.05 25.87L10.03 25.86L10.04 26.27L10.04 26.28L10.11 26.29L10.11 26.28C10.12 26.18 10.16 26.11 10.21 26.07C10.25 26.05 10.32 26.04 10.41 26.07L10.5 26.09L10.53 27.19C10.53 27.28 10.53 27.31 10.52 27.32C10.51 27.33 10.5 27.34 10.49 27.35C10.47 27.36 10.44 27.36 10.4 27.35L10.33 27.33L10.33 27.39L11.09 27.59L11.1 27.59L11.1 27.53L11.05 27.51C11.01 27.5 10.98 27.49 10.95 27.47C10.93 27.45 10.92 27.43 10.91 27.41C10.9 27.4 10.9 27.37 10.89 27.28L10.87 26.18L10.95 26.21C11.02 26.22 11.06 26.24 11.09 26.26" />
									<path id="Fill 54" fill-rule="evenodd" class="shp0" d="M12.17 27.36L11.78 27.26L11.97 26.86L12.17 27.36ZM12.22 27.82L12.17 27.8L12.18 27.87L12.87 28.05L12.89 28.05L12.89 27.99L12.88 27.98C12.84 27.97 12.8 27.95 12.78 27.93C12.75 27.89 12.71 27.81 12.66 27.69L12.11 26.37L12.08 26.36L11.6 27.39C11.55 27.48 11.51 27.54 11.48 27.57C11.45 27.59 11.42 27.6 11.37 27.6L11.35 27.59L11.36 27.66L11.84 27.78L11.85 27.79L11.85 27.72L11.84 27.72C11.77 27.69 11.73 27.67 11.71 27.66C11.68 27.63 11.66 27.6 11.66 27.57C11.66 27.54 11.67 27.5 11.69 27.46L11.74 27.35L12.22 27.48L12.3 27.67C12.33 27.73 12.33 27.75 12.33 27.75C12.34 27.77 12.34 27.78 12.34 27.79C12.34 27.81 12.33 27.82 12.33 27.82C12.31 27.83 12.27 27.83 12.22 27.82Z" />
									<path id="Fill 56" fill-rule="evenodd" class="shp0" d="M10.62 29.56C10.59 29.55 10.56 29.54 10.54 29.52C10.52 29.51 10.51 29.49 10.51 29.47C10.5 29.46 10.49 29.42 10.49 29.33L10.47 28.38C10.46 28.29 10.47 28.27 10.47 28.26C10.48 28.24 10.49 28.23 10.5 28.23C10.52 28.22 10.55 28.22 10.58 28.23L10.59 28.23L10.6 28.23C10.64 28.24 10.67 28.26 10.69 28.28C10.71 28.3 10.72 28.32 10.72 28.34C10.73 28.36 10.73 28.4 10.73 28.46L10.76 29.41C10.76 29.5 10.75 29.53 10.75 29.53C10.74 29.55 10.74 29.56 10.72 29.57C10.7 29.58 10.68 29.58 10.64 29.57L10.64 29.57L10.62 29.56ZM12.97 28.84L12.97 28.78L12.55 28.67L12.53 28.66L12.53 28.73L12.54 28.73C12.58 28.74 12.62 28.76 12.64 28.78C12.66 28.79 12.67 28.8 12.68 28.82C12.69 28.84 12.7 28.85 12.7 28.87C12.7 28.89 12.7 28.91 12.69 28.93C12.68 28.96 12.67 29.01 12.64 29.07L12.42 29.62L12.15 28.86C12.12 28.79 12.1 28.73 12.09 28.71C12.09 28.69 12.08 28.68 12.08 28.67C12.08 28.65 12.09 28.64 12.1 28.64C12.11 28.63 12.15 28.63 12.2 28.64L12.24 28.65L12.23 28.59L11.63 28.43L11.62 28.43L11.6 28.42L10.57 28.16L10.55 28.15L10.1 28.04L9.8 28.88L9.43 27.87L9.43 27.86L8.9 27.73L8.89 27.72L8.89 27.79L8.94 27.8C8.97 27.81 9 27.83 9.02 27.84C9.04 27.86 9.05 27.88 9.06 27.9C9.06 27.91 9.07 27.94 9.07 28.03L9.1 28.94C9.1 29.02 9.1 29.04 9.1 29.05C9.09 29.08 9.08 29.1 9.07 29.11C9.06 29.12 9.05 29.13 9.03 29.14C9.01 29.14 8.98 29.14 8.96 29.13L8.93 29.12L8.93 29.19L9.37 29.3L9.38 29.31L9.38 29.24L9.37 29.24C9.32 29.23 9.28 29.21 9.25 29.18C9.23 29.15 9.21 29.12 9.2 29.08C9.2 29.07 9.19 29.03 9.19 28.95L9.17 28.02L9.67 29.38L9.71 29.39L10.14 28.26L10.16 29.26C10.17 29.35 10.16 29.37 10.16 29.38C10.15 29.4 10.14 29.41 10.13 29.42C10.11 29.42 10.08 29.42 10.05 29.41L9.99 29.4L9.99 29.46L10.59 29.62L10.59 29.62L11.7 29.91L11.75 29.45L11.75 29.44L11.69 29.42L11.69 29.43C11.66 29.55 11.61 29.63 11.55 29.67C11.48 29.71 11.39 29.72 11.28 29.69L11.2 29.67C11.17 29.66 11.14 29.65 11.13 29.64C11.11 29.62 11.1 29.61 11.1 29.59C11.09 29.57 11.09 29.52 11.09 29.45L11.08 29.06C11.12 29.07 11.16 29.09 11.19 29.11C11.22 29.14 11.25 29.18 11.27 29.24C11.3 29.29 11.32 29.36 11.32 29.45L11.33 29.46L11.39 29.47L11.37 28.7L11.37 28.69L11.31 28.67L11.31 28.69C11.3 28.8 11.28 28.87 11.25 28.92C11.21 28.96 11.16 28.98 11.09 28.95L11.07 28.95L11.06 28.39L11.17 28.42C11.26 28.45 11.33 28.47 11.36 28.49C11.42 28.53 11.47 28.57 11.5 28.62C11.53 28.67 11.56 28.75 11.58 28.86L11.58 28.87L11.64 28.88L11.63 28.5C11.67 28.52 11.69 28.54 11.71 28.56C11.72 28.58 11.75 28.64 11.82 28.83L12.28 30.09L12.33 30.1L12.74 29.1C12.79 28.99 12.82 28.91 12.85 28.89C12.88 28.85 12.92 28.84 12.96 28.84L12.97 28.84Z" />
									<path id="Fill 58" class="shp0" d="M13.7 29.74C13.64 29.66 13.54 29.55 13.39 29.43C13.28 29.34 13.22 29.28 13.19 29.25C13.15 29.21 13.12 29.17 13.1 29.14C13.09 29.11 13.08 29.08 13.08 29.05C13.08 29 13.09 28.97 13.13 28.94C13.16 28.92 13.2 28.91 13.26 28.93C13.34 28.95 13.42 29 13.49 29.09C13.56 29.18 13.6 29.29 13.62 29.41L13.63 29.42L13.69 29.43L13.67 28.93L13.67 28.92L13.61 28.91L13.61 28.92C13.6 28.98 13.59 28.99 13.59 28.99C13.59 29 13.58 29 13.57 29C13.56 28.99 13.53 28.98 13.48 28.94C13.44 28.91 13.4 28.88 13.37 28.87C13.33 28.84 13.29 28.83 13.25 28.82C13.14 28.79 13.04 28.8 12.96 28.87C12.89 28.93 12.85 29.03 12.86 29.14C12.86 29.21 12.87 29.28 12.9 29.34C12.93 29.41 12.97 29.47 13.02 29.53C13.08 29.59 13.16 29.66 13.28 29.76C13.36 29.82 13.42 29.88 13.45 29.91C13.48 29.95 13.51 29.98 13.52 30.02C13.54 30.05 13.55 30.09 13.55 30.12C13.55 30.17 13.53 30.21 13.49 30.24C13.46 30.27 13.41 30.28 13.34 30.26C13.26 30.24 13.17 30.18 13.09 30.08C13.02 29.98 12.96 29.85 12.93 29.7L12.93 29.69L12.87 29.67L12.88 30.23L12.88 30.24L12.94 30.26L12.94 30.25C12.95 30.22 12.97 30.21 12.98 30.2C12.99 30.19 13.01 30.19 13.02 30.19C13.04 30.2 13.06 30.21 13.09 30.23C13.14 30.27 13.19 30.3 13.23 30.32C13.26 30.34 13.3 30.35 13.34 30.36C13.38 30.37 13.43 30.38 13.46 30.38C13.54 30.38 13.61 30.36 13.66 30.31C13.74 30.24 13.79 30.15 13.78 30.02C13.78 29.93 13.75 29.83 13.7 29.74" />
								</g>
							</g>
						</g>
					</g>
				</g>
			</g>
		</g>
	</g>
</svg>