<svg version="1.2" baseProfile="tiny-ps" xmlns="http://www.w3.org/2000/svg" viewBox="0 0 50 50" width="50" height="50">
	<title>SSA-web_design-v06</title>
	<defs>
		<clipPath clipPathUnits="userSpaceOnUse" id="cp1">
			<path d="M0 49.9L49.9 49.9L49.9 0.15L0 0.15L0 49.9Z" />
		</clipPath>
	</defs>
	<style>
		tspan { white-space:pre }
		.shp0 { fill: #005198 } 
		.shp1 { fill: #fefefe } 
		.shp2 { fill: transparent } 
	</style>
	<g id="SSA-web_design-v06">
		<g id="Group 33">
			<g id="Group 32">
				<g id="Group 29">
					<g id="Group 28">
						<g id="Group 27">
							<g id="Group 15">
								<path id="Fill 1" class="shp0" d="M0 49.9L49.9 49.9L49.9 0.15L0 0.15L0 49.9Z" />
								<g id="Group 14">
									<path id="Fill 2" class="shp1" d="M4.11 31.84L5.81 31.84L5.81 36.84C5.81 38.5 6.8 39.49 8.1 39.49C9.42 39.49 10.4 38.5 10.4 36.84L10.4 31.84L12.1 31.84L12.1 37.2C12.1 39.29 10.53 41.07 8.1 41.07C5.68 41.07 4.11 39.29 4.11 37.2L4.11 31.84Z" />
									<path id="Fill 4" class="shp1" d="M21.55 40.87L21.55 31.84L19.87 31.84L19.87 37.48L14.92 31.84L14 31.84L14 40.86L15.69 40.86L15.69 35.24L20.62 40.87L21.55 40.87Z" />
									<path id="Clip 7" class="shp2" d="M0 49.9L49.9 49.9L49.9 0.15L0 0.15L0 49.9Z" />
									<g id="Mask by Clip 7" clip-path="url(#cp1)">
										<path id="Fill 6" class="shp1" d="M23.57 40.86L25.32 40.86L25.32 31.84L23.57 31.84L23.57 40.86Z" />
										<path id="Fill 8" fill-rule="evenodd" class="shp1" d="M31.67 39.64C29.93 39.64 28.52 38.17 28.52 36.35C28.52 34.53 29.93 33.06 31.67 33.06C33.42 33.06 34.83 34.53 34.83 36.35C34.83 36.97 34.66 37.55 34.38 38.05L33.33 37L32.22 38.11L33.29 39.18C32.82 39.47 32.26 39.64 31.67 39.64ZM31.67 31.55C28.99 31.55 26.81 33.7 26.81 36.35C26.81 39 28.99 41.15 31.67 41.15C32.69 41.15 33.64 40.84 34.42 40.3L35.22 41.09L36.32 39.99L35.56 39.23C36.17 38.43 36.53 37.43 36.53 36.35C36.53 33.7 34.36 31.55 31.67 31.55Z" />
										<path id="Fill 9" fill-rule="evenodd" class="shp1" d="M39.74 37.68L41.1 34.43L42.41 37.68L39.74 37.68ZM43.7 40.86L45.57 40.86L41.72 31.84L40.54 31.84L36.59 40.86L38.4 40.86L39.12 39.16L43.01 39.16L43.7 40.86Z" />
										<path id="Fill 10" class="shp1" d="M19.52 27.24L8.4 27.24L9.56 25.18L16.1 25.18C16.25 25.31 16.4 25.43 16.56 25.55C17.44 26.23 18.44 26.83 19.52 27.24" />
										<path id="Fill 11" class="shp1" d="M21.81 24.85C20.42 23.84 19.46 22.72 18.74 21.63C17.94 20.42 16.19 17.47 17.46 14.38C17.98 13.68 18.68 13.1 19.19 12.72C20.05 12.1 20.66 11.81 21.69 11.53C20.77 12.02 19.43 13.49 19.57 16.32C19.64 17.65 20.27 19.21 20.9 20.17C22.52 22.62 24.55 23.67 26.64 24.21C27.62 24.46 29.13 24.59 31.08 24.69C32.65 24.77 35.88 24.79 36.44 24.79L37.05 24.79L38.43 27.42C38.43 27.42 33.74 27.44 31.56 27.32C28.02 27.14 24.74 26.97 21.81 24.85" />
										<path id="Fill 12" class="shp1" d="M24.49 26.97C23.72 27.16 22.97 27.25 22.28 27.24C20.29 27.24 18.43 26.31 16.88 25.13C15.03 23.71 13.68 21.74 13.34 19.59C13.29 19.34 13.27 19.08 13.23 18.73C13.09 17.25 13.3 15.4 14.34 13.63C15.24 12.1 16.57 10.77 18.77 9.86C19.69 9.47 21.66 9.04 23.95 9.65C26.34 10.31 28.44 11.79 29.79 13.74C29.79 13.74 27.72 11.06 24.18 10.75C24.02 10.74 23.86 10.73 23.7 10.73C21.95 10.69 20.28 11.29 18.88 12.29C18 12.92 17.21 13.71 16.61 14.63C16.48 14.83 15.18 16.72 15.14 19.47C15.11 21.86 16.18 23.58 16.58 24.16C16.6 24.17 17.59 24.84 19.1 25.13C19.98 25.3 20.95 25.26 21.39 25.2C21.43 25.22 21.46 25.25 21.5 25.28C22.54 26.03 23.61 26.55 24.72 26.91L24.49 26.97Z" />
										<path id="Fill 13" class="shp1" d="M31.23 18.37C31.39 20.57 30.05 22.98 29.26 24.04C28.21 23.96 27.37 23.85 26.77 23.7C26.47 23.62 26.17 23.53 25.87 23.43C26.79 22.65 28.03 21.18 28.64 19.15C29.51 16.22 28.5 13.53 27.28 12.26C30.26 14.17 31.13 16.59 31.23 18.37" />
									</g>
								</g>
							</g>
						</g>
					</g>
				</g>
			</g>
		</g>
	</g>
</svg>