<svg version="1.2" baseProfile="tiny-ps" xmlns="http://www.w3.org/2000/svg" viewBox="0 0 126 54" width="126" height="54">
	<title>SSA-web_design-v06</title>
	<defs>
		<clipPath clipPathUnits="userSpaceOnUse" id="cp1">
			<path d="M8.95 47.78L116.49 47.78L116.49 53.71L8.95 53.71L8.95 47.78Z" />
		</clipPath>
	</defs>
	<style>
		tspan { white-space:pre }
		.shp0 { fill: #ec1d24 } 
		.shp1 { fill: #94060a } 
		.shp2 { fill: #c3151c } 
		.shp3 { fill: #fefefe } 
		.shp4 { fill: transparent } 
		.shp5 { fill: #231f20 } 
	</style>
	<g id="SSA-web_design-v06">
		<g id="Group 33">
			<g id="Group 32">
				<g id="Group 29">
					<g id="Group 28">
						<g id="Group 27">
							<g id="Group 26">
								<path id="Fill 1" class="shp0" d="M0 42.01L41.85 42.01L41.85 0L0 0L0 42.01Z" />
								<path id="Fill 2" class="shp1" d="M83.7 42.01L125.55 42.01L125.55 0L83.7 0L83.7 42.01Z" />
								<path id="Fill 3" class="shp2" d="M41.85 42.01L83.7 42.01L83.7 0L41.85 0L41.85 42.01Z" />
								<g id="Group 20">
									<path id="Fill 4" class="shp3" d="M41.85 5.88L38.4 5.88L38.4 12.78C38.4 14.44 37.53 15.39 36.3 15.39C35.23 15.39 34.68 14.66 34.68 13.23L34.68 5.88L31.23 5.88L31.23 13.46C31.23 16.46 32.44 17.89 35.1 17.89C36.69 17.89 37.9 17.14 38.66 15.71L38.66 17.58L41.85 17.58L41.85 5.88Z" />
									<path id="Fill 6" class="shp3" d="M42.79 14.29C43.37 16.47 45.41 17.82 48.28 17.82C51.82 17.82 53.9 16.16 53.9 13.86C53.9 11.81 52.58 10.9 49.87 10.35C47.63 9.9 46.42 9.94 46.42 8.92C46.42 8.17 47.05 7.76 48.21 7.76C49.41 7.76 50.17 8.15 50.59 9.08L53.39 8.58C52.65 6.6 50.91 5.53 48.35 5.53C45.2 5.53 43.3 7.17 43.3 9.35C43.3 11.47 44.78 12.4 47.74 12.97C49.6 13.33 50.64 13.29 50.64 14.31C50.64 15.04 49.9 15.59 48.58 15.59C47.03 15.59 45.99 14.97 45.68 13.9L42.79 14.29Z" />
									<path id="Fill 8" class="shp3" d="M76.53 17.58L79.95 17.58L79.95 10.67C79.95 9.04 80.86 8.03 82.08 8.03C83.17 8.03 83.7 8.78 83.7 10.22L83.7 17.58L87.15 17.58L87.15 9.99C87.15 6.99 85.92 5.55 83.29 5.55C81.71 5.55 80.49 6.3 79.72 7.74L79.72 5.88L76.53 5.88L76.53 17.58Z" />
									<path id="Fill 10" fill-rule="evenodd" class="shp3" d="M108.7 11.72C108.7 15.45 106.27 17.88 102.69 17.88C99.12 17.88 96.69 15.43 96.69 11.72C96.69 7.99 99.12 5.55 102.69 5.55C106.27 5.55 108.7 7.99 108.7 11.72ZM105 11.72C105 9.22 104.17 7.9 102.69 7.9C101.18 7.9 100.39 9.19 100.39 11.72C100.39 14.24 101.18 15.52 102.69 15.52C104.17 15.52 105 14.22 105 11.72Z" />
									<path id="Fill 12" class="shp3" d="M110.9 13.77L110.9 8.16L108.97 8.16L108.97 5.88L111.01 5.88L111.19 2.61L114.34 2.41L114.34 5.88L116.82 5.88L116.82 8.16L114.34 8.16L114.34 13.4C114.34 14.72 114.6 15.25 115.78 15.25C116.09 15.25 116.46 15.21 116.86 15.13L117.08 17.64C116.37 17.77 115.46 17.88 114.8 17.88C112.01 17.88 110.9 16.63 110.9 13.77" />
									<path id="Fill 14" fill-rule="evenodd" class="shp3" d="M66.68 12.31C66.68 14.36 67.63 15.47 69.27 15.47C70.43 15.47 71.36 14.85 71.79 13.73L74.99 13.99C74.2 16.47 72.07 17.88 69.14 17.88C65.41 17.88 62.98 15.4 62.98 11.74C62.98 8.15 65.57 5.55 69.3 5.55C72.84 5.55 75.06 7.9 75.06 11.83L75.06 12.31L66.68 12.31ZM71.45 10.4C71.43 8.69 70.57 7.78 69.09 7.78C67.73 7.78 66.82 8.72 66.73 10.4L71.45 10.4Z" />
									<path id="Fill 16" class="shp3" d="M56.28 13.77L56.28 8.17L54.36 8.15L54.36 5.88L56.39 5.88L56.57 2.61L59.73 2.41L59.73 5.88L62.2 5.88L62.2 8.16L59.73 8.16L59.73 13.4C59.73 14.72 59.98 15.25 61.16 15.25C61.48 15.25 61.84 15.21 62.24 15.13L62.47 17.64C61.76 17.77 60.84 17.88 60.19 17.88C57.39 17.88 56.28 16.63 56.28 13.77" />
									<path id="Fill 18" class="shp3" d="M89.37 17.58L92.81 17.58L92.81 11.85C92.81 9.9 93.86 8.74 95.61 8.74C95.85 8.74 96.08 8.76 96.33 8.78L96.33 5.61C96.08 5.59 95.87 5.57 95.73 5.57C94.02 5.57 92.93 6.46 92.44 7.88L92.44 5.88L89.37 5.88L89.37 17.58Z" />
								</g>
								<path id="Fill 21" class="shp3" d="M12.79 5.88L15.92 5.88L17.96 13.75L20.25 5.88L22.73 5.88L25 13.75L27.11 5.88L30.21 5.88L26.75 17.47L23.51 17.47L21.43 10.69L19.42 17.47L16.18 17.47L12.79 5.88Z" />
								<path id="Fill 22" class="shp3" d="M31.23 2.52L41.85 2.52L41.85 0L31.23 0L31.23 2.52Z" />
								<g id="Group 25">
									<path id="Clip 24" class="shp4" d="M8.95 47.78L116.49 47.78L116.49 53.71L8.95 53.71L8.95 47.78Z" />
									<g id="Mask by Clip 24" clip-path="url(#cp1)">
										<path id="Fill 23" fill-rule="evenodd" class="shp5" d="M11.89 49.7L10.01 52.07L11.95 52.07L11.95 52.78L8.95 52.78L8.95 52.15L10.82 49.76L9.08 49.76L9.08 49.05L11.89 49.05L11.89 49.7ZM9.48 47.91L10.04 47.85L10.49 48.23L10.93 47.85L11.48 47.91L10.49 48.77L9.48 47.91ZM12.42 49.05L13.28 49.05L13.28 52.78L12.42 52.78L12.42 49.05ZM16.77 49.05L15.65 52.78L14.71 52.78L13.6 49.05L14.53 49.05L15.27 51.72L16.04 49.05L16.77 49.05ZM19.56 52.28C19.29 52.65 18.89 52.84 18.37 52.84C17.87 52.84 17.48 52.65 17.21 52.27C16.94 51.9 16.8 51.44 16.8 50.91C16.8 50.36 16.94 49.91 17.22 49.54C17.49 49.18 17.89 49 18.4 49C18.92 49 19.31 49.19 19.57 49.58C19.84 49.97 19.97 50.41 19.97 50.91C19.97 51.46 19.83 51.91 19.56 52.28ZM19.06 50.92C19.06 50.11 18.84 49.71 18.4 49.71C17.94 49.71 17.71 50.11 17.71 50.92C17.71 51.72 17.94 52.13 18.4 52.13C18.84 52.13 19.06 51.73 19.06 50.92ZM22.83 49.05L22.83 49.79L21.91 49.79L21.91 52.78L21.03 52.78L21.03 49.79L20.1 49.79L20.1 49.05L22.83 49.05ZM26.03 49.05L26.03 52.78L25.28 52.78L23.83 50.26C23.83 50.33 23.83 50.37 23.84 50.39C23.84 50.45 23.85 50.51 23.85 50.55L23.85 52.78L23.17 52.78L23.17 49.05L24.11 49.05L25.37 51.25C25.36 51.14 25.35 51.06 25.35 51L25.35 49.05L26.03 49.05ZM29.38 49.76L27.61 49.76L27.61 50.53L29 50.53L29 51.23L27.61 51.23L27.61 52.04L29.38 52.04L29.38 52.78L26.72 52.78L26.72 49.05L29.38 49.05L29.38 49.76ZM28.75 47.78L28.95 48.24L27.76 48.75L27.62 48.44L28.75 47.78ZM32.07 51.4L32.07 52.78L31.18 52.78L31.18 49.05L32.65 49.05C32.97 49.05 33.22 49.09 33.4 49.16C33.57 49.23 33.72 49.35 33.86 49.53C34 49.71 34.06 49.94 34.06 50.2C34.06 50.38 34.03 50.56 33.95 50.74C33.88 50.91 33.78 51.05 33.65 51.15C33.51 51.25 33.39 51.32 33.26 51.35C33.14 51.38 32.94 51.4 32.68 51.4L32.07 51.4ZM32.04 50.72L32.6 50.72C32.82 50.72 32.97 50.67 33.06 50.57C33.14 50.47 33.19 50.36 33.19 50.23C33.19 50.07 33.14 49.95 33.04 49.87C32.94 49.78 32.8 49.73 32.6 49.73L32.04 49.73L32.04 50.72ZM37.11 52.28C36.83 52.65 36.44 52.84 35.92 52.84C35.42 52.84 35.03 52.65 34.75 52.27C34.48 51.9 34.34 51.44 34.34 50.91C34.34 50.36 34.48 49.91 34.76 49.54C35.04 49.18 35.43 49 35.95 49C36.46 49 36.85 49.19 37.12 49.58C37.38 49.97 37.51 50.41 37.51 50.91C37.51 51.46 37.38 51.91 37.11 52.28ZM36.6 50.92C36.6 50.11 36.38 49.71 35.94 49.71C35.48 49.71 35.26 50.11 35.26 50.92C35.26 51.72 35.48 52.13 35.94 52.13C36.38 52.13 36.6 51.73 36.6 50.92ZM38.04 49.05L38.91 49.05L38.91 52.78L38.04 52.78L38.04 49.05ZM40.81 49C41.54 49 42.01 49.29 42.22 49.87L41.48 50.12C41.38 49.83 41.17 49.68 40.85 49.68C40.5 49.68 40.33 49.79 40.33 50.02C40.33 50.11 40.36 50.18 40.43 50.24C40.49 50.3 40.64 50.36 40.86 50.4C41.24 50.48 41.52 50.56 41.7 50.64C41.87 50.71 42.02 50.84 42.14 51.01C42.26 51.19 42.32 51.38 42.32 51.6C42.32 51.93 42.19 52.23 41.93 52.47C41.67 52.72 41.29 52.84 40.78 52.84C40.4 52.84 40.08 52.75 39.81 52.58C39.54 52.41 39.37 52.15 39.28 51.8L40.09 51.62C40.18 51.97 40.43 52.14 40.84 52.14C41.04 52.14 41.19 52.11 41.29 52.03C41.39 51.95 41.44 51.86 41.44 51.75C41.44 51.64 41.39 51.56 41.3 51.5C41.21 51.44 41.04 51.38 40.79 51.33C40.32 51.23 39.98 51.09 39.78 50.92C39.58 50.75 39.48 50.5 39.48 50.18C39.48 49.85 39.6 49.57 39.84 49.34C40.08 49.11 40.4 49 40.81 49ZM45.24 49.05L45.24 49.79L44.32 49.79L44.32 52.78L43.44 52.78L43.44 49.79L42.52 49.79L42.52 49.05L45.24 49.05ZM48.23 49.76L46.47 49.76L46.47 50.53L47.86 50.53L47.86 51.23L46.47 51.23L46.47 52.04L48.23 52.04L48.23 52.78L45.58 52.78L45.58 49.05L48.23 49.05L48.23 49.76ZM51.63 49.05L51.63 52.78L50.89 52.78L49.43 50.26C49.44 50.33 49.44 50.37 49.44 50.39C49.45 50.45 49.45 50.51 49.45 50.55L49.45 52.78L48.77 52.78L48.77 49.05L49.71 49.05L50.97 51.25C50.96 51.14 50.96 51.06 50.96 51L50.96 49.05L51.63 49.05ZM52.33 49.05L53.19 49.05L53.19 52.78L52.33 52.78L52.33 49.05ZM56.54 49.76L54.77 49.76L54.77 50.53L56.17 50.53L56.17 51.23L54.77 51.23L54.77 52.04L56.54 52.04L56.54 52.78L53.89 52.78L53.89 49.05L56.54 49.05L56.54 49.76ZM58.98 49.05L59.75 49.05L59.75 53.71L58.98 53.71L58.98 49.05ZM65.27 49.05L65.27 52.78L64.53 52.78L63.08 50.26C63.08 50.33 63.08 50.37 63.08 50.39C63.09 50.45 63.09 50.51 63.09 50.55L63.09 52.78L62.42 52.78L62.42 49.05L63.35 49.05L64.62 51.25C64.61 51.14 64.6 51.06 64.6 51L64.6 49.05L65.27 49.05ZM68.62 49.76L66.86 49.76L66.86 50.53L68.25 50.53L68.25 51.23L66.86 51.23L66.86 52.04L68.62 52.04L68.62 52.78L65.97 52.78L65.97 49.05L68.62 49.05L68.62 49.76ZM71.84 49.7L69.96 52.07L71.9 52.07L71.9 52.78L68.9 52.78L68.9 52.15L70.77 49.76L69.03 49.76L69.03 49.05L71.84 49.05L71.84 49.7ZM69.44 47.91L69.99 47.85L70.44 48.23L70.88 47.85L71.43 47.91L70.44 48.77L69.44 47.91ZM72.37 49.05L73.23 49.05L73.23 52.78L72.37 52.78L72.37 49.05ZM76.72 49.05L75.6 52.78L74.67 52.78L73.55 49.05L74.48 49.05L75.22 51.72L75.99 49.05L76.72 49.05ZM79.51 52.28C79.24 52.65 78.84 52.84 78.32 52.84C77.82 52.84 77.43 52.65 77.16 52.27C76.89 51.9 76.75 51.44 76.75 50.91C76.75 50.36 76.89 49.91 77.17 49.54C77.44 49.18 77.84 49 78.35 49C78.87 49 79.26 49.19 79.52 49.58C79.79 49.97 79.92 50.41 79.92 50.91C79.92 51.46 79.79 51.91 79.51 52.28ZM79.01 50.92C79.01 50.11 78.79 49.71 78.35 49.71C77.89 49.71 77.66 50.11 77.66 50.92C77.66 51.72 77.89 52.13 78.35 52.13C78.79 52.13 79.01 51.73 79.01 50.92ZM82.78 49.05L82.78 49.79L81.86 49.79L81.86 52.78L80.98 52.78L80.98 49.79L80.05 49.79L80.05 49.05L82.78 49.05ZM85.98 49.05L85.98 52.78L85.23 52.78L83.78 50.26C83.78 50.33 83.78 50.37 83.79 50.39C83.79 50.45 83.8 50.51 83.8 50.55L83.8 52.78L83.12 52.78L83.12 49.05L84.06 49.05L85.32 51.25C85.31 51.14 85.3 51.06 85.3 51L85.3 49.05L85.98 49.05ZM89.33 49.76L87.56 49.76L87.56 50.53L88.95 50.53L88.95 51.23L87.56 51.23L87.56 52.04L89.33 52.04L89.33 52.78L86.67 52.78L86.67 49.05L89.33 49.05L89.33 49.76ZM88.7 47.78L88.9 48.24L87.71 48.75L87.57 48.44L88.7 47.78ZM92.02 51.4L92.02 52.78L91.13 52.78L91.13 49.05L92.6 49.05C92.92 49.05 93.17 49.09 93.35 49.16C93.52 49.23 93.67 49.35 93.81 49.53C93.95 49.71 94.01 49.94 94.01 50.2C94.01 50.38 93.98 50.56 93.9 50.74C93.83 50.91 93.73 51.05 93.6 51.15C93.46 51.25 93.34 51.32 93.21 51.35C93.09 51.38 92.89 51.4 92.63 51.4L92.02 51.4ZM91.99 50.72L92.55 50.72C92.77 50.72 92.92 50.67 93.01 50.57C93.09 50.47 93.14 50.36 93.14 50.23C93.14 50.07 93.09 49.95 92.99 49.87C92.89 49.78 92.75 49.73 92.55 49.73L91.99 49.73L91.99 50.72ZM97.06 52.28C96.78 52.65 96.39 52.84 95.87 52.84C95.37 52.84 94.98 52.65 94.7 52.27C94.43 51.9 94.29 51.44 94.29 50.91C94.29 50.36 94.43 49.91 94.71 49.54C94.99 49.18 95.38 49 95.9 49C96.41 49 96.8 49.19 97.07 49.58C97.33 49.97 97.46 50.41 97.46 50.91C97.46 51.46 97.33 51.91 97.06 52.28ZM96.55 50.92C96.55 50.11 96.33 49.71 95.89 49.71C95.43 49.71 95.21 50.11 95.21 50.92C95.21 51.72 95.43 52.13 95.89 52.13C96.33 52.13 96.55 51.73 96.55 50.92ZM97.99 49.05L98.86 49.05L98.86 52.78L97.99 52.78L97.99 49.05ZM100.76 49C101.49 49 101.96 49.29 102.17 49.87L101.43 50.12C101.33 49.83 101.12 49.68 100.8 49.68C100.45 49.68 100.28 49.79 100.28 50.02C100.28 50.11 100.31 50.18 100.38 50.24C100.44 50.3 100.59 50.36 100.81 50.4C101.19 50.48 101.47 50.56 101.65 50.64C101.82 50.71 101.97 50.84 102.09 51.01C102.21 51.19 102.27 51.38 102.27 51.6C102.27 51.93 102.14 52.23 101.88 52.47C101.62 52.72 101.24 52.84 100.73 52.84C100.35 52.84 100.03 52.75 99.76 52.58C99.49 52.41 99.32 52.15 99.23 51.8L100.04 51.62C100.13 51.97 100.38 52.14 100.79 52.14C100.99 52.14 101.14 52.11 101.24 52.03C101.34 51.95 101.39 51.86 101.39 51.75C101.39 51.64 101.34 51.56 101.25 51.5C101.16 51.44 100.99 51.38 100.74 51.33C100.27 51.23 99.93 51.09 99.73 50.92C99.53 50.75 99.43 50.5 99.43 50.18C99.43 49.85 99.55 49.57 99.79 49.34C100.03 49.11 100.35 49 100.76 49ZM105.19 49.05L105.19 49.79L104.27 49.79L104.27 52.78L103.39 52.78L103.39 49.79L102.47 49.79L102.47 49.05L105.19 49.05ZM108.19 49.76L106.42 49.76L106.42 50.53L107.81 50.53L107.81 51.23L106.42 51.23L106.42 52.04L108.19 52.04L108.19 52.78L105.53 52.78L105.53 49.05L108.19 49.05L108.19 49.76ZM111.58 49.05L111.58 52.78L110.84 52.78L109.38 50.26C109.39 50.33 109.39 50.37 109.39 50.39C109.4 50.45 109.4 50.51 109.4 50.55L109.4 52.78L108.72 52.78L108.72 49.05L109.66 49.05L110.92 51.25C110.91 51.14 110.91 51.06 110.91 51L110.91 49.05L111.58 49.05ZM112.28 49.05L113.14 49.05L113.14 52.78L112.28 52.78L112.28 49.05ZM116.49 49.76L114.72 49.76L114.72 50.53L116.12 50.53L116.12 51.23L114.72 51.23L114.72 52.04L116.49 52.04L116.49 52.78L113.84 52.78L113.84 49.05L116.49 49.05L116.49 49.76Z" />
									</g>
								</g>
							</g>
						</g>
					</g>
				</g>
			</g>
		</g>
	</g>
</svg>