<svg version="1.2" baseProfile="tiny-ps" xmlns="http://www.w3.org/2000/svg" viewBox="0 0 615 437" width="615" height="437">
	<title>SSA-web_design-v06</title>
	<style>
		tspan { white-space:pre }
		.shp0 { fill-opacity: 0.051;fill: #18142e } 
		.shp1 { fill-opacity: 0.102;fill: #18142e } 
		.shp2 { fill: #e8505b } 
		.shp3 { fill: #000000 } 
		.shp4 { fill: #263238 } 
		.shp5 { fill: #ffbe9d } 
		.shp6 { fill: #eb996e } 
		.shp7 { fill: #ebebeb } 
		.shp8 { fill: #292542 } 
		.shp9 { fill: #455a64 } 
		.shp10 { fill: #7e52c5 } 
		.shp11 { fill: #18142e } 
		.shp12 { fill: #504d60 } 
	</style>
	<g id="SSA-web_design-v06">
		<g id="STUDIUM">
			<g id="Group 179">
				<g id="Group 35">
					<path id="Fill 1" class="shp0" d="M157.25 155.76C157.25 155.76 151.65 151.17 142.86 164.78C134.08 178.39 130.46 186.39 130.46 186.39C130.46 186.39 128.22 189.19 126.35 187.02C124.49 184.84 122.23 178.97 118.61 179.62C114.86 180.28 113.25 184.23 113.33 190.27C113.41 196.32 113.11 209.57 113.08 210.76C113.05 211.94 112.2 213.59 110.69 212.31C109.18 211.03 100.92 199.68 95.77 203.93C90.62 208.17 93.62 224.97 93.91 226.82C94.2 228.66 93.77 229.39 92.87 229.75C91.98 230.1 89.56 226.03 87.07 222.9C84.59 219.76 81.16 216.57 78.39 219.27C75.63 221.97 73.59 234.13 83.2 255.22L88.3 264.7L99.1 265.2C122.27 264.87 132.4 257.82 133.65 254.16C134.91 250.51 130.55 248.78 126.66 247.87C122.76 246.97 118.04 246.53 117.98 245.56C117.92 244.6 118.4 243.9 120.19 243.37C121.98 242.85 138.45 238.37 140.08 231.9C141.71 225.43 127.92 222.81 126.12 221.99C124.31 221.18 125.44 219.71 126.49 219.18C127.56 218.64 139.41 212.69 144.91 210.18C150.4 207.67 153.28 204.52 152.28 200.85C151.31 197.3 145.04 197.77 142.28 197.02C139.51 196.26 141.09 193.04 141.09 193.04C141.09 193.04 146.77 186.34 155.3 172.58C163.84 158.81 157.13 155.67 157.13 155.67" />
					<path id="Fill 3" class="shp1" d="M86.39 266.45C92.7 256.37 104.22 238.63 114.03 223.35C123.83 208.08 132.69 194.25 139.06 184.2C142.23 179.18 144.79 175.11 146.58 172.29C147.46 170.89 148.15 169.8 148.62 169.05C148.85 168.69 149.03 168.41 149.16 168.21C149.29 168.02 149.36 167.93 149.36 167.93C149.36 167.93 149.31 168.03 149.19 168.23C149.07 168.43 148.9 168.72 148.68 169.08C148.22 169.84 147.55 170.94 146.69 172.35C144.95 175.19 142.41 179.28 139.26 184.32C132.95 194.41 124.11 208.26 114.31 223.54C104.5 238.81 92.95 256.53 86.59 266.58" />
					<path id="Fill 5" class="shp1" d="M121.44 187.95C121.46 187.95 121.53 188.22 121.64 188.71C121.74 189.19 121.88 189.91 122.03 190.79C122.34 192.55 122.71 194.99 123.06 197.69C123.4 200.36 123.71 202.77 123.95 204.62C124.06 205.45 124.15 206.15 124.23 206.72C124.3 207.21 124.32 207.49 124.3 207.49C124.28 207.49 124.21 207.23 124.1 206.74C123.99 206.25 123.86 205.54 123.71 204.65C123.42 202.89 123.09 200.44 122.73 197.74C122.37 195.07 122.05 192.67 121.8 190.82C121.68 189.99 121.59 189.29 121.51 188.73C121.44 188.23 121.42 187.96 121.44 187.95" />
					<path id="Fill 7" class="shp1" d="M125.26 207.78C125.25 207.69 130.25 206.71 136.44 205.6C142.63 204.49 147.66 203.66 147.68 203.75C147.69 203.84 142.69 204.82 136.5 205.93C130.31 207.04 125.28 207.87 125.26 207.78" />
					<path id="Fill 9" class="shp1" d="M109.15 230.56C109.15 230.54 109.43 230.55 109.94 230.6C110.52 230.66 111.24 230.74 112.09 230.83C113.9 231.02 116.41 231.27 119.18 231.45C121.96 231.63 124.47 231.71 126.3 231.75C127.15 231.77 127.88 231.78 128.46 231.8C128.97 231.81 129.25 231.83 129.25 231.85C129.25 231.88 128.97 231.9 128.46 231.93C127.95 231.95 127.21 231.98 126.29 231.98C124.47 232 121.94 231.96 119.16 231.78C116.38 231.6 113.87 231.32 112.06 231.07C111.16 230.94 110.43 230.82 109.92 230.73C109.42 230.64 109.14 230.58 109.15 230.56" />
					<path id="Fill 11" class="shp1" d="M101.74 213.38C101.76 213.37 101.89 213.6 102.1 214.03C102.33 214.52 102.62 215.12 102.96 215.83C103.68 217.35 104.64 219.47 105.69 221.82C106.74 224.17 107.67 226.31 108.33 227.86C108.63 228.58 108.89 229.2 109.1 229.7C109.27 230.14 109.36 230.39 109.34 230.4C109.32 230.41 109.19 230.18 108.98 229.75C108.74 229.26 108.46 228.66 108.12 227.95C107.4 226.43 106.43 224.31 105.39 221.96C104.34 219.61 103.41 217.48 102.75 215.92C102.44 215.2 102.19 214.58 101.98 214.08C101.81 213.64 101.72 213.39 101.74 213.38" />
					<path id="Fill 13" class="shp1" d="M84.96 231.68C84.98 231.67 85.14 231.97 85.41 232.51C85.7 233.11 86.07 233.89 86.52 234.81C87.45 236.77 88.71 239.47 90.08 242.47C91.45 245.47 92.68 248.19 93.55 250.17C93.96 251.11 94.3 251.9 94.57 252.51C94.8 253.07 94.92 253.38 94.9 253.39C94.88 253.4 94.72 253.11 94.45 252.57C94.16 251.97 93.79 251.19 93.34 250.26C92.41 248.31 91.15 245.61 89.78 242.61C88.4 239.61 87.18 236.89 86.31 234.91C85.9 233.97 85.55 233.18 85.29 232.56C85.06 232.01 84.94 231.69 84.96 231.68" />
					<path id="Fill 15" class="shp1" d="M94.81 252.81C94.81 252.79 95.17 252.8 95.82 252.84C96.52 252.89 97.44 252.95 98.55 253.03C100.86 253.19 104.05 253.39 107.57 253.52C111.1 253.66 114.29 253.69 116.61 253.7C117.72 253.71 118.64 253.71 119.35 253.72C119.99 253.72 120.35 253.74 120.35 253.76C120.35 253.78 120 253.81 119.35 253.85C118.7 253.88 117.77 253.92 116.61 253.94C114.29 253.99 111.09 253.99 107.56 253.86C104.03 253.73 100.83 253.48 98.53 253.27C97.38 253.15 96.45 253.05 95.8 252.97C95.16 252.89 94.81 252.83 94.81 252.81" />
					<path id="Fill 17" class="shp0" d="M69.13 193.9C69.13 193.9 69.25 195.62 68.85 198.83C68.42 202.01 67.4 206.76 64.36 212.06L64.25 211.88L64.26 211.88L64.47 211.88L64.37 212.06C57.85 223.62 48.06 240.97 36.36 261.73L36.18 262.04L35.99 261.74C27.08 247.52 17.01 231.46 6.38 214.51C5.88 213.71 5.38 212.92 4.93 212.18L4.7 211.82L5.12 211.82L5.13 211.82L4.92 212.18C2.65 208.29 1.16 204.02 0.46 199.7C0.13 197.54 -0.06 195.36 0.02 193.21C0.08 192.13 0.13 191.06 0.19 190C0.35 188.94 0.51 187.89 0.67 186.84C2.29 178.5 6.83 171.19 12.76 166.17C15.74 163.68 19.07 161.78 22.5 160.45L23.79 159.97L24.43 159.73L25.08 159.55C25.96 159.33 26.83 159.1 27.69 158.87C29.45 158.61 31.18 158.25 32.91 158.24C34.63 158.08 36.33 158.25 37.99 158.33C38.82 158.4 39.63 158.58 40.43 158.69C40.84 158.76 41.24 158.82 41.63 158.89C42.03 158.97 42.41 159.09 42.8 159.19C43.57 159.4 44.34 159.6 45.09 159.81C45.83 160.09 46.55 160.36 47.27 160.64C47.62 160.78 47.99 160.9 48.33 161.05C48.67 161.22 49.01 161.39 49.34 161.56C50.01 161.9 50.67 162.23 51.32 162.56C56.4 165.51 60.2 169.37 62.83 173.18C65.47 177.01 66.93 180.78 67.84 183.9C68.22 185.49 68.6 186.89 68.72 188.14C68.89 189.38 69.06 190.43 69.05 191.29C69.08 192.13 69.11 192.78 69.12 193.23C69.13 193.67 69.13 193.9 69.13 193.9C69.13 193.9 69.1 193.67 69.07 193.24C69.05 192.78 69.01 192.14 68.96 191.29C68.96 190.44 68.77 189.39 68.58 188.16C68.45 186.91 68.06 185.52 67.66 183.95C66.74 180.85 65.26 177.11 62.61 173.33C59.99 169.56 56.2 165.75 51.16 162.85C50.51 162.52 49.86 162.2 49.2 161.86C48.86 161.7 48.53 161.53 48.19 161.37C47.85 161.21 47.49 161.09 47.14 160.96C46.43 160.69 45.71 160.42 44.99 160.14C44.24 159.94 43.48 159.74 42.72 159.54C42.33 159.44 41.95 159.32 41.56 159.24C41.17 159.18 40.77 159.12 40.37 159.05C39.57 158.94 38.77 158.77 37.95 158.7C36.31 158.62 34.64 158.47 32.93 158.63C31.22 158.64 29.52 159 27.78 159.26C26.92 159.49 26.06 159.71 25.2 159.94L24.55 160.12L23.92 160.35L22.65 160.83C19.27 162.15 15.98 164.03 13.03 166.5C7.18 171.46 2.72 178.69 1.12 186.93C0.96 187.96 0.81 189 0.65 190.04C0.59 191.1 0.54 192.15 0.48 193.22C0.4 195.34 0.59 197.49 0.92 199.63C1.61 203.89 3.09 208.1 5.33 211.94L5.54 212.29L5.13 212.29L5.12 212.29L5.32 211.93C5.78 212.67 6.28 213.46 6.78 214.26C17.39 231.22 27.45 247.29 36.35 261.51L35.99 261.52C47.76 240.8 57.6 223.48 64.16 211.94L64.26 212.12L64.25 212.12L64.04 212.12L64.15 211.94C67.2 206.7 68.26 201.97 68.72 198.81C68.95 197.22 69.02 195.98 69.07 195.15C69.09 194.75 69.1 194.44 69.11 194.22C69.12 194 69.13 193.9 69.13 193.9" />
					<path id="Fill 19" class="shp0" d="M56.56 193.5C56.56 193.5 56.54 193.38 56.52 193.15C56.5 192.89 56.48 192.55 56.45 192.11C56.43 191.88 56.42 191.63 56.4 191.35C56.37 191.07 56.31 190.76 56.26 190.43C56.16 189.77 56.06 189.01 55.8 188.18C55.42 186.49 54.63 184.5 53.38 182.38C52.13 180.28 50.32 178.08 47.86 176.22C45.41 174.37 42.31 172.79 38.73 172.15C35.18 171.53 31.17 171.63 27.35 173.08C26.37 173.38 25.46 173.86 24.52 174.31C23.63 174.85 22.69 175.34 21.86 176.01C20.98 176.62 20.2 177.37 19.4 178.1C18.67 178.9 17.9 179.69 17.27 180.6C15.98 182.39 14.85 184.38 14.16 186.56C13.45 188.73 13.06 191.04 13.02 193.39C13.05 195.74 13.42 198.05 14.12 200.23C14.8 202.42 15.92 204.41 17.2 206.2C17.83 207.12 18.59 207.91 19.32 208.72C20.12 209.45 20.89 210.21 21.77 210.82C22.6 211.49 23.53 211.99 24.42 212.53C25.36 212.98 26.27 213.47 27.24 213.78C31.06 215.24 35.07 215.37 38.63 214.76C42.21 214.14 45.31 212.58 47.78 210.74C50.25 208.89 52.07 206.7 53.33 204.6C54.58 202.5 55.38 200.51 55.78 198.82C56.03 197.99 56.14 197.23 56.25 196.57C56.3 196.24 56.36 195.94 56.39 195.66C56.41 195.38 56.43 195.12 56.44 194.89C56.48 194.46 56.5 194.11 56.52 193.86C56.54 193.62 56.56 193.5 56.56 193.5C56.57 193.5 56.57 193.62 56.57 193.86C56.56 194.12 56.55 194.46 56.54 194.9C56.53 195.13 56.52 195.39 56.51 195.67C56.48 195.95 56.43 196.26 56.38 196.59C56.29 197.25 56.2 198.03 55.95 198.87C55.58 200.57 54.8 202.59 53.55 204.74C52.3 206.87 50.47 209.11 47.98 211.01C45.49 212.89 42.34 214.5 38.7 215.15C35.08 215.78 30.99 215.67 27.09 214.19C26.1 213.87 25.17 213.38 24.21 212.92C23.3 212.37 22.35 211.86 21.5 211.18C20.6 210.56 19.82 209.79 19 209.04C18.25 208.22 17.47 207.41 16.83 206.47C15.52 204.64 14.37 202.61 13.68 200.37C12.96 198.15 12.58 195.79 12.55 193.39C12.59 190.99 12.99 188.63 13.72 186.41C14.42 184.18 15.57 182.15 16.9 180.33C17.54 179.4 18.33 178.59 19.08 177.77C19.9 177.03 20.69 176.27 21.59 175.65C22.44 174.97 23.4 174.47 24.31 173.92C25.27 173.47 26.21 172.98 27.2 172.67C31.11 171.21 35.19 171.12 38.81 171.77C42.44 172.44 45.59 174.06 48.06 175.95C50.55 177.86 52.36 180.11 53.61 182.25C54.85 184.4 55.62 186.43 55.98 188.13C56.22 188.98 56.31 189.75 56.4 190.41C56.44 190.75 56.5 191.05 56.52 191.33C56.53 191.62 56.54 191.87 56.54 192.1C56.56 192.54 56.56 192.89 56.57 193.15C56.57 193.38 56.57 193.5 56.56 193.5" />
					<path id="Fill 21" class="shp1" d="M34.24 203.69L21.52 194.81L24.62 190.38L33.15 196.33L44.18 182.3L48.44 185.65L34.24 203.69Z" />
					<path id="Fill 23" fill-rule="evenodd" class="shp0" d="M338.87 33.95C347.53 33.64 355.37 39.61 357.38 48.04C360.08 59.42 351.77 70.34 340.07 70.77C331.42 71.09 323.57 65.12 321.56 56.69C318.85 45.3 327.17 34.36 338.87 33.95ZM340.34 0.77L323.33 3.08L322.42 13.41C318.92 14.87 315.67 16.77 312.75 19.05L303.31 14.74L292.91 28.4L299.58 36.36C298.16 39.78 297.19 43.42 296.72 47.18L287 50.81L289.31 67.83L299.64 68.74C301.1 72.24 303.01 75.48 305.28 78.41L300.97 87.85L314.64 98.25L322.59 91.58C326.02 93 329.65 93.97 333.41 94.44L337.04 104.16L354.06 101.85L354.97 91.52C358.47 90.06 361.72 88.15 364.64 85.88L374.08 90.18L384.48 76.52L377.82 68.57C379.23 65.14 380.2 61.51 380.67 57.74L390.39 54.11L388.08 37.1L377.75 36.19C376.29 32.69 374.39 29.44 372.11 26.52L376.42 17.08L362.75 6.68L354.8 13.34C351.37 11.93 347.74 10.96 343.98 10.48L340.34 0.77Z" />
					<path id="Fill 25" fill-rule="evenodd" class="shp1" d="M232.05 108.95C237.67 108.75 242.76 112.63 244.06 118.1C245.81 125.49 240.42 132.58 232.83 132.86C227.21 133.06 222.11 129.19 220.81 123.72C219.05 116.32 224.45 109.22 232.05 108.95ZM233 87.42L221.96 88.91L221.37 95.62C219.09 96.57 216.99 97.81 215.09 99.28L208.96 96.49L202.21 105.36L206.54 110.52C205.62 112.74 204.99 115.1 204.68 117.54L198.37 119.9L199.87 130.95L206.58 131.54C207.53 133.81 208.76 135.92 210.24 137.81L207.45 143.94L216.31 150.69L221.48 146.37C223.7 147.29 226.06 147.92 228.5 148.22L230.86 154.53L241.91 153.03L242.5 146.32C244.77 145.38 246.88 144.14 248.77 142.66L254.9 145.46L261.65 136.59L257.33 131.43C258.24 129.2 258.88 126.84 259.18 124.4L265.49 122.04L263.99 111L257.28 110.41C256.34 108.14 255.1 106.03 253.62 104.13L256.42 98L247.55 91.25L242.39 95.58C240.16 94.66 237.8 94.03 235.36 93.72L233 87.42Z" />
					<path id="Fill 27" class="shp0" d="M328.03 174.45C328.03 174.45 329.67 175.05 332.03 177.09C334.33 179.1 337.31 182.88 338.22 188.47C338.64 191.22 338.57 194.39 337.53 197.53C336.49 200.65 334.66 203.83 331.82 206.27C330.45 207.53 328.82 208.58 327.05 209.39C325.29 210.23 323.36 210.81 321.34 211.06C317.32 211.65 312.98 210.86 309.18 208.82C305.42 206.71 302.42 203.48 300.75 199.77C299.88 197.94 299.33 195.99 299.09 194.06C298.82 192.12 298.84 190.19 299.16 188.35C299.7 184.65 301.39 181.4 303.46 178.84C305.56 176.28 308.19 174.51 310.74 173.39C315.94 171.16 320.73 171.64 323.66 172.5C326.65 173.39 328.03 174.45 328.03 174.45C327.98 174.57 326.5 173.66 323.55 172.92C320.65 172.2 316.01 171.87 311.06 174.11C308.62 175.23 306.14 176.95 304.17 179.43C302.23 181.89 300.65 185 300.17 188.51C299.88 190.25 299.88 192.09 300.14 193.91C300.37 195.75 300.9 197.58 301.74 199.31C303.32 202.82 306.16 205.85 309.72 207.85C313.3 209.77 317.39 210.53 321.2 209.99C323.1 209.76 324.94 209.22 326.61 208.43C328.29 207.67 329.83 206.69 331.15 205.5C333.85 203.21 335.62 200.21 336.66 197.25C337.69 194.26 337.8 191.24 337.44 188.58C336.67 183.21 333.89 179.46 331.73 177.41C329.52 175.31 327.96 174.57 328.03 174.45" />
					<path id="Fill 29" class="shp0" d="M348.66 158.88C348.64 158.88 348.69 158.66 348.8 158.22C348.93 157.73 349.11 157.07 349.33 156.22C349.83 154.4 350.55 151.78 351.48 148.37L351.57 148.57C347.51 146.38 342.18 143.49 335.72 140L336.07 139.94C333.9 142.42 331.48 145.17 328.89 148.12L328.76 148.27L328.57 148.22C325.01 147.35 321.1 146.88 316.98 146.99L316.76 147L316.66 146.81C315 143.84 313.21 140.64 311.35 137.3L311.8 137.49C306.36 139.09 300.59 140.79 294.53 142.57L294.84 142.12C295.05 145.49 295.28 149.19 295.52 152.99L295.54 153.26L295.3 153.41C292.21 155.28 289.05 157.74 286.25 160.69L286.05 160.9L285.77 160.82C282.53 159.9 278.95 158.88 275.31 157.84L275.88 157.6C273.16 162.57 270.24 167.92 267.23 173.41L267.12 172.77C269.66 175.02 272.45 177.48 275.28 179.98L275.52 180.19L275.44 180.5C274.57 184.03 274.09 188.01 274.19 192.03L274.2 192.35L273.92 192.51C270.93 194.17 267.68 195.97 264.4 197.8L264.66 197.17C266.25 202.65 267.97 208.51 269.7 214.46L269.14 214.07C272.57 213.86 276.28 213.63 280.01 213.4L280.34 213.38L280.52 213.67C282.42 216.82 284.88 219.96 287.76 222.7L287.77 222.71L287.77 222.71C287.84 222.96 287.62 222.16 287.92 223.27L287.92 223.28L287.91 223.3L287.9 223.34L287.88 223.42L287.83 223.59L287.74 223.91L287.55 224.57L287.17 225.89L286.42 228.51C285.92 230.26 285.42 232 284.93 233.73L284.66 233.09C290 236.02 295.26 238.91 300.45 241.76L299.78 241.87C302.2 239.13 304.61 236.42 306.99 233.73L307.21 233.48L307.53 233.56C311.34 234.5 315.23 234.92 319.06 234.83L319.38 234.82L319.54 235.1C321.32 238.32 323.08 241.49 324.81 244.63L324.21 244.37C330.11 242.66 335.88 240.98 341.5 239.35L341.13 239.87C340.91 236.19 340.7 232.56 340.48 229.01L340.47 228.7L340.72 228.55C344.12 226.51 347.17 224.04 349.79 221.3L349.99 221.09L350.27 221.17C353.86 222.2 357.33 223.2 360.73 224.18L360.2 224.4C363.26 218.85 366.14 213.62 368.89 208.63L368.98 209.15C366.12 206.61 363.44 204.22 360.85 201.92L360.67 201.76L360.73 201.53C361.73 197.49 362.1 193.62 362.03 189.96L362.02 189.73L362.21 189.63C365.68 187.72 368.8 186 371.75 184.38L371.59 184.76C369.67 178.05 368.03 172.34 366.63 167.44L366.88 167.62C362.54 167.86 358.98 168.05 356.01 168.22L355.9 168.22L355.85 168.13C353.82 164.73 351.91 162.47 350.63 161.02C349.99 160.33 349.5 159.8 349.14 159.41C348.8 159.06 348.64 158.88 348.66 158.88C348.67 158.87 348.86 159.04 349.21 159.35C349.56 159.68 350.09 160.18 350.76 160.89C352.1 162.32 354.06 164.55 356.16 167.94L355.99 167.86C358.96 167.66 362.51 167.42 366.85 167.13L367.05 167.11L367.11 167.31C368.55 172.18 370.24 177.88 372.22 184.57L372.3 184.82L372.07 184.95C369.13 186.6 366.02 188.34 362.57 190.27L362.75 189.94C362.85 193.67 362.5 197.6 361.5 201.72L361.38 201.32C363.98 203.61 366.67 205.99 369.55 208.52L369.8 208.74L369.64 209.04C366.91 214.04 364.04 219.28 361.01 224.85L360.83 225.17L360.47 225.07C357.08 224.1 353.6 223.11 350.01 222.09L350.49 221.96C347.82 224.77 344.71 227.3 341.24 229.4L341.48 228.94C341.7 232.5 341.92 236.12 342.15 239.81L342.18 240.22L341.78 240.33C336.17 241.98 330.4 243.66 324.5 245.39L324.1 245.51L323.89 245.14C322.15 242.01 320.39 238.84 318.6 235.62L319.08 235.9C315.16 236 311.17 235.58 307.27 234.62L307.8 234.45C305.43 237.14 303.02 239.86 300.6 242.6L300.31 242.93L299.92 242.72C294.73 239.87 289.46 236.99 284.13 234.06L283.74 233.85L283.86 233.42C284.36 231.69 284.85 229.95 285.35 228.21L286.11 225.58L286.48 224.27L286.67 223.61L286.77 223.28L286.81 223.12L286.84 223.03L286.85 222.99L286.85 222.97L286.86 222.96C287.16 224.07 286.94 223.27 287.01 223.51L287 223.51L287 223.51C284.04 220.69 281.52 217.48 279.57 214.24L280.08 214.51C276.35 214.73 272.64 214.96 269.21 215.17L268.77 215.19L268.65 214.77C266.91 208.82 265.21 202.95 263.61 197.48L263.49 197.06L263.87 196.85C267.16 195.03 270.41 193.23 273.4 191.57L273.12 192.06C273.02 187.93 273.52 183.86 274.42 180.24L274.58 180.76C271.76 178.26 268.98 175.79 266.44 173.54L266.13 173.27L266.33 172.91C269.34 167.43 272.28 162.09 275.01 157.13L275.2 156.78L275.58 156.89C279.22 157.94 282.8 158.97 286.04 159.9L285.56 160.03C288.43 157.02 291.66 154.52 294.83 152.62L294.61 153.04C294.39 149.25 294.17 145.54 293.97 142.18L293.95 141.83L294.28 141.73C300.35 139.97 306.13 138.3 311.58 136.73L311.89 136.64L312.04 136.92C313.88 140.26 315.66 143.48 317.29 146.45L316.97 146.26C321.15 146.17 325.12 146.68 328.73 147.59L328.41 147.69C331.01 144.76 333.45 142.03 335.65 139.57L335.8 139.4L336 139.51C342.41 143.07 347.71 146.02 351.74 148.26L351.86 148.33L351.82 148.47C350.82 151.82 350.05 154.41 349.51 156.2C349.25 157.05 349.04 157.71 348.89 158.19C348.75 158.64 348.67 158.87 348.66 158.88" />
					<path id="Combined Shape" class="shp1" d="M391 176.96L375.3 114.56L439.15 113.5L391 176.96ZM536.78 214.32L514.85 243.22L397.97 154.53L419.9 125.63L536.78 214.32Z" />
				</g>
				<g id="Group 150">
					<path id="Fill 36" class="shp2" d="M505.22 336.48L513.33 354.87C513.33 354.87 497.36 369.29 498.53 372.83L534.75 358.39L523.29 329.22L505.22 336.48Z" />
					<path id="Fill 38" class="shp3" d="M505.22 336.48L513.33 354.87C513.33 354.87 497.36 369.29 498.53 372.83L534.75 358.39L523.29 329.22L505.22 336.48Z" />
					<path id="Fill 40" class="shp4" d="M534.75 358.39L533.48 355.5L499.23 370.43C499.23 370.43 497.89 371.77 498.53 372.84L534.75 358.39Z" />
					<path id="Fill 42" class="shp2" d="M569 362.53L579.15 379.88C579.15 379.88 564.93 396.02 566.49 399.41L600.83 380.93L586.12 353.26L569 362.53Z" />
					<path id="Fill 44" class="shp3" d="M569 362.53L579.15 379.88C579.15 379.88 564.93 396.02 566.49 399.41L600.83 380.93L586.12 353.26L569 362.53Z" />
					<path id="Fill 46" class="shp4" d="M600.83 380.93L599.24 378.2L566.91 396.94C566.91 396.94 565.74 398.42 566.5 399.41L600.83 380.93Z" />
					<path id="Fill 48" class="shp5" d="M524.69 119.23L502.44 120.97L501.7 108.51C501.7 108.51 492.72 108.38 491.37 99.61C490.03 90.84 488.72 70.45 488.72 70.45C498.27 64.65 510.22 64.48 519.94 70L521.38 70.82L524.69 119.23Z" />
					<path id="Fill 50" class="shp6" d="M501.66 108.38C501.66 108.38 507.28 108.05 512.66 103.52C512.66 103.52 510.71 110.41 501.84 110.86L501.66 108.38Z" />
					<path id="Fill 52" class="shp5" d="M521.58 80.07C521.72 79.98 527.36 77.43 528.01 83.47C528.67 89.5 522.47 88.91 522.44 88.74C522.42 88.56 521.58 80.07 521.58 80.07" />
					<path id="Fill 54" class="shp6" d="M524.04 86.25C524.06 86.23 524.15 86.31 524.34 86.38C524.52 86.44 524.83 86.46 525.13 86.31C525.74 86 526.17 84.93 526.08 83.84C526.03 83.29 525.86 82.78 525.62 82.37C525.39 81.95 525.07 81.67 524.74 81.65C524.42 81.61 524.21 81.83 524.15 82.01C524.09 82.18 524.14 82.3 524.11 82.31C524.1 82.33 523.97 82.23 523.99 81.97C524.01 81.85 524.06 81.7 524.19 81.57C524.32 81.43 524.53 81.35 524.75 81.35C525.22 81.33 525.69 81.72 525.95 82.17C526.24 82.62 526.45 83.19 526.5 83.81C526.59 85.03 526.09 86.23 525.25 86.58C524.84 86.74 524.47 86.65 524.27 86.52C524.07 86.4 524.02 86.26 524.04 86.25" />
					<path id="Fill 56" class="shp4" d="M492.51 84.26C492.58 84.92 493.2 85.41 493.9 85.35C494.59 85.29 495.1 84.7 495.03 84.04C494.96 83.37 494.34 82.88 493.64 82.94C492.95 83 492.44 83.59 492.51 84.26" />
					<path id="Fill 58" class="shp4" d="M492.12 82.58C492.3 82.72 493.15 81.88 494.5 81.7C495.84 81.49 496.93 82.04 497.06 81.86C497.12 81.78 496.92 81.5 496.44 81.25C495.97 81 495.21 80.79 494.37 80.92C493.53 81.04 492.86 81.45 492.5 81.82C492.13 82.2 492.03 82.51 492.12 82.58" />
					<path id="Fill 60" class="shp4" d="M505.64 82.74C505.71 83.4 506.33 83.89 507.02 83.83C507.72 83.77 508.23 83.19 508.16 82.52C508.09 81.85 507.47 81.36 506.77 81.42C506.08 81.48 505.57 82.07 505.64 82.74" />
					<path id="Fill 62" class="shp4" d="M505.42 80.96C505.6 81.1 506.45 80.27 507.8 80.08C509.15 79.88 510.24 80.43 510.36 80.25C510.42 80.16 510.22 79.89 509.75 79.64C509.28 79.38 508.51 79.18 507.67 79.3C506.83 79.42 506.17 79.83 505.8 80.21C505.43 80.58 505.34 80.9 505.42 80.96" />
					<path id="Fill 64" class="shp4" d="M501.93 91.66C501.93 91.58 501.07 91.56 499.68 91.58C499.33 91.59 499 91.57 498.91 91.34C498.79 91.1 498.88 90.71 498.99 90.29C499.2 89.4 499.42 88.48 499.64 87.52C500.53 83.58 501.13 80.36 500.97 80.33C500.81 80.3 499.96 83.46 499.07 87.39C498.86 88.36 498.65 89.29 498.46 90.17C498.39 90.58 498.22 91.06 498.47 91.55C498.6 91.79 498.88 91.94 499.11 91.97C499.34 92.01 499.54 91.99 499.71 91.97C501.09 91.85 501.94 91.74 501.93 91.66" />
					<path id="Fill 66" class="shp4" d="M506.03 92.04C505.81 92.06 506.02 93.52 504.91 94.74C503.8 95.96 502.22 96.01 502.24 96.22C502.23 96.31 502.62 96.46 503.29 96.38C503.94 96.31 504.85 95.97 505.53 95.23C506.2 94.48 506.41 93.58 506.38 92.98C506.35 92.36 506.13 92.02 506.03 92.04" />
					<path id="Fill 68" class="shp4" d="M504.33 75.72C504.51 76.07 505.84 75.71 507.45 75.67C509.06 75.61 510.4 75.9 510.56 75.54C510.64 75.36 510.36 75.05 509.8 74.77C509.24 74.49 508.37 74.26 507.41 74.29C506.44 74.32 505.59 74.59 505.05 74.91C504.5 75.23 504.25 75.56 504.33 75.72" />
					<path id="Fill 70" class="shp4" d="M492.06 78.6C492.35 78.87 493.23 78.42 494.35 78.25C495.46 78.04 496.44 78.17 496.61 77.82C496.69 77.65 496.49 77.36 496.04 77.13C495.59 76.9 494.88 76.76 494.11 76.89C493.35 77.02 492.72 77.39 492.37 77.76C492.02 78.13 491.94 78.47 492.06 78.6" />
					<path id="Fill 72" class="shp4" d="M483.66 65.51C483.41 64.43 483.65 63.21 484.45 62.44C485.24 61.68 486.62 61.53 487.46 62.25C486.84 60.84 487.8 58.98 489.31 58.67C490.73 58.38 492.1 59.29 493.54 59.47C494.94 59.65 496.35 59.13 497.58 58.42C498.8 57.72 499.92 56.82 501.16 56.16C503.77 54.77 506.93 54.45 509.75 55.3C512.58 56.14 515.05 58.14 516.46 60.73C518.3 59.86 520.62 60.53 522.03 61.99C523.44 63.45 524.05 65.55 524.09 67.58C524.12 68.95 523.92 70.31 523.64 71.66C523.66 71.77 523.68 71.88 523.7 72C524.29 76.84 524.54 82.59 522.48 82.91C518.9 83.47 518.8 76.58 518.8 76.58C514.16 75.5 514.87 68.66 513.63 67.82C512.38 66.97 509.75 64.97 501.18 70.98C497.86 73.32 493.09 73.93 490.4 73.7C490.32 73.7 490.24 73.7 490.16 73.69C490.15 73.69 490.13 73.69 490.11 73.69C490.08 73.68 490.06 73.67 490.03 73.67C489.17 73.57 488.32 73.36 487.52 73C486.61 72.58 485.75 71.97 485.27 71.1C484.78 70.23 484.75 69.06 485.38 68.28C484.58 67.52 483.91 66.59 483.66 65.51" />
					<path id="Fill 74" class="shp7" d="M501.66 116.14L502.66 151.02L524.35 104.3L523.81 99.98L501.66 116.14Z" />
					<path id="Fill 76" class="shp8" d="M516.06 220.39C515.26 220.65 470.09 266.34 471.1 274.55C472.12 282.75 504.28 343.53 504.28 343.53L527.22 332.22L505.7 278.94L505.98 275.63L532.28 254.08L530.88 219.41L516.06 220.39Z" />
					<path id="Fill 78" class="shp8" d="M525.8 229.4C526.32 230.19 534.15 301.97 536.24 305.68C538.34 309.4 569.76 370.68 569.76 370.68L593.09 361.27L564.61 293.93L567.86 230.19L566.1 212.19L530.88 219.41L525.8 229.4Z" />
					<path id="Fill 80" class="shp9" d="M535.84 304.42C535.82 304.42 535.77 304.18 535.68 303.7C535.6 303.18 535.48 302.49 535.34 301.63C535.06 299.77 534.67 297.18 534.19 293.99C533.25 287.49 531.97 278.6 530.56 268.78C529.2 258.94 527.97 250.04 527.08 243.54C526.66 240.34 526.32 237.74 526.08 235.88C525.98 235.01 525.89 234.32 525.83 233.79C525.78 233.32 525.76 233.06 525.78 233.06C525.8 233.06 525.85 233.31 525.93 233.78C526.02 234.3 526.13 234.99 526.27 235.85C526.55 237.71 526.95 240.3 527.43 243.49C528.36 249.99 529.64 258.88 531.06 268.71C532.41 278.54 533.64 287.44 534.54 293.95C534.96 297.14 535.29 299.74 535.54 301.6C535.64 302.47 535.72 303.16 535.78 303.69C535.83 304.17 535.85 304.42 535.84 304.42" />
					<path id="Fill 82" class="shp9" d="M564.02 291.87C564.15 291.91 563.55 294.45 562.67 297.56C561.78 300.66 560.96 303.15 560.83 303.11C560.69 303.07 561.3 300.52 562.18 297.42C563.06 294.32 563.89 291.83 564.02 291.87" />
					<path id="Fill 84" class="shp9" d="M567.55 308.13C567.5 308.16 566.95 307.53 566.28 306.35C565.6 305.19 564.85 303.45 564.41 301.43C563.98 299.4 563.96 297.51 564.1 296.16C564.24 294.82 564.49 294.02 564.54 294.03C564.71 294.04 564.03 297.35 564.9 301.32C565.73 305.3 567.7 308.05 567.55 308.13" />
					<path id="Fill 86" class="shp9" d="M498.17 271.2C498.22 271.09 500.11 271.87 501.94 273.55C503.79 275.23 504.74 277.03 504.63 277.09C504.5 277.17 503.39 275.54 501.6 273.93C499.83 272.3 498.1 271.34 498.17 271.2" />
					<path id="Fill 88" class="shp9" d="M501.71 269.08C501.81 268.99 502.96 270.01 503.94 271.61C504.93 273.2 505.32 274.69 505.2 274.73C505.06 274.78 504.47 273.41 503.51 271.87C502.56 270.32 501.61 269.18 501.71 269.08" />
					<path id="Fill 90" class="shp10" d="M504.83 164.37L510.61 193.02L515.31 233.01C515.31 233.01 534.69 230.3 542.94 227.69C552.52 224.66 573.36 222.07 573.36 222.07L569.85 225.55C577.31 223.46 582.05 216.35 582.05 216.35C569.2 204.43 558.24 179.9 558.24 179.9L548.47 131.38C548.47 131.38 546.98 124.54 546.09 121.49C545.19 118.45 530.35 108.63 528.29 107.39L527 106.78L526.59 102.89L525.06 101.97L509 116.56C505.88 119.4 503.89 123.27 503.41 127.47C502.91 131.89 502.46 138.23 502.71 145.72C502.9 151.4 504.83 164.37 504.83 164.37" />
					<path id="Fill 92" class="shp10" d="M515.86 114.74C515.86 114.74 507.37 119.29 505.9 123.15C504.43 127.01 508.81 169.33 508.81 169.33L478.34 169.9L478.24 188.06C478.24 188.06 526.64 191.88 528.52 189.27C531.07 185.73 534.03 152.66 534.03 152.66L535.13 128.86C535.13 128.86 532.32 110.72 515.86 114.74" />
					<path id="Fill 94" class="shp11" d="M510.61 193.02C514.71 194.35 518.51 194.56 522.8 194.16C527.1 193.77 531.46 191.42 533.09 187.42C534.33 184.37 533.81 180.92 534 177.63C534.16 174.76 534.87 171.96 535.3 169.13C535.73 166.3 534.27 161.09 533.33 158.38C533.33 158.38 532.24 178.02 529.17 186.27C528.75 187.39 528.22 188.53 527.29 189.28C526.2 190.16 524.69 190.23 523.3 190.38C519.42 190.79 510.04 190.11 510.04 190.11" />
					<path id="Fill 96" class="shp11" d="M535.07 131.43C535.08 131.43 535.08 131.58 535.08 131.87C535.06 132.17 535.05 132.59 535.03 133.13C534.97 134.27 534.89 135.9 534.79 137.99C534.68 140.11 534.55 142.69 534.39 145.68C534.21 148.68 534.11 152.1 533.74 155.86C533.41 159.62 533.02 163.74 532.55 168.16C532.05 172.58 531.53 177.3 530.69 182.23C530.45 183.47 530.26 184.71 529.85 185.96C529.44 187.2 528.71 188.39 527.66 189.26C526.62 190.1 525.25 190.71 523.87 190.61C522.52 190.64 521.18 190.61 519.81 190.59C514.38 190.45 508.75 190.18 503 189.86C494.35 189.39 486.02 188.85 478.23 188.3L478 188.28L478 188.06C478.04 181.61 478.08 175.54 478.11 169.93L478.11 169.72L478.32 169.72C490.49 169.46 500.62 169.24 507.73 169.09C511.26 169.03 514.04 168.98 515.96 168.94C516.89 168.94 517.61 168.93 518.12 168.92C518.61 168.92 518.87 168.94 518.87 168.94C518.87 168.94 518.62 168.97 518.13 168.99C517.61 169.01 516.89 169.04 515.96 169.08C514.04 169.14 511.26 169.23 507.74 169.34C500.62 169.53 490.5 169.81 478.33 170.15L478.54 169.94C478.52 175.54 478.5 181.61 478.48 188.06L478.26 187.82C486.05 188.35 494.38 188.88 503.03 189.36C508.78 189.67 514.4 189.96 519.83 190.1C521.18 190.12 522.53 190.15 523.85 190.12C525.15 190.22 526.38 189.67 527.35 188.89C528.32 188.09 529.01 186.99 529.41 185.81C529.8 184.63 530 183.37 530.24 182.15C531.08 177.24 531.62 172.52 532.13 168.11C532.62 163.7 533.04 159.59 533.39 155.82C533.78 152.07 533.9 148.65 534.11 145.66C534.3 142.67 534.46 140.1 534.6 137.98C534.74 135.89 534.85 134.26 534.93 133.13C534.97 132.59 535 132.17 535.02 131.86C535.05 131.58 535.07 131.43 535.07 131.43" />
					<path id="Fill 98" class="shp11" d="M484.22 187.79C484.08 187.79 483.99 183.85 484.02 178.99C484.04 174.13 484.18 170.19 484.32 170.19C484.45 170.19 484.55 174.13 484.52 178.99C484.5 183.85 484.36 187.79 484.22 187.79" />
					<path id="Fill 100" class="shp4" d="M480.99 172.95C480.93 172.91 481.24 172.57 481.82 172.77C482.08 172.85 482.41 173.15 482.44 173.57C482.47 173.97 482.27 174.44 481.82 174.66C481.36 174.86 480.88 174.71 480.59 174.43C480.28 174.15 480.23 173.74 480.29 173.47C480.43 172.9 480.83 172.78 480.84 172.84C480.89 172.89 480.65 173.1 480.65 173.52C480.64 173.72 480.71 173.94 480.9 174.09C481.08 174.24 481.38 174.31 481.61 174.2C481.83 174.1 481.98 173.83 481.97 173.6C481.98 173.37 481.84 173.19 481.67 173.09C481.32 172.88 481.02 173.01 480.99 172.95" />
					<path id="Fill 102" class="shp10" d="M548.6 135.54C548.6 135.54 564.45 156.27 566.38 161.91C568.31 167.56 566.82 175.67 563.59 179.55C560.36 183.43 557.76 181.85 557.76 181.85L548.6 135.54Z" />
					<path id="Fill 104" class="shp4" d="M557.19 180.19C557.22 180.32 555.44 180.74 553.22 181.12C551 181.5 549.19 181.7 549.16 181.56C549.14 181.43 550.92 181.01 553.14 180.63C555.35 180.25 557.17 180.05 557.19 180.19" />
					<path id="Fill 106" class="shp4" d="M560.24 195.47C560.27 195.46 560.43 195.85 560.67 196.56C560.91 197.27 561.28 198.3 561.75 199.56C562.68 202.09 564.12 205.52 566 209.17C567.89 212.82 569.85 215.98 571.33 218.23C572.07 219.36 572.68 220.26 573.11 220.88C573.53 221.5 573.75 221.86 573.73 221.88C573.7 221.9 573.42 221.59 572.95 221C572.47 220.41 571.82 219.53 571.04 218.43C569.47 216.23 567.46 213.07 565.56 209.4C563.66 205.73 562.27 202.25 561.41 199.68C560.98 198.4 560.67 197.35 560.48 196.62C560.3 195.88 560.21 195.48 560.24 195.47" />
					<path id="Fill 108" class="shp11" d="M561.32 197.92C563.83 202.4 566.41 206.96 570.24 210.39C571.59 211.59 573.1 212.67 574.13 214.16C575.16 215.65 575.61 217.73 574.63 219.26C574.28 219.8 573.67 220.26 573.05 220.11C572.61 220.01 572.29 219.63 572.01 219.27C567.24 213.13 563.65 206.08 561.49 198.61" />
					<path id="Fill 110" class="shp11" d="M559.23 181.77C561.4 180.21 562.16 177.25 561.83 174.59C561.51 171.94 560.3 169.49 559.2 167.06C555.8 159.5 553.5 152.67 551.48 144.41L549.93 138.66L557.77 179.68L559.23 181.77Z" />
					<path id="Fill 112" class="shp11" d="M519.98 112.9C519.9 112.78 521.32 111.57 522.94 109.95C524.56 108.33 525.77 106.9 525.89 106.99C526 107.07 524.95 108.65 523.29 110.3C521.65 111.95 520.06 113.01 519.98 112.9" />
					<path id="Fill 114" class="shp11" d="M518.38 116.41C518.41 116.49 517.47 116.78 516.07 117.47C514.66 118.16 512.83 119.33 511.15 121.03C509.47 122.72 508.32 124.58 507.65 125.99C506.97 127.4 506.7 128.34 506.62 128.32C506.58 128.31 506.62 128.06 506.73 127.63C506.82 127.19 507.02 126.58 507.33 125.84C507.93 124.36 509.07 122.42 510.79 120.67C512.52 118.93 514.45 117.77 515.92 117.15C516.65 116.84 517.26 116.63 517.7 116.53C518.13 116.42 518.37 116.38 518.38 116.41" />
					<path id="Fill 116" class="shp4" d="M560.95 185.89C560.94 185.9 560.85 185.76 560.7 185.5C560.53 185.18 560.32 184.79 560.07 184.31C559.5 183.2 558.73 181.69 557.79 179.84L557.78 179.83L557.77 179.8C556.78 175.26 555.38 168.64 553.86 161.27C552.45 154.33 551.18 148.04 550.24 143.41C549.81 141.17 549.45 139.34 549.2 137.98C549.09 137.39 549.01 136.9 548.94 136.5C548.88 136.16 548.86 135.98 548.88 135.98C548.9 135.98 548.95 136.15 549.04 136.48C549.13 136.87 549.25 137.36 549.39 137.94C549.68 139.29 550.09 141.11 550.58 143.34C551.56 147.96 552.88 154.24 554.35 161.17C555.87 168.54 557.21 175.17 558.11 179.73L558.09 179.69C558.98 181.57 559.7 183.1 560.24 184.23C560.46 184.72 560.64 185.12 560.79 185.45C560.91 185.74 560.97 185.89 560.95 185.89" />
					<path id="Fill 118" class="shp11" d="M508.28 169.32C508.25 169.32 508.17 168.78 508.05 167.81C507.93 166.75 507.78 165.37 507.6 163.7C507.25 160.23 506.79 155.42 506.32 150.12C505.84 144.81 505.44 140 505.18 136.51C505.06 134.84 504.96 133.45 504.89 132.39C504.83 131.41 504.82 130.87 504.85 130.87C504.89 130.87 504.97 131.4 505.08 132.37C505.2 133.43 505.35 134.82 505.53 136.49C505.89 139.96 506.34 144.76 506.82 150.07C507.29 155.38 507.69 160.19 507.95 163.67C508.07 165.34 508.17 166.73 508.24 167.8C508.3 168.77 508.32 169.31 508.28 169.32" />
					<path id="Fill 120" class="shp5" d="M478.72 172.03C478.72 172.03 472.15 167.04 470.55 166.74C469.32 166.51 461.98 166.64 458.61 166.71C457.32 166.73 456.18 167.75 456.19 169.05C456.19 169.13 456.2 169.21 456.21 169.29C456.48 170.66 457.82 170.95 457.82 170.95C457.82 170.95 456.07 171.45 456.04 173.36C456.01 175.26 458.32 175.66 458.32 175.66C458.32 175.66 458.18 175.77 457.99 175.96C456.73 177.21 457.37 179.37 459.1 179.77L460.14 180.01C460.14 180.01 458.74 180.59 458.76 181.9C458.8 184.4 464.43 184.88 464.43 184.88C464.43 184.88 478.36 187.09 478.66 186.99C478.96 186.89 478.72 172.03 478.72 172.03" />
					<path id="Fill 122" class="shp5" d="M459.91 163.74C459.97 164.57 460.16 166.33 461.57 167.12L469.33 166.82C469.33 166.82 463.55 164.82 462.73 163.84C462.44 163.49 462.04 163.06 461.62 162.75C460.88 162.21 459.84 162.83 459.91 163.74" />
					<path id="Fill 124" class="shp6" d="M465.68 166.74C465.68 166.88 464.1 167.03 462.13 166.99C460.18 166.96 458.6 166.88 458.6 166.74C458.59 166.61 460.18 166.45 462.14 166.49C464.09 166.53 465.68 166.6 465.68 166.74" />
					<path id="Fill 126" class="shp6" d="M463.93 171.08C463.95 171.21 462.58 171.45 460.87 171.39C459.17 171.33 457.82 170.99 457.84 170.86C457.87 170.72 459.22 170.83 460.89 170.89C462.56 170.95 463.92 170.93 463.93 171.08" />
					<path id="Fill 128" class="shp6" d="M467.88 170.52C468 170.59 467.85 171.02 467.41 171.3C466.97 171.58 466.53 171.55 466.51 171.41C466.49 171.27 466.8 171.1 467.14 170.88C467.48 170.66 467.77 170.44 467.88 170.52" />
					<path id="Fill 130" class="shp6" d="M464.79 175.99C464.78 176.13 463.28 176.2 461.44 176.14C459.61 176.08 458.12 175.91 458.12 175.77C458.11 175.64 459.61 175.57 461.46 175.63C463.31 175.69 464.8 175.86 464.79 175.99" />
					<path id="Fill 132" class="shp6" d="M469.23 173.92C469.29 173.9 469.41 174.06 469.45 174.36C469.48 174.66 469.41 175.11 469.11 175.5C468.81 175.88 468.39 176.06 468.09 176.09C467.78 176.13 467.6 176.05 467.6 175.98C467.6 175.84 468.27 175.76 468.72 175.19C469.17 174.62 469.09 173.95 469.23 173.92" />
					<path id="Fill 134" class="shp6" d="M465.96 180.81C465.94 180.95 464.59 180.89 462.94 180.69C461.29 180.49 459.97 180.21 459.99 180.07C460 179.93 461.35 179.99 463 180.19C464.65 180.4 465.98 180.67 465.96 180.81" />
					<path id="Fill 136" class="shp6" d="M470.29 178.36C470.36 178.35 470.45 178.52 470.44 178.82C470.44 179.12 470.3 179.53 470.03 179.88C469.46 180.57 468.82 180.82 468.75 180.72C468.65 180.6 469.16 180.15 469.63 179.57C470.11 178.99 470.16 178.38 470.29 178.36" />
					<path id="Fill 138" class="shp2" d="M567.21 225.97C569.96 225.72 572.54 224.1 573.94 221.73C574.1 221.46 574.24 221.09 574.03 220.86C573.89 220.7 573.66 220.69 573.45 220.68C571.28 220.66 569.11 221.04 567.07 221.78C566.84 221.86 566.58 221.97 566.49 222.21C566.43 222.37 566.48 222.56 566.52 222.73C566.79 223.78 567.07 224.83 567.34 225.89" />
					<path id="Fill 140" class="shp11" d="M567.21 225.97C569.96 225.72 572.54 224.1 573.94 221.73C574.1 221.46 574.24 221.09 574.03 220.86C573.89 220.7 573.66 220.69 573.45 220.68C571.28 220.66 569.11 221.04 567.07 221.78C566.84 221.86 566.58 221.97 566.49 222.21C566.43 222.37 566.48 222.56 566.52 222.73C566.79 223.78 567.07 224.83 567.34 225.89" />
					<path id="Fill 142" class="shp7" d="M501.66 116.14C501.66 116.14 498.47 126.87 499.35 126.26C500.23 125.65 502.14 123.96 502.14 123.96L501.66 116.14Z" />
					<path id="Fill 144" class="shp4" d="M501.85 121.09L500.1 125.27C499.93 125.7 499.82 126.15 499.76 126.62C499.62 127.79 499.45 129.93 500.15 130.08C501.11 130.28 502.02 129.31 502.02 129.31L501.85 121.09Z" />
					<path id="Fill 146" class="shp11" d="M556.05 121.75C556.05 121.75 538.95 115.08 529.49 120.97C520.02 126.86 518.3 136.26 512.66 136.26C501.66 136.26 502.02 128.5 502.02 128.5L499.68 129.21C499.63 130.79 497.13 142.19 508.72 143.6C520.3 145.02 525.17 129.22 535.59 129.21C546.02 129.19 553.93 134.84 553.93 134.84L561.42 130.11L556.05 121.75Z" />
					<path id="Fill 148" class="shp12" d="M512.18 143.42C512.18 143.42 516.44 141.23 518.78 135.85C521.43 129.72 527.13 122.73 531.89 120.97C536.65 119.21 547.67 117.98 555.28 122.94L560.15 129.52L553.82 133.63C553.82 133.63 548.82 130.88 542.68 129.16C534.81 126.97 530.04 129.45 525.46 133.77C525.18 134.04 524.92 134.31 524.69 134.57C523.54 135.88 520.35 138.91 517.46 140.97C515.22 142.57 513.2 143.43 512.18 143.42" />
				</g>
				<g id="Group 159">
					<path id="Fill 151" class="shp10" d="M158.19 50.33C148.05 51.9 140.61 43.38 138.24 35.8C136.06 28.8 135.02 21.51 131.94 14.85C127.64 5.55 116.26 1.25 106.05 2.11C95.84 2.97 85.54 8.09 76.51 12.92L79 68.94C79 68.94 98.68 47.98 108.14 47.6C123.91 46.97 123.05 72.9 138.37 76.73C138.37 76.73 159.85 82.55 174.37 63.8C183.59 51.89 184.4 37.43 184.4 37.43C184.4 37.43 177.35 47.38 158.19 50.33" />
					<path id="Fill 153" class="shp11" d="M76.09 3.63C76.23 3.62 78.99 63.11 82.26 136.47C85.52 209.87 88.06 269.35 87.92 269.35C87.78 269.36 85.02 209.89 81.76 136.5C78.49 63.13 75.96 3.64 76.09 3.63" />
					<path id="Fill 155" class="shp11" d="M130.25 31.92C131.65 37.16 134.79 44.16 137.71 48.73C140.63 53.31 145.06 57.16 150.37 58.26C151.33 58.47 152.33 58.58 153.22 59C154.1 59.43 154.88 60.25 154.91 61.23C154.95 62.7 153.43 63.66 152.12 64.31C150.24 65.23 148.34 66.16 146.29 66.55C144.23 66.93 142.63 67.14 141.22 65.6C140.03 64.31 138.45 62.74 137.55 61.21C132.92 53.32 130.63 42.04 130.25 33.12" />
					<path id="Fill 157" class="shp4" d="M143.97 67.89C143.96 67.91 143.8 67.82 143.51 67.63C143.22 67.45 142.81 67.15 142.3 66.74C141.29 65.92 139.91 64.59 138.56 62.68C137.19 60.78 135.89 58.29 134.82 55.4C133.74 52.5 132.85 49.23 132.04 45.77C130.43 38.85 129.72 32.43 129.46 27.78C129.33 25.46 129.31 23.58 129.31 22.28C129.32 21.67 129.33 21.18 129.34 20.78C129.36 20.44 129.37 20.26 129.39 20.26C129.41 20.26 129.42 20.44 129.44 20.78C129.46 21.18 129.48 21.67 129.5 22.27C129.56 23.57 129.64 25.45 129.81 27.76C130.16 32.38 130.93 38.76 132.53 45.66C133.34 49.1 134.2 52.36 135.25 55.24C136.29 58.11 137.54 60.58 138.85 62.48C140.15 64.39 141.47 65.73 142.43 66.59C143.4 67.45 143.99 67.86 143.97 67.89" />
				</g>
				<path id="Fill 160" class="shp0" d="M14.95 281.18L148.92 303.11L148.92 281.18L14.95 281.18Z" />
				<path id="Fill 161" class="shp0" d="M171.04 330.73L305.01 352.66L305.01 330.73L171.04 330.73Z" />
				<path id="Fill 162" class="shp0" d="M326.05 378.12L460.02 400.05L460.02 378.12L326.05 378.12Z" />
				<path id="Fill 163" class="shp0" d="M480.86 415.84L614.83 437.77L614.83 415.84L480.86 415.84Z" />
				<path id="Fill 164" class="shp10" d="M14.95 281.18L148.92 281.18L148.92 264.75L14.95 264.75L14.95 281.18Z" />
				<path id="Fill 165" class="shp8" d="M107.12 281.18L148.92 281.18L148.92 264.75L107.12 264.75L107.12 281.18Z" />
				<path id="Fill 167" class="shp10" d="M171.04 330.73L305.01 330.73L305.01 314.3L171.04 314.3L171.04 330.73Z" />
				<path id="Fill 168" class="shp8" d="M263.2 330.73L305.01 330.73L305.01 314.3L263.2 314.3L263.2 330.73Z" />
				<path id="Fill 170" class="shp10" d="M326.05 378.12L460.02 378.12L460.02 361.69L326.05 361.69L326.05 378.12Z" />
				<path id="Fill 171" class="shp8" d="M418.22 378.12L460.02 378.12L460.02 361.69L418.22 361.69L418.22 378.12Z" />
				<path id="Fill 173" class="shp10" d="M481.06 415.84L615.03 415.84L615.03 399.41L481.06 399.41L481.06 415.84Z" />
				<g id="Group 178">
					<path id="Fill 174" class="shp8" d="M573.23 415.84L615.03 415.84L615.03 399.41L573.23 399.41L573.23 415.84Z" />
					<path id="Fill 176" class="shp7" d="M532.47 339.62C532.47 341.63 534.1 343.26 536.11 343.26C538.13 343.26 539.76 341.63 539.76 339.62C539.76 337.6 538.13 335.97 536.11 335.97C534.1 335.97 532.47 337.6 532.47 339.62" />
				</g>
			</g>
		</g>
	</g>
</svg>