<svg version="1.2" baseProfile="tiny-ps" xmlns="http://www.w3.org/2000/svg" viewBox="0 0 151 52" width="151" height="52">
	<title>SSA-web_design-v06</title>
	<defs>
		<clipPath clipPathUnits="userSpaceOnUse" id="cp1">
			<path d="M1 51.87L150.92 51.87L150.92 0L1 0L1 51.87Z" />
		</clipPath>
	</defs>
	<style>
		tspan { white-space:pre }
		.shp0 { fill: #dc2b1c } 
		.shp1 { fill: #151616 } 
		.shp2 { fill: transparent } 
	</style>
	<g id="SSA-web_design-v06">
		<g id="Group 33">
			<g id="Group 32">
				<g id="Group 30">
					<g id="Group 24">
						<g id="Group 22">
							<g id="Group 49">
								<path id="Fill 1" fill-rule="evenodd" class="shp0" d="M130.22 6.72L134.12 0L142.51 14.51L142.51 14.54C143.94 17 144.15 19.83 143.35 22.35L147.03 22.35L150.92 29.07L134.12 29.07C131.27 29.07 128.69 27.85 126.92 25.89L125.08 29.07L117.31 29.07L125.7 14.56L125.71 14.54C127.14 12.07 129.49 10.46 132.06 9.9L130.22 6.72ZM134.12 13.45L128.97 22.35L139.25 22.35L134.12 13.45Z" />
								<path id="Fill 3" fill-rule="evenodd" class="shp0" d="M21.57 22.8C21.57 25.03 21.24 26.86 19.65 26.86C18.08 26.86 17.73 25.03 17.73 22.8C17.73 20.59 18.04 18.65 19.65 18.65C21.24 18.65 21.57 20.59 21.57 22.8ZM19.62 16.41C16.05 16.41 14.14 19.13 14.14 22.85C14.14 26.56 16.05 29.3 19.65 29.3C23.25 29.3 25.14 26.56 25.14 22.85C25.14 19.13 23.25 16.41 19.62 16.41Z" />
								<path id="Fill 5" fill-rule="evenodd" class="shp0" d="M33.48 22.8C33.48 25.03 33.15 26.86 31.56 26.86C29.99 26.86 29.64 25.03 29.64 22.8C29.64 20.59 29.96 18.65 31.56 18.65C33.15 18.65 33.48 20.59 33.48 22.8ZM31.52 16.41C27.95 16.41 26.06 19.13 26.06 22.85C26.06 26.56 27.95 29.3 31.56 29.3C35.16 29.3 37.05 26.56 37.05 22.85C37.05 19.13 35.16 16.41 31.52 16.41Z" />
								<path id="Fill 7" fill-rule="evenodd" class="shp0" d="M45.73 22.82C45.73 25.61 44.88 27.11 42.96 27.11C42.57 27.11 42.25 27.04 42.01 26.95L42.01 18.72C42.31 18.6 42.64 18.53 43.11 18.53C45.04 18.53 45.73 20.03 45.73 22.82ZM43.17 16.41C40.95 16.41 39.47 16.8 38.4 17.33L38.4 34.03L42.01 34.03L42.01 29.03C42.38 29.14 43.06 29.23 43.82 29.23C47.05 29.23 49.29 26.76 49.29 22.77C49.29 18.6 46.88 16.41 43.17 16.41Z" />
								<path id="Fill 9" fill-rule="evenodd" class="shp0" d="M57.74 21.69L53.4 22.38C53.29 19.8 54.22 18.53 55.68 18.53C57.03 18.53 57.74 19.5 57.74 21.69ZM55.83 16.41C52.24 16.41 50.21 18.92 50.21 22.82C50.21 26.79 52.4 29.3 56.21 29.3C58.32 29.3 59.7 28.91 60.7 28.4L59.87 26.16C59.2 26.52 58.09 26.83 56.63 26.83C54.81 26.83 53.88 25.93 53.63 24.11L61.09 23.05C61.09 22.89 61.1 22.7 61.1 22.55C61.1 18.81 59.41 16.41 55.83 16.41Z" />
								<path id="Fill 11" class="shp0" d="M69.15 16.45C65.8 16.3 63.87 16.66 62.48 17.33L62.48 29.08L66.08 29.08L66.08 18.92C66.68 18.65 67.6 18.62 68.48 18.99L69.15 16.45" />
								<path id="Fill 13" fill-rule="evenodd" class="shp0" d="M76.21 27.07C75.89 27.23 75.42 27.32 74.89 27.32C73.46 27.32 72.64 26.7 72.64 25.24C72.64 23.26 74.03 22.75 76.21 22.55L76.21 27.07ZM79.58 20.95C79.58 17.59 77.5 16.41 74.69 16.41C72.5 16.41 70.88 16.98 70 17.35L70.79 19.41C71.6 19.04 72.82 18.65 74.02 18.65C75.34 18.65 76.21 19.01 76.21 20.31L76.21 20.88C72.47 21.23 69.26 22.18 69.26 25.38C69.26 27.96 71.11 29.3 74.71 29.3C76.86 29.3 78.55 28.93 79.58 28.38L79.58 20.95Z" />
								<path id="Fill 15" class="shp0" d="M87.65 28.91L87.65 26.7C87.34 26.79 87.19 26.83 86.88 26.83C86.06 26.83 85.73 26.32 85.73 25.38L85.73 18.97L87.65 18.97L87.65 16.64L85.73 16.64L85.73 13.07L82.13 13.99L82.13 16.64L80.76 16.64L80.76 18.97L82.13 18.97L82.13 25.66C82.13 27.57 83.26 29.26 85.86 29.26C86.7 29.26 87.34 29.05 87.65 28.91" />
								<path id="Fill 17" fill-rule="evenodd" class="shp0" d="M90.73 11.38C89.67 11.38 88.82 12.14 88.82 13.07C88.82 14.01 89.67 14.75 90.73 14.75C91.79 14.75 92.65 14.01 92.65 13.07C92.65 12.14 91.79 11.38 90.73 11.38ZM88.94 29.08L92.54 29.08L92.54 16.64L88.94 16.64L88.94 29.08Z" />
								<path id="Fill 19" class="shp0" d="M104.79 16.64L101.43 16.64L99.6 23.79C99.35 24.79 99.28 25.68 99.28 25.68L99.23 25.68C99.23 25.68 99.19 24.76 98.96 23.79L97.18 16.64L93.37 16.64L97.35 29.08L100.84 29.08L104.79 16.64" />
								<path id="Fill 21" fill-rule="evenodd" class="shp0" d="M111.9 27.07C111.59 27.23 111.12 27.32 110.6 27.32C109.16 27.32 108.32 26.7 108.32 25.24C108.32 23.26 109.74 22.75 111.9 22.55L111.9 27.07ZM115.29 20.95C115.29 17.59 113.19 16.41 110.39 16.41C108.19 16.41 106.58 16.98 105.7 17.35L106.48 19.41C107.29 19.04 108.51 18.65 109.72 18.65C111.03 18.65 111.9 19.01 111.9 20.31L111.9 20.88C108.16 21.23 104.96 22.18 104.96 25.38C104.96 27.96 106.81 29.3 110.41 29.3C112.55 29.3 114.24 28.93 115.29 28.38L115.29 20.95Z" />
								<path id="Fill 23" class="shp0" d="M14.47 29.07L9.16 21.16L14.11 14.48L9.89 14.48L5.32 21.16L5.26 21.16L5.26 14.47L1 14.47L1 29.07L5.26 29.07L5.26 21.44L5.32 21.44L9.85 29.07L14.47 29.07Z" />
								<path id="Fill 25" class="shp0" d="M1.01 38.25L150.82 38.25L150.82 35.97L1.01 35.97L1.01 38.25Z" />
								<path id="Fill 27" class="shp1" d="M4.78 51.79L3.79 51.79L1.04 43.78L2.35 43.78L4.28 49.61L6.21 43.78L7.55 43.78L4.78 51.79Z" />
								<path id="Clip 30" class="shp2" d="M1 51.87L150.92 51.87L150.92 0L1 0L1 51.87Z" />
								<g id="Mask by Clip 30" clip-path="url(#cp1)">
									<path id="Fill 29" class="shp1" d="M8.74 51.79L10.01 51.79L10.01 43.78L8.74 43.78L8.74 51.79Z" />
									<path id="Fill 31" class="shp1" d="M12.23 51.79L12.23 43.78L17.58 43.78L17.58 44.87L13.5 44.87L13.5 47.21L16.98 47.21L16.98 48.29L13.5 48.29L13.5 50.7L17.58 50.7L17.58 51.79L12.23 51.79Z" />
									<path id="Fill 32" class="shp1" d="M24.5 51.79L20.63 46.15L20.63 51.79L19.36 51.79L19.36 43.78L20.52 43.78L24.39 49.41L24.39 43.78L25.66 43.78L25.66 51.79L24.5 51.79Z" />
									<path id="Fill 33" class="shp1" d="M33.02 51.79L29.15 46.15L29.15 51.79L27.88 51.79L27.88 43.78L29.05 43.78L32.92 49.41L32.92 43.78L34.19 43.78L34.19 51.79L33.02 51.79Z" />
									<path id="Fill 34" fill-rule="evenodd" class="shp1" d="M40.29 49.15L37.72 49.15L39.02 45.59L40.29 49.15ZM42.57 51.79L39.5 43.78L38.48 43.78L35.41 51.79L36.76 51.79L37.34 50.18L40.64 50.18L41.22 51.79L42.57 51.79Z" />
									<path id="Fill 35" class="shp1" d="M46.65 51.79L47.92 51.79L47.92 43.78L46.65 43.78L46.65 51.79Z" />
									<path id="Fill 36" class="shp1" d="M55.28 51.79L51.42 46.15L51.42 51.79L50.15 51.79L50.15 43.78L51.31 43.78L55.18 49.41L55.18 43.78L56.45 43.78L56.45 51.79L55.28 51.79Z" />
									<path id="Fill 37" class="shp1" d="M60.89 51.87C59.63 51.87 58.73 51.58 57.93 50.8L58.78 50C59.39 50.59 60.06 50.77 60.92 50.77C62.01 50.77 62.64 50.32 62.64 49.54C62.64 49.19 62.54 48.9 62.32 48.71C62.1 48.52 61.89 48.44 61.4 48.37L60.41 48.24C59.73 48.15 59.19 47.92 58.82 47.59C58.41 47.22 58.21 46.72 58.21 46.07C58.21 44.67 59.27 43.71 61.01 43.71C62.12 43.71 62.89 43.98 63.61 44.62L62.8 45.39C62.28 44.92 61.68 44.77 60.98 44.77C59.99 44.77 59.45 45.31 59.45 46.02C59.45 46.31 59.54 46.57 59.76 46.76C59.97 46.94 60.32 47.08 60.71 47.13L61.66 47.27C62.44 47.38 62.87 47.56 63.22 47.86C63.68 48.25 63.9 48.82 63.9 49.51C63.9 50.98 62.64 51.87 60.89 51.87" />
									<path id="Fill 38" class="shp1" d="M68.51 51.87C66.81 51.87 65.52 50.75 65.52 49.09L65.52 43.78L66.79 43.78L66.79 49.04C66.79 50.11 67.47 50.77 68.51 50.77C69.56 50.77 70.25 50.11 70.25 49.04L70.25 43.78L71.52 43.78L71.52 49.09C71.52 50.75 70.22 51.87 68.51 51.87" />
									<path id="Fill 39" fill-rule="evenodd" class="shp1" d="M76.77 44.87C77.61 44.87 78.19 45.34 78.19 46.13C78.19 46.92 77.61 47.38 76.77 47.38L74.89 47.38L74.89 44.87L76.77 44.87ZM79.72 51.79L77.79 48.25C78.73 48 79.46 47.27 79.46 46.12C79.46 44.76 78.45 43.78 76.86 43.78L73.62 43.78L73.62 51.79L74.89 51.79L74.89 48.42L76.48 48.42L78.24 51.79L79.72 51.79Z" />
									<path id="Fill 40" fill-rule="evenodd" class="shp1" d="M85.23 49.15L82.66 49.15L83.97 45.59L85.23 49.15ZM87.52 51.79L84.45 43.78L83.43 43.78L80.35 51.79L81.71 51.79L82.28 50.18L85.59 50.18L86.17 51.79L87.52 51.79Z" />
									<path id="Fill 41" class="shp1" d="M93.88 51.79L90.01 46.15L90.01 51.79L88.74 51.79L88.74 43.78L89.9 43.78L93.77 49.41L93.77 43.78L95.04 43.78L95.04 51.79L93.88 51.79Z" />
									<path id="Fill 42" class="shp1" d="M99.97 51.87C99.1 51.87 98.35 51.56 97.77 51.01C96.95 50.22 96.96 49.33 96.96 47.79C96.96 46.24 96.95 45.35 97.77 44.56C98.35 44.02 99.1 43.71 99.97 43.71C101.02 43.71 101.69 44.07 102.31 44.66L101.46 45.48C101.03 45.06 100.67 44.8 99.97 44.8C99.48 44.8 99.03 44.98 98.73 45.29C98.33 45.72 98.24 46.18 98.24 47.79C98.24 49.4 98.33 49.86 98.73 50.29C99.03 50.59 99.48 50.77 99.97 50.77C100.67 50.77 101.03 50.51 101.46 50.1L102.31 50.92C101.69 51.5 101.02 51.87 99.97 51.87" />
									<path id="Fill 43" class="shp1" d="M104.05 51.79L104.05 43.78L109.4 43.78L109.4 44.87L105.32 44.87L105.32 47.21L108.8 47.21L108.8 48.29L105.32 48.29L105.32 50.7L109.4 50.7L109.4 51.79L104.05 51.79Z" />
									<path id="Fill 44" class="shp1" d="M119.02 50.94C118.43 51.53 117.66 51.87 116.74 51.87C115.87 51.87 115.12 51.56 114.54 51.01C113.72 50.22 113.73 49.33 113.73 47.79C113.73 46.24 113.72 45.35 114.54 44.56C115.12 44.02 115.85 43.71 116.74 43.71C117.88 43.71 118.52 44.05 119.27 44.77L118.41 45.59C117.88 45.08 117.49 44.8 116.74 44.8C116.25 44.8 115.79 45 115.49 45.3C115.08 45.73 115 46.18 115 47.79C115 49.4 115.08 49.86 115.49 50.29C115.79 50.59 116.25 50.77 116.74 50.77C117.29 50.77 117.75 50.57 118.08 50.21C118.39 49.88 118.49 49.43 118.49 48.93L118.49 48.5L116.74 48.5L116.74 47.46L119.76 47.46L119.76 48.66C119.76 49.7 119.57 50.37 119.02 50.94" />
									<path id="Fill 45" fill-rule="evenodd" class="shp1" d="M124.76 44.87C125.61 44.87 126.18 45.34 126.18 46.13C126.18 46.92 125.61 47.38 124.76 47.38L122.88 47.38L122.88 44.87L124.76 44.87ZM127.71 51.79L125.78 48.25C126.73 48 127.45 47.27 127.45 46.12C127.45 44.76 126.44 43.78 124.85 43.78L121.61 43.78L121.61 51.79L122.88 51.79L122.88 48.42L124.47 48.42L126.23 51.79L127.71 51.79Z" />
									<path id="Fill 46" fill-rule="evenodd" class="shp1" d="M133.3 45.3C133.71 45.73 133.79 46.18 133.79 47.79C133.79 49.4 133.71 49.84 133.3 50.28C133 50.58 132.54 50.77 132.05 50.77C131.56 50.77 131.1 50.58 130.8 50.28C130.39 49.84 130.31 49.4 130.31 47.79C130.31 46.18 130.39 45.73 130.8 45.3C131.1 45 131.56 44.8 132.05 44.8C132.54 44.8 133 45 133.3 45.3ZM134.26 51.01C135.08 50.22 135.06 49.33 135.06 47.79C135.06 46.24 135.08 45.35 134.26 44.56C133.69 44.02 132.94 43.71 132.05 43.71C131.16 43.71 130.43 44.02 129.85 44.56C129.03 45.35 129.04 46.24 129.04 47.79C129.04 49.33 129.03 50.22 129.85 51.01C130.43 51.56 131.16 51.87 132.05 51.87C132.94 51.87 133.69 51.56 134.26 51.01Z" />
									<path id="Fill 47" class="shp1" d="M139.85 51.87C138.14 51.87 136.85 50.75 136.85 49.09L136.85 43.78L138.12 43.78L138.12 49.04C138.12 50.11 138.8 50.77 139.85 50.77C140.89 50.77 141.59 50.11 141.59 49.04L141.59 43.78L142.86 43.78L142.86 49.09C142.86 50.75 141.55 51.87 139.85 51.87" />
									<path id="Fill 48" fill-rule="evenodd" class="shp1" d="M148.06 44.87C148.94 44.87 149.54 45.37 149.54 46.21C149.54 47.06 148.94 47.54 148.06 47.54L146.22 47.54L146.22 44.87L148.06 44.87ZM148.13 48.64C149.76 48.64 150.81 47.61 150.81 46.21C150.81 44.82 149.76 43.78 148.13 43.78L144.95 43.78L144.95 51.79L146.22 51.79L146.22 48.64L148.13 48.64Z" />
								</g>
							</g>
						</g>
					</g>
				</g>
			</g>
		</g>
	</g>
</svg>