<svg version="1.2" baseProfile="tiny-ps" xmlns="http://www.w3.org/2000/svg" viewBox="0 0 125 52" width="125" height="52">
	<title>SSA-web_design-v06</title>
	<style>
		tspan { white-space:pre }
		.shp0 { fill: #003087;stroke: #ffffff;stroke-opacity:0;stroke-width: 0.5 } 
	</style>
	<g id="SSA-web_design-v06">
		<g id="Group 33">
			<g id="Group 32">
				<g id="Group 30">
					<g id="Group 24">
						<g id="Group 22">
							<g id="KPMG_logo">
								<path id="path5037" fill-rule="evenodd" class="shp0" d="M95.73 2.3L122.45 2.3L122.45 39.48L115.03 39.48L112.77 48.46L111.99 48.63L111.23 48.78L110.47 48.93L109.7 49.07L108.94 49.2L108.18 49.32L107.42 49.43L106.65 49.53L105.91 49.62L105.16 49.7L104.41 49.76L103.66 49.82L102.91 49.86L102.16 49.9L101.42 49.91L100.68 49.92L100.14 49.92L99.56 49.9L98.98 49.87L98.38 49.82L97.77 49.75L97.16 49.66L96.54 49.56L95.93 49.42L95.62 49.34L95.01 49.17L94.71 49.07L94.4 48.96L94.11 48.84L93.82 48.72L93.54 48.59L93.25 48.44L92.97 48.31L92.7 48.14L92.44 47.97L92.17 47.79L91.91 47.6L91.67 47.4L91.43 47.2L91.24 47.03L91.05 46.84L90.88 46.65L90.72 46.45L90.55 46.27L90.4 46.05L90.25 45.85L90.11 45.64L89.98 45.41L89.86 45.2L89.74 44.98L89.63 44.74L89.52 44.51L89.42 44.27L89.33 44.04L89.25 43.79L89.17 43.54L89.09 43.29L89.03 43.04L88.97 42.77L88.91 42.51L88.86 42.25L88.83 41.98L88.79 41.72L88.74 41.17L88.71 40.62L88.7 40.04L88.72 39.48L84.96 39.48L82.84 49.37L76.33 49.37L78.49 39.48L74.33 39.48L67.96 49.37L62.42 49.37L62.34 39.48L59.37 39.48L56.56 49.37L49.95 49.37L52.85 39.48L38.26 39.48L38.26 39.5L36.81 39.5L33.81 49.39L27.27 49.39L30.31 39.48L19.35 39.48L24.18 49.39L16.94 49.39L11.96 39.48L11.09 39.48L8.08 49.39L2.08 49.39L8.91 27L8.91 2.3L35.63 2.3L35.63 23.97L37.84 23.97L37.84 2.3L64.57 2.3L64.57 23.93L66.78 23.93L66.78 2.3L93.5 2.3L93.5 28.18L93.76 27.9L94.01 27.62L94.28 27.35L94.54 27.09L94.82 26.82L95.12 26.56L95.73 26.06L95.73 2.3L95.73 2.3ZM34.67 25.23L34.67 3.24L9.86 3.24L9.86 23.97L15.83 23.97L12.64 34.42L22.49 23.97L30.59 23.97L17.99 36.65L18.9 38.55L30.59 38.55L30.73 38.14L34.28 26.5L34.67 25.23L34.67 25.23ZM41.57 35.07L41.85 35.05L42.11 35.02L42.62 34.95L42.85 34.9L43.08 34.85L43.29 34.8L43.5 34.72L43.69 34.66L43.87 34.58L44.04 34.51L44.21 34.42L44.37 34.32L44.53 34.23L44.67 34.12L44.81 34.02L44.93 33.91L45.06 33.78L45.17 33.66L45.29 33.52L45.4 33.38L45.51 33.23L45.59 33.08L45.68 32.93L45.86 32.59L46.03 32.23L46.18 31.84L46.32 31.44L46.46 30.96L46.57 30.54L46.65 30.14L46.66 29.96L46.67 29.79L46.67 29.48L46.66 29.34L46.64 29.2L46.6 29.07L46.55 28.96L46.5 28.86L46.43 28.76L46.33 28.64L46.2 28.54L46.06 28.44L45.91 28.36L45.73 28.29L45.53 28.22L45.31 28.16L45.09 28.12L44.83 28.09L44.55 28.05L44.26 28.02L43.95 28.01L43.27 27.99L42.52 27.97L41.03 27.97L40.77 27.99L40.22 27.99L39.38 31.1L39.04 32.43L38.3 35.11L39.89 35.12L40.09 35.12L40.31 35.11L41.01 35.11L41.2 35.1L41.38 35.08L41.57 35.07L41.57 35.07ZM59.64 38.55L62.34 38.55L62.24 29.41L59.64 38.55ZM63.6 23.93L63.6 3.24L38.8 3.24L38.8 23.93L46 23.93L46.57 23.94L47.13 23.98L47.68 24.02L48.23 24.09L48.49 24.13L49 24.23L49.25 24.29L49.5 24.37L49.74 24.44L49.97 24.52L50.19 24.62L50.41 24.72L50.63 24.83L50.83 24.96L51.03 25.1L51.22 25.23L51.4 25.38L51.57 25.56L51.73 25.73L51.94 25.98L52.11 26.25L52.27 26.54L52.41 26.82L52.53 27.12L52.62 27.44L52.71 27.77L52.76 28.11L52.81 28.48L52.82 28.86L52.84 29.25L52.82 29.68L52.79 30.1L52.74 30.55L52.66 31.03L52.57 31.53L52.51 31.84L52.44 32.17L52.35 32.47L52.28 32.77L52.18 33.07L52.08 33.36L51.96 33.63L51.71 34.18L51.57 34.45L51.43 34.7L51.27 34.95L51.11 35.2L50.94 35.42L50.77 35.66L50.58 35.87L50.38 36.1L50.18 36.3L49.98 36.51L49.76 36.7L49.53 36.9L49.3 37.08L49.06 37.25L48.81 37.43L48.55 37.59L48.29 37.74L48.02 37.9L47.74 38.04L47.45 38.18L47.16 38.3L46.55 38.55L53.13 38.55L57.4 23.93L63.6 23.93L63.6 23.93ZM78.67 38.55L80.59 29.79L74.95 38.55L78.67 38.55ZM92.54 24.34L92.54 3.24L67.72 3.24L67.72 38.55L68.4 38.55L77.79 23.96L88.29 23.97L85.18 38.55L88.82 38.55L88.85 38.28L88.89 38.01L88.93 37.75L88.98 37.49L89.03 37.21L89.09 36.95L89.15 36.68L89.22 36.41L89.32 36.01L89.43 35.61L89.56 35.2L89.7 34.77L89.85 34.35L90.03 33.91L90.21 33.46L90.41 33.02L90.85 32.12L91.1 31.66L91.35 31.2L91.62 30.75L92.2 29.85L92.52 29.41L92.54 24.34L92.54 24.34ZM106.84 44.52L106.84 44.52L106.84 44.53L106.84 44.52ZM106.84 44.52L108.11 39.48L96.55 39.48L96.56 39.83L96.59 40.17L96.63 40.49L96.68 40.81L96.75 41.11L96.83 41.4L96.92 41.68L97.02 41.95L97.15 42.2L97.28 42.44L97.42 42.67L97.57 42.89L97.73 43.1L97.91 43.29L98.09 43.47L98.29 43.65L98.5 43.8L98.71 43.95L98.94 44.09L99.18 44.23L99.42 44.34L99.68 44.45L100.21 44.63L100.49 44.7L100.78 44.76L101.08 44.81L101.38 44.86L101.7 44.9L102.02 44.93L102.35 44.94L103.19 44.94L103.69 44.91L104.21 44.88L104.74 44.83L105.26 44.76L106.32 44.61L106.84 44.52ZM121.51 38.55L121.51 3.24L96.67 3.24L96.67 25.39L97.02 25.17L97.74 24.77L98.09 24.58L98.46 24.41L98.82 24.24L99.18 24.08L99.55 23.93L99.91 23.79L100.65 23.54L101.01 23.43L101.38 23.33L101.74 23.23L102.11 23.14L102.46 23.07L103.17 22.92L103.87 22.8L104.56 22.72L105.23 22.64L105.88 22.59L106.5 22.55L107.1 22.54L107.67 22.53L108.43 22.54L109.18 22.57L109.9 22.63L110.6 22.7L110.94 22.74L111.27 22.79L111.59 22.85L111.9 22.92L112.22 22.99L112.51 23.07L112.82 23.14L113.1 23.23L113.38 23.33L113.66 23.43L113.92 23.54L114.18 23.66L114.43 23.78L114.67 23.91L114.9 24.03L115.13 24.18L115.35 24.33L115.55 24.48L115.75 24.64L115.95 24.82L116.12 25L116.29 25.18L116.45 25.37L116.61 25.57L116.73 25.76L116.85 25.95L116.96 26.13L117.05 26.32L117.14 26.51L117.22 26.7L117.28 26.89L117.34 27.09L117.39 27.27L117.44 27.46L117.47 27.65L117.51 27.82L117.55 28.2L117.56 28.56L117.56 28.91L117.53 29.25L117.51 29.59L117.46 29.9L117.36 30.49L117.24 31L109.77 31L109.79 30.75L109.79 30.29L109.78 30.08L109.74 29.86L109.7 29.68L109.65 29.49L109.59 29.31L109.44 28.99L109.35 28.84L109.25 28.71L109.13 28.58L109.02 28.46L108.89 28.35L108.76 28.24L108.62 28.15L108.48 28.06L108.33 27.97L108.18 27.91L108.03 27.84L107.86 27.79L107.7 27.74L107.52 27.69L107.16 27.61L106.79 27.56L106.43 27.54L106.06 27.52L105.59 27.54L105.13 27.57L104.68 27.64L104.25 27.72L103.83 27.82L103.43 27.95L103.03 28.1L102.65 28.28L102.28 28.46L101.93 28.66L101.57 28.89L101.24 29.13L100.92 29.39L100.61 29.66L100.31 29.94L100.02 30.24L99.74 30.55L99.47 30.88L99.23 31.22L98.99 31.57L98.75 31.92L98.53 32.29L98.33 32.66L98.13 33.05L97.95 33.43L97.77 33.82L97.61 34.22L97.45 34.62L97.31 35.02L97.19 35.44L97.07 35.85L96.96 36.26L96.88 36.64L96.81 37.01L96.74 37.36L96.67 37.71L96.67 38.55L102.73 38.55L103.76 34.47L116.29 34.47L115.26 38.55L121.51 38.55L121.51 38.55Z" />
							</g>
						</g>
					</g>
				</g>
			</g>
		</g>
	</g>
</svg>