<svg version="1.2" baseProfile="tiny-ps" xmlns="http://www.w3.org/2000/svg" viewBox="0 0 92 70" width="92" height="70">
	<title>SSA-web_design-v06</title>
	<defs>
		<clipPath clipPathUnits="userSpaceOnUse" id="cp1">
			<path d="M0.02 44.43L51.18 44.43L51.18 69.98L0.02 69.98L0.02 44.43Z" />
		</clipPath>
	</defs>
	<style>
		tspan { white-space:pre }
		.shp0 { fill: #1a1919 } 
		.shp1 { fill: transparent } 
		.shp2 { fill: #e25f91 } 
		.shp3 { fill: #f1ae7e } 
		.shp4 { fill: #eb8c3a } 
		.shp5 { fill: #e46c2f } 
		.shp6 { fill: #f3b235 } 
		.shp7 { fill: #de4d2f } 
		.shp8 { fill: #e98430 } 
		.shp9 { fill: #dc402d } 
		.shp10 { fill: #e0592a } 
		.shp11 { fill: #da332a } 
		.shp12 { fill: #b3452b } 
		.shp13 { fill: #b12e2a } 
		.shp14 { fill: #b02e2a } 
	</style>
	<g id="SSA-web_design-v06">
		<g id="Group 33">
			<g id="Group 32">
				<g id="Group 30">
					<g id="Group 24">
						<g id="Group 22">
							<g id="PwC_fl_4cp (1)">
								<path id="Fill 1" class="shp0" d="M62.18 46.33C59.22 46.81 57.71 48.99 57.71 52.83C57.71 56.7 59.72 59.29 62.81 59.29C64.25 59.29 65.55 58.81 68.29 57.46L68.29 60.59C65 62.1 63.06 62.57 60.41 62.57C57.54 62.57 55.52 61.8 53.87 60.12C52.18 58.43 51.34 56.2 51.34 53.71C51.34 48.18 55.43 44.43 61.41 44.43C65.39 44.43 68.12 46.25 68.12 48.91C68.12 50.63 66.85 51.81 64.96 51.81C63.99 51.81 63.2 51.56 62.18 50.97L62.18 46.33" />
								<g id="Group 5">
									<path id="Clip 3" class="shp1" d="M0.02 44.43L51.18 44.43L51.18 69.98L0.02 69.98L0.02 44.43Z" />
									<g id="Mask by Clip 3" clip-path="url(#cp1)">
										<path id="Fill 2" class="shp0" d="M47.59 53.71C50.24 50.37 51.18 49.02 51.18 47.38C51.18 45.75 49.88 44.43 48.15 44.43C47.08 44.43 46.12 44.93 45.66 45.46L45.66 52.27L41.31 58.05L41.31 44.86L37.19 44.86L30.32 56.24L30.32 44.86L27.95 44.86L21.72 46.38L21.72 47.97L25.12 48.32L25.12 62.27L29.51 62.27L36.09 51.45L36.09 62.27L40.9 62.27L47.59 53.71" />
										<path id="Fill 4" fill-rule="evenodd" class="shp0" d="M8.61 67.75L11.46 68.38L11.46 70L0.28 70L0.28 68.38L2.83 67.75L2.83 48.23L0 48.23L0 46.55L6.83 44.47L8.61 44.47L8.61 46.81C11.81 44.9 12.91 44.56 14.55 44.56C18.34 44.56 21.14 48.06 21.14 52.9C21.14 58.51 17.41 62.27 11.52 62.27C10.86 62.27 9.75 62.23 8.61 62.1L8.61 67.75ZM9.58 60.15C13.11 60.15 15.01 57.94 15.01 53.71C15.01 50.13 13.46 48.23 10.59 48.23C10.12 48.23 9.62 48.28 8.61 48.41L8.61 60.12C9.08 60.15 9.28 60.15 9.58 60.15Z" />
									</g>
								</g>
								<path id="Fill 6" class="shp2" d="M87.49 30.22L91.83 30.22L91.83 21.66L87.49 21.66L87.49 30.22Z" />
								<path id="Fill 7" class="shp3" d="M75.48 8.82L78.84 8.82L78.84 3.62L75.48 3.62L75.48 8.82Z" />
								<path id="Fill 8" class="shp4" d="M58.43 3.62L75.48 3.62L75.48 0.28L58.43 0.28L58.43 3.62Z" />
								<path id="Fill 9" class="shp5" d="M58.43 21.66L58.43 3.62L75.48 3.62L75.48 8.82L58.43 8.82L58.43 21.66" />
								<path id="Fill 10" class="shp6" d="M78.84 21.66L87.49 21.66L87.49 8.82L78.84 8.82L78.84 21.66Z" />
								<path id="Fill 11" class="shp7" d="M78.84 30.22L87.49 30.22L87.49 21.66L78.84 21.66L78.84 30.22Z" />
								<path id="Fill 12" class="shp8" d="M75.48 21.66L78.84 21.66L78.84 8.82L75.48 8.82L75.48 21.66Z" />
								<path id="Fill 13" class="shp9" d="M75.48 30.22L78.84 30.22L78.84 21.66L75.48 21.66L75.48 30.22Z" />
								<path id="Fill 14" class="shp10" d="M75.48 21.66L69.09 21.66L69.09 17.38L58.43 17.38L58.43 21.66L58.43 8.82L75.48 8.82L75.48 21.66" />
								<path id="Fill 15" class="shp11" d="M69.09 30.22L75.48 30.22L75.48 21.66L69.09 21.66L69.09 30.22Z" />
								<path id="Fill 16" class="shp12" d="M58.43 21.66L69.09 21.66L69.09 17.38L58.43 17.38L58.43 21.66Z" />
								<path id="Fill 17" class="shp13" d="M58.43 30.22L69.09 30.22L69.09 21.66L58.43 21.66L58.43 30.22Z" />
								<path id="Fill 18" class="shp14" d="M41.32 34.49L58.43 34.49L58.43 30.22L41.32 30.22L41.32 34.49Z" />
							</g>
						</g>
					</g>
				</g>
			</g>
		</g>
	</g>
</svg>