<svg version="1.2" baseProfile="tiny-ps" xmlns="http://www.w3.org/2000/svg" viewBox="0 0 45 51" width="45" height="51">
	<title>SSA-web_design-v06</title>
	<style>
		tspan { white-space:pre }
		.shp0 { fill: #000000 } 
	</style>
	<g id="SSA-web_design-v06">
		<g id="AKTUARSTVO">
			<g id="AKE">
				<g id="ikonky">
					<g id="2">
						<g id="Group 12">
							<g id="analytics-3">
								<g id="Combined Shape">
									<path id="Shape" fill-rule="evenodd" class="shp0" d="M41.45 1.73L41.45 8.58C41.45 8.99 41.12 9.31 40.72 9.31C40.31 9.31 39.98 8.99 39.98 8.58L39.98 2.47L4.2 2.47L4.2 7.09C5.6 7.46 6.64 8.73 6.64 10.24C6.64 10.65 6.31 10.98 5.9 10.98C5.49 10.98 5.16 10.65 5.16 10.24C5.16 9.56 4.77 8.96 4.2 8.66L4.2 14.97C5.6 15.34 6.64 16.61 6.64 18.12C6.64 18.53 6.31 18.86 5.9 18.86C5.49 18.86 5.16 18.53 5.16 18.12C5.16 17.43 4.77 16.84 4.2 16.53L4.2 22.85C5.6 23.22 6.64 24.49 6.64 26C6.64 26.41 6.31 26.73 5.9 26.73C5.49 26.73 5.16 26.41 5.16 26C5.16 25.31 4.77 24.71 4.2 24.41L4.2 30.72C5.6 31.09 6.64 32.37 6.64 33.88C6.64 34.28 6.31 34.61 5.9 34.61C5.49 34.61 5.16 34.28 5.16 33.88C5.16 33.19 4.77 32.59 4.2 32.29L4.2 38.6C5.6 38.97 6.64 40.25 6.64 41.75C6.64 42.16 6.31 42.49 5.9 42.49C5.49 42.49 5.16 42.16 5.16 41.75C5.16 41.07 4.77 40.47 4.2 40.17L4.2 44.09C4.2 44.26 4.14 44.41 4.05 44.53C3.95 44.82 3.67 45.02 3.35 45.02C1.54 45.02 0.07 43.55 0.07 41.75C0.07 40.17 1.21 38.85 2.72 38.55L2.72 37.08C1.21 36.79 0.07 35.46 0.07 33.88C0.07 32.29 1.21 30.97 2.72 30.67L2.72 29.2C1.21 28.91 0.07 27.58 0.07 26C0.07 24.41 1.21 23.09 2.72 22.8L2.72 21.33C1.21 21.03 0.07 19.71 0.07 18.12C0.07 16.54 1.21 15.21 2.72 14.92L2.72 13.45C1.21 13.15 0.07 11.83 0.07 10.24C0.07 8.66 1.21 7.34 2.72 7.04L2.72 1.73C2.72 1.33 3.05 1 3.46 1L40.72 1C41.12 1 41.45 1.33 41.45 1.73ZM2.72 43.44L2.72 40.07C2.04 40.33 1.55 40.98 1.55 41.75C1.55 42.52 2.04 43.18 2.72 43.44ZM2.72 35.56L2.72 32.2C2.04 32.45 1.55 33.11 1.55 33.88C1.55 34.65 2.04 35.3 2.72 35.56ZM2.72 27.68L2.72 24.32C2.04 24.57 1.55 25.23 1.55 26C1.55 26.77 2.04 27.43 2.72 27.68ZM2.72 19.8L2.72 16.44C2.04 16.7 1.55 17.35 1.55 18.12C1.55 18.89 2.04 19.55 2.72 19.8ZM2.72 11.93L2.72 8.56C2.04 8.82 1.55 9.47 1.55 10.24C1.55 11.01 2.04 11.67 2.72 11.93Z" />
									<path id="Path" class="shp0" d="M31.18 40.36L12.77 40.36C12.36 40.36 12.03 40.69 12.03 41.09C12.03 41.5 12.36 41.83 12.77 41.83L31.18 41.83C31.59 41.83 31.92 41.5 31.92 41.09C31.92 40.69 31.59 40.36 31.18 40.36Z" />
									<path id="Path" class="shp0" d="M31.18 36.91L12.77 36.91C12.36 36.91 12.03 37.24 12.03 37.64C12.03 38.05 12.36 38.37 12.77 38.37L31.18 38.37C31.59 38.37 31.92 38.05 31.92 37.64C31.92 37.24 31.59 36.91 31.18 36.91Z" />
									<path id="Path" class="shp0" d="M25.46 43.81L12.77 43.81C12.36 43.81 12.03 44.14 12.03 44.54C12.03 44.95 12.36 45.28 12.77 45.28L25.46 45.28C25.87 45.28 26.2 44.95 26.2 44.54C26.2 44.14 25.87 43.81 25.46 43.81Z" />
									<path id="Shape" fill-rule="evenodd" class="shp0" d="M44.93 38.5C44.93 39.42 44.57 40.29 43.91 40.95C43.25 41.6 42.38 41.96 41.45 41.96L41.45 50.27C41.45 50.67 41.12 51 40.72 51L3.46 51C3.05 51 2.72 50.67 2.72 50.27L2.72 47.02C2.72 46.62 3.05 46.29 3.46 46.29C3.87 46.29 4.2 46.62 4.2 47.02L4.2 49.53L39.98 49.53L39.98 41.65C39.61 41.48 39.27 41.24 38.97 40.95L32.12 34.14C31.83 33.85 31.83 33.39 32.12 33.1L32.25 32.97L30.64 31.36C28.17 33.06 25.29 33.92 22.41 33.92C18.71 33.92 15.02 32.52 12.2 29.72C6.58 24.13 6.58 15.03 12.2 9.43C17.83 3.84 26.99 3.84 32.61 9.43C37.62 14.41 38.17 22.17 34.27 27.76L35.88 29.36L36.01 29.23C36.3 28.95 36.77 28.95 37.05 29.23L39.98 32.14L39.98 11.51C39.98 11.11 40.31 10.78 40.72 10.78C41.12 10.78 41.45 11.11 41.45 11.51L41.45 33.6L43.91 36.04C44.57 36.7 44.93 37.57 44.93 38.5ZM31.57 28.68C31.97 28.28 32.36 27.84 32.71 27.39C32.72 27.38 32.73 27.37 32.73 27.36C36.59 22.32 36.2 15.07 31.57 10.47C29.05 7.96 25.73 6.71 22.41 6.71C19.09 6.71 15.77 7.96 13.25 10.47C8.2 15.49 8.2 23.66 13.25 28.68C17.88 33.29 25.17 33.67 30.24 29.83C30.25 29.83 30.26 29.82 30.26 29.82C30.72 29.47 31.16 29.09 31.57 28.68ZM33.3 31.93L34.83 30.4L33.35 28.93C33.12 29.2 32.87 29.46 32.61 29.72C32.36 29.98 32.09 30.23 31.81 30.46L33.3 31.93ZM43.45 38.5C43.45 37.96 43.24 37.46 42.86 37.08L40.19 34.43C40.19 34.43 40.19 34.43 40.19 34.42L36.53 30.79L36.4 30.92L33.82 33.49L33.68 33.62L40.02 39.91C40.4 40.29 40.9 40.5 41.44 40.5C41.98 40.5 42.48 40.29 42.86 39.91C43.24 39.53 43.45 39.03 43.45 38.5Z" />
									<path id="Shape" fill-rule="evenodd" class="shp0" d="M33.77 19.51C33.77 19.63 33.77 19.75 33.77 19.87C33.77 19.9 33.76 19.94 33.76 19.97C33.76 20.07 33.75 20.16 33.75 20.26C33.75 20.28 33.75 20.31 33.74 20.34C33.73 20.46 33.72 20.58 33.71 20.7C33.71 20.72 33.71 20.73 33.7 20.75C33.69 20.86 33.68 20.96 33.67 21.06C33.66 21.09 33.66 21.12 33.65 21.15C33.64 21.26 33.62 21.37 33.6 21.48C33.6 21.49 33.6 21.5 33.6 21.51C33.58 21.62 33.55 21.73 33.53 21.84C33.52 21.88 33.51 21.92 33.5 21.96C33.49 22.04 33.47 22.11 33.45 22.19C33.44 22.23 33.43 22.28 33.42 22.32C33.39 22.42 33.37 22.51 33.34 22.61C33.32 22.67 33.3 22.73 33.28 22.8C33.27 22.84 33.26 22.88 33.25 22.92C33.22 22.99 33.2 23.06 33.18 23.13C33.17 23.14 33.17 23.14 33.17 23.15C32.88 23.99 32.5 24.8 32.01 25.56C30.89 27.31 29.31 28.73 27.44 29.65C27.42 29.66 27.4 29.67 27.39 29.68C25.88 30.41 24.18 30.83 22.39 30.83C16.11 30.83 11 25.75 11 19.51C11 18.63 11.11 17.76 11.31 16.92C11.4 16.52 11.8 16.28 12.19 16.37C12.59 16.46 12.84 16.86 12.74 17.25C12.57 17.99 12.48 18.75 12.48 19.51C12.48 24.94 16.93 29.36 22.39 29.36C23.7 29.36 24.96 29.1 26.11 28.64L21.73 19.84C21.71 19.81 21.7 19.78 21.69 19.75C21.69 19.74 21.69 19.73 21.68 19.72C21.68 19.7 21.67 19.69 21.67 19.67C21.67 19.66 21.66 19.64 21.66 19.63C21.66 19.61 21.66 19.6 21.66 19.58C21.65 19.57 21.65 19.55 21.65 19.54C21.65 19.53 21.65 19.52 21.65 19.51L21.65 9.69C18.35 9.94 15.37 11.81 13.74 14.71C13.54 15.06 13.09 15.19 12.73 14.99C12.38 14.79 12.25 14.34 12.45 13.99C14.46 10.42 18.27 8.2 22.39 8.2C28.67 8.2 33.77 13.27 33.77 19.51ZM32.27 20.24L23.58 20.24L27.43 27.99C30.11 26.41 31.98 23.61 32.26 20.36C32.26 20.32 32.27 20.28 32.27 20.24ZM23.13 18.78L32.27 18.78C32.27 18.77 32.27 18.77 32.27 18.77C32.27 18.73 32.26 18.7 32.26 18.67C32.26 18.62 32.25 18.57 32.25 18.53C32.24 18.49 32.24 18.45 32.24 18.42C32.23 18.37 32.23 18.33 32.22 18.28C32.22 18.25 32.21 18.21 32.21 18.18C32.2 18.13 32.19 18.09 32.19 18.04C32.18 18.01 32.18 17.97 32.17 17.93C32.16 17.89 32.16 17.85 32.15 17.81C32.14 17.77 32.14 17.73 32.13 17.7C32.12 17.65 32.11 17.61 32.1 17.57C32.1 17.53 32.09 17.5 32.08 17.46C32.07 17.42 32.06 17.38 32.05 17.34C32.05 17.3 32.04 17.26 32.03 17.23C32.02 17.19 32.01 17.14 32 17.1C31.99 17.07 31.98 17.03 31.97 16.99C31.96 16.95 31.95 16.91 31.94 16.87C31.93 16.84 31.92 16.8 31.91 16.77C31.89 16.73 31.88 16.69 31.87 16.64C31.86 16.61 31.85 16.57 31.84 16.54C31.82 16.5 31.81 16.46 31.8 16.42C31.79 16.38 31.77 16.35 31.76 16.31C31.75 16.27 31.73 16.23 31.72 16.2C31.71 16.16 31.7 16.13 31.68 16.09C31.67 16.05 31.65 16.01 31.64 15.97C31.62 15.94 31.61 15.91 31.6 15.87C31.58 15.83 31.56 15.79 31.55 15.75C31.53 15.72 31.52 15.69 31.51 15.66C31.49 15.62 31.47 15.58 31.46 15.54C31.44 15.51 31.43 15.47 31.41 15.44C31.39 15.4 31.37 15.36 31.36 15.32C31.34 15.29 31.33 15.26 31.31 15.23C31.29 15.19 31.27 15.15 31.25 15.11C31.24 15.08 31.22 15.05 31.21 15.02C31.18 14.98 31.16 14.93 31.14 14.89C31.12 14.87 31.11 14.84 31.1 14.81C31.06 14.75 31.03 14.69 31 14.63C30.99 14.62 30.98 14.61 30.97 14.6C30.94 14.54 30.9 14.47 30.86 14.41C30.85 14.39 30.83 14.36 30.82 14.34C30.79 14.3 30.77 14.26 30.74 14.22C30.72 14.19 30.7 14.16 30.69 14.13C30.66 14.1 30.64 14.06 30.61 14.02C30.59 13.99 30.57 13.96 30.55 13.94C30.53 13.9 30.5 13.87 30.48 13.83C30.46 13.8 30.44 13.77 30.42 13.74C30.39 13.71 30.37 13.68 30.34 13.64C30.32 13.61 30.3 13.59 30.28 13.56C30.25 13.52 30.23 13.49 30.2 13.46C30.18 13.43 30.16 13.4 30.13 13.37C30.11 13.34 30.08 13.31 30.06 13.28C30.03 13.25 30.01 13.22 29.98 13.19C29.96 13.16 29.93 13.13 29.91 13.1C29.88 13.07 29.86 13.05 29.83 13.02C29.81 12.99 29.78 12.96 29.75 12.93C29.73 12.9 29.7 12.87 29.68 12.85C29.65 12.82 29.62 12.79 29.59 12.76C29.57 12.73 29.54 12.7 29.52 12.68C29.49 12.65 29.46 12.62 29.43 12.59C29.41 12.56 29.38 12.54 29.35 12.51C29.32 12.48 29.3 12.46 29.27 12.43C29.24 12.4 29.21 12.38 29.19 12.35C29.16 12.32 29.13 12.3 29.1 12.27C29.07 12.24 29.04 12.22 29.01 12.19C28.98 12.17 28.95 12.14 28.92 12.11C28.9 12.09 28.87 12.07 28.84 12.04C28.81 12.02 28.78 11.99 28.75 11.96C28.72 11.94 28.69 11.92 28.66 11.89C28.63 11.87 28.6 11.84 28.57 11.82C28.54 11.79 28.51 11.77 28.48 11.75C28.45 11.72 28.42 11.7 28.38 11.67C28.35 11.65 28.32 11.63 28.3 11.61C28.26 11.58 28.23 11.56 28.19 11.53C28.16 11.51 28.14 11.49 28.11 11.47C28.07 11.45 28.04 11.42 28 11.4C27.97 11.38 27.94 11.36 27.91 11.34C27.88 11.31 27.84 11.29 27.8 11.27C27.78 11.25 27.75 11.23 27.72 11.21C27.67 11.18 27.63 11.15 27.58 11.12C27.54 11.1 27.51 11.08 27.47 11.06C27.42 11.03 27.37 11 27.32 10.97C27.29 10.96 27.26 10.94 27.24 10.92C27.2 10.9 27.16 10.88 27.12 10.86C27.09 10.84 27.06 10.82 27.02 10.81C26.99 10.79 26.95 10.77 26.91 10.75C26.88 10.73 26.85 10.72 26.81 10.7C26.78 10.68 26.74 10.66 26.7 10.64C26.67 10.63 26.63 10.61 26.6 10.6C26.56 10.58 26.53 10.56 26.49 10.54C26.45 10.53 26.42 10.51 26.38 10.5C26.35 10.48 26.31 10.47 26.27 10.45C26.24 10.43 26.2 10.42 26.17 10.41C26.13 10.39 26.09 10.37 26.05 10.36C26.02 10.35 25.98 10.33 25.95 10.32C25.91 10.3 25.87 10.29 25.83 10.28C25.8 10.26 25.76 10.25 25.73 10.24C25.69 10.22 25.65 10.21 25.61 10.2C25.57 10.18 25.54 10.17 25.5 10.16C25.46 10.15 25.42 10.13 25.38 10.12C25.35 10.11 25.31 10.1 25.27 10.09C25.23 10.08 25.2 10.06 25.16 10.05C25.12 10.04 25.08 10.03 25.04 10.02C25.01 10.01 24.97 10 24.93 9.99C24.89 9.98 24.85 9.97 24.81 9.96C24.77 9.95 24.73 9.94 24.69 9.93C24.66 9.92 24.62 9.91 24.58 9.9C24.54 9.89 24.5 9.89 24.46 9.88C24.42 9.87 24.38 9.86 24.34 9.85C24.3 9.85 24.26 9.84 24.22 9.83C24.18 9.82 24.14 9.82 24.11 9.81C24.06 9.8 24.02 9.8 23.98 9.79C23.94 9.78 23.91 9.78 23.87 9.77C23.82 9.76 23.78 9.76 23.74 9.75C23.7 9.75 23.66 9.74 23.63 9.74C23.58 9.73 23.54 9.73 23.49 9.72C23.46 9.72 23.42 9.71 23.38 9.71C23.34 9.71 23.29 9.7 23.24 9.7C23.21 9.7 23.17 9.69 23.14 9.69C23.14 9.69 23.13 9.69 23.13 9.69L23.13 18.78Z" />
								</g>
							</g>
						</g>
					</g>
				</g>
			</g>
		</g>
	</g>
</svg>