<svg version="1.2" baseProfile="tiny-ps" xmlns="http://www.w3.org/2000/svg" viewBox="0 0 50 50" width="50" height="50">
	<title>SSA-web_design-v06</title>
	<style>
		tspan { white-space:pre }
		.shp0 { fill: #000000 } 
	</style>
	<g id="SSA-web_design-v06">
		<g id="AKTUARSTVO">
			<g id="AKE">
				<g id="ikonky">
					<g id="1">
						<g id="Group 5">
							<g id="analytics-2">
								<g id="Combined Shape">
									<path id="Shape" fill-rule="evenodd" class="shp0" d="M49.9 7.28L49.9 25.46C49.9 25.86 49.58 26.19 49.17 26.19C48.77 26.19 48.44 25.86 48.44 25.46L48.44 7.28C48.44 6.88 48.12 6.55 47.71 6.55L36.35 6.55L32.06 10.5C32.21 10.85 32.29 11.23 32.29 11.63C32.29 13.17 31.05 14.42 29.53 14.42C28 14.42 26.76 13.17 26.76 11.63C26.76 11.44 26.78 11.25 26.81 11.07L21.84 8.1C21.34 8.63 20.63 8.96 19.85 8.96C19.27 8.96 18.73 8.78 18.28 8.47L12.15 14.07C12.34 14.44 12.44 14.86 12.44 15.3C12.44 16.84 11.2 18.09 9.67 18.09C8.14 18.09 6.9 16.84 6.9 15.3C6.9 13.76 8.14 12.51 9.67 12.51C10.23 12.51 10.75 12.68 11.18 12.97L17.34 7.35C17.22 7.1 17.14 6.83 17.1 6.55L2.29 6.55C1.88 6.55 1.56 6.88 1.56 7.28L1.56 12.71C1.56 13.12 1.23 13.45 0.83 13.45C0.42 13.45 0.1 13.12 0.1 12.71L0.1 7.28C0.1 6.07 1.08 5.08 2.29 5.08L17.3 5.08C17.72 4.08 18.7 3.38 19.85 3.38C20.99 3.38 21.97 4.08 22.39 5.08L35.78 5.08L36.76 4.18C36.55 3.79 36.44 3.34 36.44 2.87C36.44 1.34 37.68 0.08 39.21 0.08C40.73 0.08 41.97 1.34 41.97 2.87C41.97 3.77 41.55 4.57 40.9 5.08L47.71 5.08C48.92 5.08 49.9 6.07 49.9 7.28ZM10.98 15.3C10.98 14.57 10.39 13.98 9.67 13.98C8.95 13.98 8.36 14.57 8.36 15.3C8.36 16.03 8.95 16.62 9.67 16.62C10.39 16.62 10.98 16.03 10.98 15.3ZM21.16 6.17C21.16 5.44 20.57 4.85 19.85 4.85C19.12 4.85 18.54 5.44 18.54 6.17C18.54 6.89 19.12 7.49 19.85 7.49C20.57 7.49 21.16 6.89 21.16 6.17ZM30.84 11.63C30.84 10.9 30.25 10.31 29.53 10.31C28.8 10.31 28.22 10.9 28.22 11.63C28.22 12.36 28.8 12.95 29.53 12.95C30.25 12.95 30.84 12.36 30.84 11.63ZM34.19 6.55L22.59 6.55C22.58 6.63 22.56 6.72 22.54 6.81L27.47 9.76C27.98 9.19 28.71 8.84 29.53 8.84C30.13 8.84 30.68 9.03 31.14 9.36L34.19 6.55ZM40.51 2.87C40.51 2.15 39.93 1.56 39.21 1.56C38.48 1.56 37.9 2.15 37.9 2.87C37.9 3.6 38.48 4.19 39.21 4.19C39.93 4.19 40.51 3.6 40.51 2.87Z" />
									<path id="Shape" fill-rule="evenodd" class="shp0" d="M49.9 28.4L49.9 34.67C49.9 34.67 49.9 34.68 49.9 34.68C49.9 34.69 49.9 40 49.9 40C49.9 41.22 48.92 42.21 47.71 42.21L31.73 42.21L32.15 45.86L35.61 45.86C36.01 45.86 36.34 46.19 36.34 46.6L36.34 49.18C36.34 49.59 36.01 49.92 35.61 49.92L14.39 49.92C13.99 49.92 13.66 49.59 13.66 49.18L13.66 46.6C13.66 46.19 13.99 45.86 14.39 45.86L17.86 45.86L18.27 42.21L2.29 42.21C1.08 42.21 0.1 41.22 0.1 40L0.1 15.66C0.1 15.25 0.42 14.92 0.83 14.92C1.23 14.92 1.56 15.25 1.56 15.66L1.56 33.93L7.08 33.93L7.08 24.14C7.08 23.74 7.41 23.41 7.81 23.41L13.3 23.41C13.7 23.41 14.03 23.74 14.03 24.14L14.03 33.93L16.76 33.93L16.76 27.75C16.76 27.35 17.09 27.02 17.49 27.02C17.89 27.02 18.22 27.35 18.22 27.75L18.22 33.93L22.25 33.93L22.25 21.43L18.22 21.43L18.22 24.81C18.22 25.22 17.89 25.55 17.49 25.55C17.09 25.55 16.76 25.22 16.76 24.81L16.76 14.65C16.76 14.24 17.09 13.91 17.49 13.91L22.98 13.91C23.38 13.91 23.71 14.24 23.71 14.65L23.71 33.93L26.44 33.93L26.44 24.14C26.44 23.74 26.77 23.41 27.17 23.41L32.66 23.41C33.06 23.41 33.39 23.74 33.39 24.14L33.39 33.93L36.12 33.93L36.12 10.46C36.12 10.06 36.45 9.73 36.85 9.73L42.34 9.73C42.74 9.73 43.07 10.06 43.07 10.46L43.07 33.93L48.44 33.93L48.44 28.4C48.44 27.99 48.77 27.66 49.17 27.66C49.58 27.66 49.9 27.99 49.9 28.4L49.9 28.4ZM37.58 12.77L41.61 12.77L41.61 11.2L37.58 11.2L37.58 12.77ZM37.58 15.77L41.61 15.77L41.61 14.24L37.58 14.24L37.58 15.77ZM37.58 33.93L41.61 33.93L41.61 17.25L37.58 17.25L37.58 33.93ZM27.9 26.45L31.93 26.45L31.93 24.88L27.9 24.88L27.9 26.45ZM27.9 29.45L31.93 29.45L31.93 27.92L27.9 27.92L27.9 29.45ZM27.9 33.93L31.93 33.93L31.93 30.92L27.9 30.92L27.9 33.93ZM22.25 16.96L22.25 15.38L18.22 15.38L18.22 16.96L22.25 16.96ZM22.25 19.96L22.25 18.43L18.22 18.43L18.22 19.96L22.25 19.96ZM8.54 26.45L12.57 26.45L12.57 24.88L8.54 24.88L8.54 26.45ZM8.54 29.45L12.57 29.45L12.57 27.92L8.54 27.92L8.54 29.45ZM8.54 33.93L12.57 33.93L12.57 30.92L8.54 30.92L8.54 33.93ZM15.12 47.33L15.12 48.44L34.88 48.44L34.88 47.33L15.12 47.33ZM30.68 45.86L30.26 42.21L19.74 42.21L19.32 45.86L30.68 45.86ZM48.44 40L48.44 40L48.44 35.43L1.56 35.43L1.56 40C1.56 40.41 1.88 40.74 2.29 40.74L47.71 40.74C48.12 40.74 48.44 40.41 48.44 40Z" />
								</g>
							</g>
						</g>
					</g>
				</g>
			</g>
		</g>
	</g>
</svg>