<svg version="1.2" baseProfile="tiny-ps" xmlns="http://www.w3.org/2000/svg" viewBox="0 0 50 50" width="50" height="50">
	<title>SSA-web_design-v06</title>
	<style>
		tspan { white-space:pre }
		.shp0 { fill: #000000 } 
	</style>
	<g id="SSA-web_design-v06">
		<g id="AKTUARSTVO">
			<g id="AKE">
				<g id="ikonky">
					<g id="3">
						<g id="Group 13">
							<g id="analytics-4">
								<g id="Combined Shape">
									<path id="Shape" fill-rule="evenodd" class="shp0" d="M39.64 0.73L39.64 9.74C39.64 10.15 39.31 10.47 38.91 10.47C38.5 10.47 38.18 10.15 38.18 9.74L38.18 1.47L3.97 1.47L3.97 5.79C5.29 6.15 6.27 7.37 6.27 8.81C6.27 9.21 5.94 9.54 5.53 9.54C5.13 9.54 4.8 9.21 4.8 8.81C4.8 8.19 4.46 7.65 3.97 7.36L3.97 13.26C5.29 13.62 6.27 14.84 6.27 16.28C6.27 16.68 5.94 17.01 5.53 17.01C5.13 17.01 4.8 16.68 4.8 16.28C4.8 15.66 4.46 15.12 3.97 14.83L3.97 20.73C5.29 21.09 6.27 22.31 6.27 23.75C6.27 24.15 5.94 24.48 5.53 24.48C5.13 24.48 4.8 24.15 4.8 23.75C4.8 23.13 4.46 22.59 3.97 22.31L3.97 28.2C5.29 28.57 6.27 29.78 6.27 31.22C6.27 31.63 5.94 31.95 5.53 31.95C5.13 31.95 4.8 31.63 4.8 31.22C4.8 30.6 4.46 30.07 3.97 29.78L3.97 35.67C5.29 36.04 6.27 37.25 6.27 38.69C6.27 39.1 5.94 39.42 5.53 39.42C5.13 39.42 4.8 39.1 4.8 38.69C4.8 38.08 4.46 37.54 3.97 37.25L3.97 41.09C3.97 41.5 3.64 41.82 3.23 41.82C3.22 41.82 3.2 41.82 3.18 41.82C3.17 41.82 3.15 41.82 3.13 41.82C1.41 41.82 0 40.42 0 38.69C0 37.18 1.07 35.92 2.5 35.62L2.5 34.29C1.07 34 0 32.73 0 31.22C0 29.71 1.07 28.45 2.5 28.15L2.5 26.82C1.07 26.52 0 25.26 0 23.75C0 22.24 1.07 20.97 2.5 20.68L2.5 19.35C1.07 19.05 0 17.79 0 16.28C0 14.77 1.07 13.5 2.5 13.21L2.5 11.88C1.07 11.58 0 10.32 0 8.81C0 7.3 1.07 6.03 2.5 5.74L2.5 0.73C2.5 0.33 2.83 0 3.23 0L38.91 0C39.31 0 39.64 0.33 39.64 0.73ZM2.5 37.15C1.89 37.4 1.47 38 1.47 38.69C1.47 39.39 1.89 39.98 2.5 40.23L2.5 37.15ZM2.5 29.68C1.89 29.93 1.47 30.52 1.47 31.22C1.47 31.92 1.89 32.51 2.5 32.76L2.5 29.68ZM2.5 22.21C1.89 22.46 1.47 23.05 1.47 23.75C1.47 24.44 1.89 25.04 2.5 25.29L2.5 22.21ZM2.5 14.74C1.89 14.99 1.47 15.58 1.47 16.28C1.47 16.97 1.89 17.57 2.5 17.82L2.5 14.74ZM2.5 7.26C1.89 7.51 1.47 8.11 1.47 8.81C1.47 9.5 1.89 10.1 2.5 10.35L2.5 7.26Z" />
									<path id="Path" class="shp0" d="M15.33 10.36C15.05 10.08 14.58 10.08 14.3 10.36L12.81 11.85L12.33 11.36C12.05 11.08 11.58 11.08 11.3 11.36C11.01 11.65 11.01 12.11 11.3 12.4L12.3 13.4C12.44 13.54 12.63 13.61 12.81 13.61C13 13.61 13.19 13.54 13.33 13.4L15.33 11.4C15.62 11.11 15.62 10.65 15.33 10.36Z" />
									<path id="Shape" fill-rule="evenodd" class="shp0" d="M17.45 8.52L17.45 15.35C17.45 15.75 17.12 16.08 16.71 16.08L9.89 16.08C9.48 16.08 9.15 15.75 9.15 15.35L9.15 8.52C9.15 8.11 9.48 7.79 9.89 7.79L16.71 7.79C17.12 7.79 17.45 8.11 17.45 8.52ZM15.98 9.25L10.62 9.25L10.62 14.61L15.98 14.61L15.98 9.25Z" />
									<path id="Path" class="shp0" d="M31.59 9.44L20.35 9.44C19.94 9.44 19.61 9.77 19.61 10.17C19.61 10.58 19.94 10.91 20.35 10.91L31.59 10.91C32 10.91 32.32 10.58 32.32 10.17C32.32 9.77 32 9.44 31.59 9.44Z" />
									<path id="Path" class="shp0" d="M26.78 12.86L20.35 12.86C19.94 12.86 19.61 13.19 19.61 13.59C19.61 13.99 19.94 14.32 20.35 14.32L26.78 14.32C27.18 14.32 27.51 13.99 27.51 13.59C27.51 13.19 27.18 12.86 26.78 12.86Z" />
									<path id="Path" class="shp0" d="M15.33 22C15.05 21.72 14.58 21.72 14.3 22L12.81 23.49L12.33 23C12.05 22.72 11.58 22.72 11.3 23C11.01 23.29 11.01 23.75 11.3 24.04L12.3 25.04C12.44 25.18 12.63 25.25 12.81 25.25C13 25.25 13.19 25.18 13.33 25.04L15.33 23.04C15.62 22.75 15.62 22.29 15.33 22Z" />
									<path id="Shape" fill-rule="evenodd" class="shp0" d="M17.45 20.16L17.45 26.98C17.45 27.39 17.12 27.72 16.71 27.72L9.89 27.72C9.48 27.72 9.15 27.39 9.15 26.98L9.15 20.16C9.15 19.75 9.48 19.43 9.89 19.43L16.71 19.43C17.12 19.43 17.45 19.75 17.45 20.16ZM15.98 20.89L10.62 20.89L10.62 26.25L15.98 26.25L15.98 20.89Z" />
									<path id="Path" class="shp0" d="M31.59 21.08L20.35 21.08C19.94 21.08 19.61 21.41 19.61 21.81C19.61 22.22 19.94 22.55 20.35 22.55L31.59 22.55C32 22.55 32.32 22.22 32.32 21.81C32.32 21.41 32 21.08 31.59 21.08Z" />
									<path id="Path" class="shp0" d="M26.78 24.5L20.35 24.5C19.94 24.5 19.61 24.82 19.61 25.23C19.61 25.63 19.94 25.96 20.35 25.96L26.78 25.96C27.18 25.96 27.51 25.63 27.51 25.23C27.51 24.82 27.18 24.5 26.78 24.5Z" />
									<path id="Path" class="shp0" d="M15.33 33.64C15.05 33.36 14.58 33.36 14.3 33.64L12.81 35.12L12.33 34.64C12.05 34.36 11.58 34.36 11.3 34.64C11.01 34.93 11.01 35.39 11.3 35.68L12.3 36.68C12.44 36.82 12.63 36.89 12.81 36.89C13 36.89 13.19 36.82 13.33 36.68L15.33 34.68C15.62 34.39 15.62 33.93 15.33 33.64Z" />
									<path id="Shape" fill-rule="evenodd" class="shp0" d="M17.45 31.8L17.45 38.62C17.45 39.03 17.12 39.36 16.71 39.36L9.89 39.36C9.48 39.36 9.15 39.03 9.15 38.62L9.15 31.8C9.15 31.39 9.48 31.06 9.89 31.06L16.71 31.06C17.12 31.06 17.45 31.39 17.45 31.8ZM15.98 32.53L10.62 32.53L10.62 37.89L15.98 37.89L15.98 32.53Z" />
									<path id="Shape" fill-rule="evenodd" class="shp0" d="M50 38.25C50 38.37 50 38.5 49.99 38.62C49.99 38.66 49.99 38.69 49.99 38.73C49.99 38.83 49.98 38.93 49.97 39.02C49.97 39.05 49.97 39.08 49.97 39.11C49.96 39.23 49.95 39.36 49.94 39.48C49.93 39.5 49.93 39.52 49.93 39.54C49.92 39.64 49.9 39.75 49.89 39.85C49.89 39.89 49.88 39.92 49.88 39.95C49.86 40.06 49.84 40.18 49.82 40.29C49.82 40.3 49.82 40.31 49.82 40.32C49.8 40.44 49.77 40.55 49.75 40.67C49.74 40.71 49.73 40.75 49.72 40.79C49.7 40.87 49.69 40.95 49.67 41.03C49.66 41.07 49.65 41.12 49.63 41.16C49.61 41.26 49.58 41.37 49.55 41.47C49.53 41.53 49.51 41.59 49.49 41.66C49.48 41.7 49.47 41.74 49.46 41.79C49.43 41.86 49.41 41.93 49.38 42.01C49.38 42.02 49.38 42.02 49.38 42.03C49.08 42.9 48.68 43.74 48.19 44.52C47.25 46 46 47.25 44.53 48.18C44.19 48.4 43.84 48.6 43.47 48.78C43.45 48.78 43.44 48.79 43.42 48.8C41.86 49.57 40.1 50 38.25 50C35.52 50 33.01 49.06 31.01 47.5L3.23 47.5C2.83 47.5 2.5 47.17 2.5 46.76L2.5 43.85C2.5 43.45 2.83 43.12 3.23 43.12C3.64 43.12 3.97 43.45 3.97 43.85L3.97 46.03L29.45 46.03C27.62 43.96 26.5 41.23 26.5 38.25C26.5 38.03 26.51 37.82 26.52 37.6L20.35 37.6C19.94 37.6 19.61 37.27 19.61 36.87C19.61 36.46 19.94 36.14 20.35 36.14L26.69 36.14C26.81 35.46 26.99 34.81 27.22 34.19L20.35 34.19C19.94 34.19 19.61 33.86 19.61 33.45C19.61 33.05 19.94 32.72 20.35 32.72L27.88 32.72C29.85 29.04 33.72 26.53 38.18 26.5L38.18 12.67C38.18 12.27 38.5 11.94 38.91 11.94C39.31 11.94 39.64 12.27 39.64 12.67L39.64 26.58C42.14 26.87 44.46 27.96 46.31 29.7C46.61 29.98 46.62 30.44 46.34 30.74C46.07 31.03 45.6 31.04 45.31 30.77C45.21 30.67 45.1 30.58 45 30.49C44.99 30.48 44.98 30.47 44.96 30.46C44.87 30.37 44.76 30.29 44.66 30.21C44.65 30.19 44.63 30.18 44.61 30.17C44.51 30.09 44.41 30.01 44.31 29.94C44.29 29.92 44.27 29.91 44.25 29.9C44.15 29.82 44.04 29.75 43.94 29.68C43.92 29.67 43.9 29.66 43.89 29.64C43.78 29.57 43.67 29.5 43.55 29.43C43.55 29.43 43.54 29.42 43.53 29.42C43.42 29.35 43.3 29.29 43.19 29.22C43.18 29.22 43.17 29.21 43.16 29.21C43.04 29.14 42.93 29.09 42.81 29.03C42.79 29.02 42.77 29.01 42.75 29C42.64 28.94 42.53 28.89 42.41 28.84C42.39 28.83 42.37 28.82 42.35 28.81C42.23 28.76 42.12 28.71 42 28.67C41.98 28.66 41.96 28.65 41.94 28.65C41.82 28.6 41.7 28.55 41.58 28.51C41.56 28.51 41.55 28.5 41.54 28.5C41.41 28.46 41.29 28.42 41.16 28.38C41.16 28.38 41.15 28.38 41.14 28.38C41.02 28.34 40.89 28.3 40.76 28.27C40.74 28.27 40.72 28.26 40.7 28.26C40.58 28.23 40.46 28.2 40.33 28.17C40.31 28.17 40.29 28.17 40.26 28.16C40.14 28.14 40.02 28.11 39.89 28.09C39.87 28.09 39.85 28.09 39.83 28.08C39.7 28.06 39.57 28.05 39.44 28.03C39.42 28.03 39.41 28.03 39.39 28.03C39.26 28.01 39.12 28 38.98 27.99C38.98 27.99 38.98 27.99 38.98 27.99L38.98 37.49L48.51 37.49C48.39 35.87 47.89 34.3 47.05 32.92C46.84 32.57 46.95 32.12 47.29 31.91C47.31 31.9 47.34 31.88 47.36 31.87C47.47 31.82 47.59 31.8 47.71 31.8C47.85 31.81 47.99 31.86 48.1 31.94C48.18 32 48.25 32.07 48.3 32.16C49.06 33.41 49.58 34.8 49.83 36.25C49.94 36.89 50 37.55 50 38.21C50 38.21 50 38.21 50 38.21L50 38.25ZM42.15 47.76L37.59 38.54C37.58 38.52 37.57 38.49 37.56 38.46C37.55 38.45 37.55 38.44 37.55 38.43C37.54 38.41 37.54 38.4 37.53 38.38C37.53 38.36 37.53 38.35 37.53 38.34C37.53 38.32 37.52 38.31 37.52 38.29C37.52 38.28 37.52 38.26 37.52 38.25C37.52 38.24 37.52 38.23 37.52 38.22L37.52 27.99C32.19 28.37 27.96 32.82 27.96 38.25C27.96 43.92 32.58 48.53 38.25 48.53C39.63 48.53 40.95 48.26 42.15 47.76ZM48.51 38.95L39.43 38.95L43.46 47.11C46.25 45.46 48.2 42.54 48.49 39.15C48.5 39.1 48.5 39.05 48.51 39C48.51 38.98 48.51 38.97 48.51 38.95Z" />
								</g>
							</g>
						</g>
					</g>
				</g>
			</g>
		</g>
	</g>
</svg>