<svg version="1.2" baseProfile="tiny-ps" xmlns="http://www.w3.org/2000/svg" viewBox="0 0 81 88" width="81" height="88">
	<title>SSA-web_design-v06</title>
	<defs>
		<clipPath clipPathUnits="userSpaceOnUse" id="cp1">
			<path d="M1 0.41L80.96 0.41L80.96 37.88L1 37.88L1 0.41Z" />
		</clipPath>
		<clipPath clipPathUnits="userSpaceOnUse" id="cp2">
			<path d="M10.08 79.26L17.63 79.26L17.63 87.99L10.08 87.99L10.08 79.26Z" />
		</clipPath>
	</defs>
	<style>
		tspan { white-space:pre }
		.shp0 { fill: #b9b8c1 } 
		.shp1 { fill: transparent } 
	</style>
	<g id="SSA-web_design-v06">
		<g id="FOOTER">
			<g id="Group 19">
				<g id="Group 71">
					<path id="Fill 1" class="shp0" d="M28.65 27.48C29.17 27.14 29.59 26.72 29.86 26.19C30.51 24.99 30.61 24.28 30.74 22.95C30.77 21.4 29.37 18.8 27.13 17.83C21.54 15.27 17.84 13.42 12.18 10.41C11.37 9.89 10.98 8.95 10.92 8.21C10.95 6.78 11.83 5.68 13.22 5.68C17.74 5.68 21.77 5.71 26.29 5.71L26.29 2.6L26.21 2.6L26.21 2.5L13 2.5C10.78 2.73 8.6 4.39 7.98 6.28C7.72 7.23 7.55 8.21 7.68 9.28C8.04 10.62 8.86 11.82 10.62 12.93C12.61 14.04 19.95 17.56 25.69 20.14C26.4 20.56 27.54 21.57 27.64 22.75C27.71 23.5 27.61 24.12 27.25 24.77C27.11 24.91 26.92 25.04 26.71 25.15C26.36 25.32 25.94 25.43 25.44 25.45L6.4 25.45L6.38 25.48L6.25 25.48L4.91 28.65L24.84 28.65C26.02 28.6 27.55 28.25 28.65 27.48" />
					<g id="Group 5">
						<path id="Clip 4" class="shp1" d="M1 0.41L80.96 0.41L80.96 37.88L1 37.88L1 0.41Z" />
						<g id="Mask by Clip 4" clip-path="url(#cp1)">
							<path id="Fill 3" fill-rule="evenodd" class="shp0" d="M70.25 3.96C71.88 2.96 75.22 3.15 76.49 4.42C77.46 5.41 77.85 7.82 77.95 10.91L66.64 10.88C67.4 8.27 68.09 6.28 69.31 4.84C69.59 4.52 69.9 4.23 70.25 3.96ZM80.83 10.94C80.8 9.93 80.76 8.63 80.63 7.55C80.47 5.89 79.91 4.03 78.97 2.73C77.49 0.63 70.46 -1.9 66.34 4.39C65.9 5.05 65.49 5.81 65.12 6.68C64.8 7.51 64.1 9.91 63.77 10.88L56.18 10.88L56.18 10.93L56.15 10.93L56.15 14.04L62.72 14.04C60.73 20.23 58.82 26.97 57.09 31.18C56.28 32.48 56.25 34.81 51.54 34.91C45.82 34.91 16.8 34.71 2.47 34.65L2.43 34.74C2.39 34.74 2.35 34.74 2.31 34.74L1 37.87C2.47 37.87 4.13 37.87 5.92 37.87C5.92 37.87 5.92 37.87 5.92 37.87C5.92 37.87 5.92 37.87 5.92 37.87C21.43 37.86 47.46 37.81 53.01 37.81C56.05 37.81 58 35.82 58.85 33.96C59.76 32.3 60.32 30.67 60.87 28.52C61.91 25.65 63.54 19.54 65.39 14.04L77.96 14.04C77.96 15.17 78.02 16.83 77.99 17.96C77.96 23.4 78.02 33.84 77.99 34.26L78.09 34.21C78.09 34.28 78.09 34.33 78.09 34.35L80.96 33.08C80.99 30.57 80.8 20.82 80.89 14.11L80.83 10.94ZM5.92 37.87C5.92 37.87 5.91 37.87 5.91 37.88L5.91 37.88C5.91 37.88 5.91 37.88 5.92 37.87Z" />
						</g>
					</g>
					<path id="Fill 6" class="shp0" d="M53.6 29.17C54.51 27.47 54.38 25.13 54.19 23.33C53.93 21.25 51.94 18.83 49.85 17.99C44.24 15.25 40.39 13.19 34.62 10.39C34.42 10.3 34.25 10.18 34.1 10.04C33.66 9.58 33.47 8.93 33.47 8.24C33.47 6.81 34.41 5.68 35.81 5.68C40.33 5.68 44.35 5.71 48.84 5.71L48.84 2.6L48.84 2.6L48.84 2.5L35.66 2.5C33.45 2.73 31.26 4.39 30.64 6.28C30.35 7.23 30.22 8.21 30.35 9.28C30.66 10.74 31.53 11.77 32.4 12.33C32.54 12.43 32.68 12.51 32.82 12.58C36.32 14.24 39.22 15.73 42.22 17.24C44.15 18.21 46.12 19.19 48.32 20.23C49.14 20.6 50.45 21.77 50.91 23.02C50.92 23.04 50.93 23.07 50.94 23.1C50.95 23.15 50.97 23.19 50.98 23.24C51.24 24.9 51.37 26.84 50.56 28.1C50.14 28.53 49.68 30.11 46.56 30.21C41.17 30.21 18.03 30.11 4.42 30.05L4.39 30.11C4.35 30.11 4.3 30.11 4.26 30.11L2.96 33.24L47.21 33.24C50.24 33.18 52.59 31.45 53.6 29.17" />
					<path id="Fill 8" class="shp0" d="M4.74 54.02C4.74 55.52 5.15 56.56 5.96 57.12C6.77 57.7 7.8 57.98 9.08 57.98C9.92 57.98 10.68 57.84 11.33 57.53C12.01 57.25 12.5 56.84 12.88 56.3C13.26 55.77 13.45 55.22 13.45 54.58C13.45 54.07 13.34 53.63 13.09 53.21C12.88 52.82 12.58 52.48 12.17 52.2C11.85 51.98 11.3 51.7 10.49 51.34C9.49 50.89 8.86 50.58 8.59 50.42C8.21 50.19 7.97 50 7.8 49.78C7.67 49.55 7.59 49.27 7.59 48.99C7.59 48.52 7.78 48.13 8.13 47.85C8.57 47.46 9.22 47.27 10.03 47.27C10.49 47.27 10.92 47.35 11.3 47.49C11.68 47.6 11.98 47.8 12.17 48.02C12.39 48.24 12.55 48.49 12.66 48.83C12.72 49.02 12.74 49.27 12.74 49.58L14.21 49.47L14.21 49.25C14.21 48.74 14.07 48.24 13.77 47.74C13.5 47.21 13.04 46.79 12.42 46.46C11.79 46.15 11.01 45.98 10.08 45.98C9.32 45.98 8.62 46.12 8.02 46.37C7.4 46.62 6.94 46.99 6.61 47.46C6.31 47.94 6.15 48.49 6.15 49.08C6.15 49.61 6.26 50.06 6.5 50.47C6.75 50.86 7.13 51.23 7.61 51.59C7.94 51.79 8.57 52.09 9.43 52.48C10.57 52.98 11.28 53.4 11.55 53.68C11.79 53.99 11.93 54.32 11.93 54.69C11.93 55.22 11.68 55.66 11.2 56.08C10.74 56.47 10.03 56.7 9.13 56.7C8.51 56.7 7.97 56.58 7.51 56.39C7.05 56.19 6.69 55.89 6.5 55.52C6.31 55.16 6.2 54.74 6.2 54.3L6.23 53.88L4.74 54.02Z" />
					<path id="Fill 10" class="shp0" d="M14.79 57.78L16.11 57.78L18.37 46.18L17.05 46.18L14.79 57.78Z" />
					<path id="Fill 12" fill-rule="evenodd" class="shp0" d="M20.32 53.02C20.46 52.49 20.65 52.02 20.94 51.61C21.24 51.19 21.56 50.89 21.91 50.66C22.26 50.44 22.67 50.36 23.1 50.36C23.67 50.36 24.13 50.55 24.51 50.97C24.86 51.38 25.04 51.97 25.04 52.74C25.04 53.21 24.96 53.71 24.8 54.21C24.69 54.6 24.56 54.93 24.4 55.26C24.21 55.6 23.99 55.87 23.75 56.12C23.51 56.37 23.24 56.57 22.94 56.68C22.64 56.82 22.35 56.87 22.05 56.87C21.48 56.87 21.02 56.68 20.65 56.26C20.3 55.84 20.11 55.26 20.11 54.49C20.11 54.04 20.19 53.57 20.32 53.02ZM22.05 57.98C22.8 57.98 23.53 57.76 24.23 57.31C24.94 56.87 25.48 56.23 25.85 55.4C26.23 54.6 26.42 53.68 26.42 52.74C26.42 51.66 26.12 50.83 25.53 50.19C24.91 49.56 24.13 49.25 23.16 49.25C21.91 49.25 20.89 49.69 20.13 50.58C19.19 51.63 18.73 52.99 18.73 54.63C18.73 55.29 18.86 55.87 19.14 56.37C19.4 56.87 19.81 57.29 20.32 57.56C20.83 57.84 21.4 57.98 22.05 57.98Z" />
					<path id="Fill 14" class="shp0" d="M31.01 57.78L35.61 49.45L34.18 49.45L31.49 54.46C31.09 55.23 30.74 55.9 30.48 56.48C30.37 55.34 30.29 54.54 30.21 54.04L29.52 49.45L28.19 49.45L29.49 57.78L31.01 57.78Z" />
					<path id="Fill 16" fill-rule="evenodd" class="shp0" d="M42 52.88L37.45 52.88C37.69 52.02 38.04 51.41 38.53 51C39.01 50.58 39.55 50.36 40.14 50.36C40.68 50.36 41.14 50.55 41.49 50.94C41.84 51.3 42 51.86 42 52.58L42 52.88ZM37.98 49.89C37.34 50.3 36.83 50.94 36.39 51.77C35.99 52.63 35.8 53.52 35.8 54.43C35.8 55.13 35.91 55.76 36.18 56.29C36.45 56.84 36.83 57.26 37.34 57.54C37.82 57.81 38.39 57.98 38.98 57.98C39.95 57.98 40.79 57.65 41.46 57.04C42.16 56.43 42.62 55.76 42.81 55.1L41.46 54.93C41.19 55.54 40.84 56.01 40.38 56.32C39.93 56.65 39.47 56.82 38.98 56.82C38.5 56.82 38.07 56.59 37.72 56.18C37.36 55.79 37.18 55.18 37.18 54.4C37.18 54.27 37.2 54.13 37.23 53.96L43.19 53.96C43.27 53.55 43.3 53.1 43.3 52.71C43.3 51.63 43.03 50.8 42.43 50.17C41.87 49.56 41.09 49.25 40.12 49.25C39.36 49.25 38.66 49.47 37.98 49.89Z" />
					<path id="Fill 18" class="shp0" d="M46.16 49.44L44.46 57.78L45.84 57.78L46.62 53.9C46.89 52.63 47.3 51.71 47.83 51.22C48.4 50.69 49.02 50.41 49.75 50.41C50.1 50.41 50.34 50.5 50.53 50.69C50.72 50.86 50.83 51.08 50.83 51.36C50.83 51.61 50.78 51.99 50.67 52.49L49.59 57.78L50.97 57.78L51.99 52.74C52.13 52.08 52.21 51.58 52.21 51.27C52.21 50.66 52.02 50.16 51.64 49.8C51.26 49.44 50.75 49.25 50.1 49.25C49.59 49.25 49.1 49.39 48.65 49.64C48.16 49.92 47.65 50.33 47.11 50.88L47.4 49.44L46.16 49.44Z" />
					<path id="Fill 20" class="shp0" d="M58.31 56.48C58.01 56.73 57.55 56.87 56.93 56.87C56.5 56.87 56.12 56.79 55.8 56.59C55.45 56.4 55.23 56.18 55.1 55.9C54.99 55.6 54.94 55.26 54.94 54.85L53.54 54.93C53.51 56.01 53.81 56.79 54.48 57.26C55.13 57.73 55.94 57.98 56.88 57.98C57.55 57.98 58.14 57.84 58.66 57.62C59.17 57.37 59.54 57.07 59.79 56.65C60.03 56.26 60.16 55.84 60.16 55.43C60.16 54.82 59.95 54.29 59.49 53.85C59.22 53.57 58.55 53.21 57.5 52.74C56.85 52.47 56.47 52.24 56.31 52.1C56.1 51.91 55.96 51.69 55.96 51.41C55.96 51.16 56.1 50.91 56.37 50.69C56.64 50.47 57.01 50.36 57.5 50.36C58.09 50.36 58.55 50.5 58.87 50.8C59.19 51.08 59.36 51.47 59.38 51.99L60.73 51.88C60.73 51.11 60.43 50.47 59.92 49.97C59.38 49.5 58.6 49.25 57.58 49.25C56.66 49.25 55.96 49.47 55.45 49.97C54.94 50.44 54.7 51 54.7 51.66C54.7 52.02 54.78 52.35 54.94 52.66C55.13 52.94 55.37 53.18 55.72 53.41C55.91 53.55 56.39 53.77 57.12 54.1C57.85 54.4 58.31 54.68 58.49 54.9C58.68 55.12 58.76 55.35 58.76 55.6C58.76 55.96 58.6 56.23 58.31 56.48" />
					<path id="Fill 22" class="shp0" d="M63.84 46.18L61.48 57.78L62.89 57.78L63.46 54.96L65.14 53.46L66.77 57.78L68.29 57.78L66.17 52.51L69.68 49.39L67.83 49.39L63.76 53.37L65.22 46.18L63.84 46.18Z" />
					<path id="Fill 24" fill-rule="evenodd" class="shp0" d="M73.95 56.47C73.52 56.72 73.09 56.86 72.61 56.86C72.12 56.86 71.74 56.72 71.47 56.47C71.2 56.22 71.07 55.89 71.07 55.5C71.07 55.19 71.15 54.91 71.34 54.66C71.5 54.41 71.74 54.24 72.07 54.13C72.42 54.02 72.98 53.91 73.79 53.85C74.3 53.79 74.68 53.74 74.9 53.71C75.11 53.66 75.33 53.6 75.52 53.52C75.38 54.35 75.2 54.99 74.95 55.44C74.71 55.89 74.36 56.22 73.95 56.47ZM76.57 57.78C76.46 57.28 76.38 56.89 76.38 56.64C76.38 56.22 76.46 55.69 76.6 55.02L77.06 52.93C77.19 52.35 77.24 51.81 77.24 51.37C77.24 50.78 77.03 50.31 76.57 49.95C76 49.44 75.2 49.19 74.2 49.19C73.25 49.19 72.47 49.42 71.85 49.86C71.23 50.31 70.77 50.95 70.5 51.76L71.91 51.9C72.07 51.4 72.34 51.03 72.69 50.75C73.07 50.5 73.55 50.36 74.12 50.36C74.74 50.36 75.22 50.5 75.52 50.75C75.76 50.95 75.9 51.2 75.9 51.54C75.9 51.79 75.84 52.12 75.74 52.51C75.36 52.65 74.71 52.76 73.85 52.79C72.98 52.85 72.39 52.88 72.09 52.96C71.58 53.04 71.18 53.21 70.83 53.4C70.48 53.63 70.21 53.93 70.02 54.3C69.8 54.66 69.69 55.05 69.69 55.52C69.69 56.25 69.94 56.84 70.39 57.28C70.85 57.73 71.45 57.98 72.2 57.98C72.71 57.98 73.17 57.87 73.63 57.67C74.06 57.48 74.52 57.17 75.01 56.72C75.03 57.17 75.09 57.51 75.17 57.78L76.57 57.78Z" />
					<path id="Fill 26" class="shp0" d="M76.44 46.18L74.68 46.18L73.25 48.36L74.39 48.36L76.44 46.18Z" />
					<path id="Fill 28" class="shp0" d="M4.18 65.7C4.45 65.47 4.8 65.36 5.28 65.36C5.88 65.36 6.33 65.5 6.66 65.81C7.01 66.08 7.17 66.47 7.2 67L8.54 66.89C8.51 66.11 8.25 65.47 7.71 64.98C7.17 64.51 6.41 64.26 5.39 64.26C4.48 64.26 3.75 64.48 3.27 64.98C2.75 65.45 2.48 66 2.48 66.67C2.48 67.03 2.57 67.36 2.75 67.66C2.92 67.94 3.19 68.19 3.51 68.41C3.72 68.55 4.18 68.77 4.91 69.1C5.66 69.41 6.12 69.69 6.31 69.91C6.47 70.13 6.58 70.35 6.58 70.6C6.58 70.96 6.41 71.24 6.12 71.49C5.8 71.74 5.34 71.87 4.75 71.87C4.32 71.87 3.91 71.79 3.59 71.6C3.27 71.41 3.05 71.18 2.92 70.91C2.81 70.6 2.73 70.27 2.73 69.85L1.36 69.94C1.33 71.02 1.62 71.79 2.27 72.26C2.94 72.73 3.72 72.98 4.67 72.98C5.37 72.98 5.96 72.84 6.47 72.62C6.95 72.37 7.33 72.07 7.6 71.65C7.84 71.27 7.95 70.85 7.95 70.43C7.95 69.83 7.73 69.3 7.3 68.85C7.03 68.58 6.36 68.22 5.31 67.75C4.67 67.47 4.26 67.25 4.13 67.11C3.88 66.92 3.78 66.69 3.78 66.42C3.78 66.17 3.91 65.92 4.18 65.7" />
					<path id="Fill 30" fill-rule="evenodd" class="shp0" d="M11.57 67.97C11.74 67.41 11.95 66.93 12.23 66.57C12.47 66.18 12.74 65.9 13.06 65.71C13.36 65.51 13.69 65.4 14.04 65.4C14.52 65.4 14.93 65.6 15.26 65.98C15.61 66.37 15.77 66.93 15.77 67.63C15.77 68.61 15.53 69.55 15.01 70.47C14.52 71.4 13.9 71.87 13.09 71.87C12.71 71.87 12.36 71.76 12.09 71.54C11.79 71.34 11.57 71.06 11.44 70.73C11.36 70.47 11.33 70.03 11.33 69.42C11.33 69 11.41 68.52 11.57 67.97ZM14.44 72.74C14.85 72.51 15.28 72.2 15.69 71.76C16.1 71.31 16.45 70.75 16.72 70.03C16.99 69.3 17.15 68.49 17.15 67.63C17.15 66.54 16.88 65.71 16.37 65.12C15.85 64.53 15.23 64.26 14.44 64.26C14.01 64.26 13.63 64.37 13.25 64.56C12.87 64.76 12.44 65.09 11.98 65.62L12.2 64.45L10.93 64.45L8.57 76.05L9.95 76.05L10.87 71.51C11.41 72.51 12.17 73.04 13.15 73.04C13.61 73.04 14.01 72.93 14.44 72.74Z" />
					<path id="Fill 32" fill-rule="evenodd" class="shp0" d="M20.07 68.02C20.21 67.5 20.42 67.03 20.72 66.61C20.99 66.19 21.31 65.89 21.67 65.67C22.04 65.45 22.42 65.36 22.85 65.36C23.42 65.36 23.88 65.56 24.25 65.97C24.63 66.39 24.82 66.97 24.82 67.75C24.82 68.22 24.74 68.72 24.58 69.22C24.47 69.6 24.34 69.94 24.15 70.27C23.99 70.6 23.77 70.88 23.5 71.13C23.26 71.38 22.99 71.57 22.69 71.68C22.42 71.82 22.12 71.88 21.83 71.88C21.26 71.88 20.8 71.68 20.42 71.27C20.05 70.85 19.88 70.27 19.88 69.49C19.88 69.05 19.94 68.58 20.07 68.02ZM20.07 72.57C20.61 72.84 21.18 72.98 21.8 72.98C22.58 72.98 23.31 72.76 24.01 72.32C24.71 71.88 25.23 71.24 25.6 70.41C25.98 69.6 26.17 68.69 26.17 67.75C26.17 66.67 25.88 65.84 25.28 65.2C24.69 64.56 23.91 64.26 22.91 64.26C21.67 64.26 20.67 64.7 19.88 65.59C18.97 66.64 18.48 68 18.48 69.63C18.48 70.3 18.62 70.88 18.89 71.38C19.16 71.88 19.56 72.29 20.07 72.57Z" />
					<path id="Fill 34" class="shp0" d="M28.41 72.78L30.67 61.19L29.35 61.19L27.09 72.78L28.41 72.78Z" />
					<path id="Fill 36" fill-rule="evenodd" class="shp0" d="M32.62 68.02C32.75 67.5 32.97 67.03 33.24 66.61C33.54 66.19 33.86 65.89 34.21 65.67C34.56 65.45 34.97 65.36 35.4 65.36C35.97 65.36 36.42 65.56 36.8 65.97C37.18 66.39 37.34 66.97 37.34 67.75C37.34 68.22 37.29 68.72 37.13 69.22C37.02 69.6 36.86 69.94 36.69 70.27C36.5 70.6 36.29 70.88 36.05 71.13C35.8 71.38 35.53 71.57 35.24 71.68C34.94 71.82 34.67 71.88 34.37 71.88C33.81 71.88 33.32 71.68 32.97 71.27C32.59 70.85 32.4 70.27 32.4 69.49C32.4 69.05 32.48 68.58 32.62 68.02ZM34.35 72.98C35.13 72.98 35.86 72.76 36.56 72.32C37.23 71.88 37.77 71.24 38.15 70.41C38.53 69.6 38.72 68.69 38.72 67.75C38.72 66.67 38.42 65.84 37.83 65.2C37.23 64.56 36.42 64.26 35.45 64.26C34.21 64.26 33.19 64.7 32.43 65.59C31.49 66.64 31.03 68 31.03 69.63C31.03 70.3 31.16 70.88 31.43 71.38C31.7 71.88 32.11 72.29 32.62 72.57C33.13 72.84 33.73 72.98 34.35 72.98Z" />
					<path id="Fill 38" class="shp0" d="M43.07 72.98C43.87 72.98 44.6 72.7 45.25 72.2C45.89 71.7 46.38 70.92 46.73 69.89L45.36 69.72C45.11 70.45 44.79 70.97 44.39 71.34C43.98 71.7 43.55 71.87 43.09 71.87C42.64 71.87 42.26 71.7 41.96 71.34C41.67 70.97 41.5 70.45 41.5 69.72C41.5 69.02 41.61 68.33 41.85 67.57C42.07 66.85 42.39 66.29 42.8 65.93C43.23 65.56 43.69 65.37 44.25 65.37C44.74 65.37 45.11 65.54 45.41 65.82C45.71 66.12 45.84 66.54 45.87 67.07L47.21 66.99C47.21 66.15 46.97 65.48 46.46 64.95C45.95 64.45 45.25 64.2 44.39 64.2C43.55 64.2 42.8 64.42 42.15 64.89C41.48 65.34 40.99 66.01 40.64 66.9C40.29 67.8 40.1 68.69 40.1 69.61C40.1 70.67 40.37 71.51 40.94 72.09C41.48 72.68 42.18 72.98 43.07 72.98" />
					<path id="Fill 40" class="shp0" d="M42.8 61.19L43.74 63.36L45.27 63.36L47.3 61.19L45.84 61.19L44.58 62.61L44.01 61.19L42.8 61.19Z" />
					<path id="Fill 42" class="shp0" d="M51.19 66.22C51.73 65.7 52.38 65.42 53.08 65.42C53.43 65.42 53.7 65.5 53.89 65.7C54.08 65.86 54.16 66.08 54.16 66.36C54.16 66.61 54.11 67 54 67.5L52.92 72.78L54.33 72.78L55.35 67.74C55.48 67.08 55.54 66.58 55.54 66.28C55.54 65.67 55.35 65.17 54.97 64.81C54.59 64.45 54.08 64.26 53.43 64.26C52.95 64.26 52.46 64.39 51.98 64.64C51.52 64.92 51.01 65.34 50.44 65.89L50.74 64.45L49.49 64.45L47.79 72.78L49.17 72.78L49.98 68.91C50.22 67.63 50.63 66.72 51.19 66.22" />
					<path id="Fill 44" fill-rule="evenodd" class="shp0" d="M63.11 69.22C63 69.6 62.84 69.94 62.68 70.27C62.49 70.6 62.27 70.88 62.03 71.13C61.78 71.38 61.52 71.57 61.22 71.68C60.92 71.82 60.65 71.88 60.35 71.88C59.79 71.88 59.3 71.68 58.95 71.27C58.57 70.85 58.38 70.27 58.38 69.49C58.38 69.05 58.47 68.58 58.6 68.02C58.74 67.5 58.95 67.03 59.22 66.61C59.52 66.19 59.84 65.89 60.19 65.67C60.54 65.45 60.95 65.36 61.38 65.36C61.95 65.36 62.41 65.56 62.78 65.97C63.16 66.39 63.32 66.97 63.32 67.75C63.32 68.22 63.27 68.72 63.11 69.22ZM61.43 64.26C60.19 64.26 59.17 64.7 58.41 65.59C57.47 66.64 57.01 68 57.01 69.63C57.01 70.3 57.14 70.88 57.41 71.38C57.68 71.88 58.09 72.29 58.6 72.57C59.11 72.84 59.71 72.98 60.33 72.98C61.08 72.98 61.84 72.76 62.54 72.32C63.21 71.88 63.75 71.24 64.13 70.41C64.51 69.6 64.7 68.69 64.7 67.75C64.7 66.67 64.4 65.84 63.81 65.2C63.21 64.56 62.41 64.26 61.43 64.26Z" />
					<path id="Fill 46" class="shp0" d="M69.79 65.36C70.39 65.36 70.84 65.5 71.17 65.81C71.49 66.08 71.68 66.47 71.68 67L73.05 66.89C73.02 66.11 72.75 65.47 72.22 64.98C71.68 64.5 70.9 64.26 69.9 64.26C68.96 64.26 68.26 64.48 67.75 64.98C67.24 65.45 66.99 66 66.99 66.67C66.99 67.03 67.08 67.36 67.24 67.66C67.42 67.94 67.67 68.19 68.02 68.41C68.23 68.55 68.69 68.77 69.42 69.1C70.14 69.41 70.6 69.69 70.79 69.91C70.98 70.13 71.06 70.35 71.06 70.6C71.06 70.96 70.92 71.24 70.6 71.49C70.31 71.74 69.85 71.88 69.23 71.88C68.8 71.88 68.42 71.79 68.1 71.6C67.77 71.4 67.53 71.18 67.42 70.91C67.29 70.6 67.24 70.27 67.24 69.85L65.86 69.94C65.81 71.02 66.13 71.79 66.78 72.26C67.42 72.74 68.23 72.98 69.17 72.98C69.85 72.98 70.47 72.84 70.95 72.62C71.46 72.37 71.84 72.07 72.08 71.65C72.32 71.27 72.46 70.85 72.46 70.43C72.46 69.83 72.24 69.3 71.81 68.85C71.52 68.58 70.87 68.22 69.79 67.75C69.17 67.47 68.77 67.25 68.64 67.11C68.39 66.92 68.29 66.69 68.29 66.42C68.29 66.17 68.42 65.92 68.66 65.7C68.93 65.47 69.31 65.36 69.79 65.36" />
					<path id="Fill 48" class="shp0" d="M77.48 61.34L75.9 62.34L75.5 64.4L74.4 64.4L74.19 65.49L75.28 65.49L74.29 70.36C74.16 71.03 74.11 71.45 74.11 71.65C74.11 72.01 74.21 72.29 74.46 72.51C74.78 72.79 75.23 72.93 75.77 72.93C76.09 72.93 76.38 72.87 76.73 72.79L76.94 71.62C76.7 71.67 76.44 71.73 76.14 71.73C75.93 71.73 75.77 71.67 75.69 71.59C75.58 71.48 75.53 71.37 75.53 71.2C75.53 71.09 75.61 70.73 75.71 70.14L76.65 65.49L77.99 65.49L78.23 64.4L76.86 64.4L77.48 61.34Z" />
					<path id="Fill 50" class="shp0" d="M78.92 62.67L79.7 62.67C79.51 63.54 79.14 64.04 78.6 64.21L78.5 64.76C78.95 64.71 79.32 64.51 79.65 64.15C79.97 63.82 80.21 63.26 80.37 62.48L80.61 61.2L79.22 61.2L78.92 62.67Z" />
					<g id="Group 54">
						<path id="Clip 53" class="shp1" d="M10.08 79.26L17.63 79.26L17.63 87.99L10.08 87.99L10.08 79.26Z" />
						<g id="Mask by Clip 53" clip-path="url(#cp2)">
							<path id="Fill 52" fill-rule="evenodd" class="shp0" d="M15.32 85.47C15.07 85.91 14.75 86.24 14.32 86.49C13.91 86.74 13.45 86.88 13 86.88C12.51 86.88 12.13 86.74 11.86 86.49C11.59 86.24 11.46 85.91 11.46 85.52C11.46 85.22 11.54 84.94 11.7 84.69C11.89 84.44 12.13 84.28 12.46 84.17C12.78 84.06 13.37 83.94 14.16 83.89C14.7 83.83 15.05 83.78 15.29 83.75C15.5 83.69 15.72 83.64 15.91 83.56C15.77 84.39 15.58 85.02 15.32 85.47ZM14.59 79.26C13.64 79.26 12.86 79.48 12.24 79.93C11.62 80.37 11.16 81.01 10.87 81.81L12.27 81.95C12.46 81.45 12.73 81.09 13.08 80.81C13.45 80.56 13.94 80.43 14.51 80.43C15.13 80.43 15.58 80.56 15.91 80.81C16.15 81.01 16.26 81.26 16.26 81.59C16.26 81.84 16.21 82.17 16.1 82.56C15.72 82.7 15.1 82.81 14.24 82.84C13.37 82.89 12.78 82.92 12.46 83C11.97 83.09 11.57 83.25 11.22 83.45C10.87 83.67 10.6 83.97 10.38 84.33C10.19 84.69 10.08 85.08 10.08 85.55C10.08 86.27 10.33 86.85 10.76 87.3C11.24 87.74 11.84 87.99 12.59 87.99C13.08 87.99 13.56 87.88 13.99 87.68C14.45 87.49 14.91 87.19 15.4 86.74C15.42 87.19 15.48 87.52 15.56 87.8L16.96 87.8C16.83 87.3 16.77 86.91 16.77 86.66C16.77 86.24 16.85 85.72 16.99 85.05L17.45 82.97C17.58 82.39 17.63 81.87 17.63 81.42C17.63 80.84 17.42 80.37 16.96 80.01C16.37 79.51 15.58 79.26 14.59 79.26Z" />
						</g>
					</g>
					<path id="Fill 55" class="shp0" d="M25.24 79.4L21.16 83.39L22.63 76.19L21.25 76.19L18.88 87.79L20.27 87.79L20.84 84.98L22.55 83.47L24.18 87.79L25.7 87.79L23.58 82.52L27.08 79.4L25.24 79.4Z" />
					<path id="Fill 57" class="shp0" d="M30.62 76.46L29.07 77.45L28.65 79.49L27.61 79.49L27.4 80.57L28.44 80.57L27.5 85.4C27.37 86.06 27.29 86.47 27.29 86.66C27.29 87.02 27.42 87.3 27.66 87.52C27.97 87.8 28.39 87.93 28.92 87.93C29.23 87.93 29.54 87.88 29.86 87.8L30.09 86.64C29.86 86.69 29.6 86.75 29.28 86.75C29.07 86.75 28.94 86.69 28.84 86.61C28.76 86.5 28.71 86.39 28.71 86.22C28.71 86.11 28.76 85.75 28.89 85.18L29.78 80.57L31.11 80.57L31.32 79.49L30.02 79.49L30.62 76.46Z" />
					<path id="Fill 59" class="shp0" d="M37.5 83.06C37.36 83.78 37.23 84.28 37.12 84.58C36.93 85.03 36.72 85.42 36.45 85.75C36.18 86.08 35.88 86.33 35.51 86.52C35.13 86.72 34.75 86.83 34.38 86.83C34 86.83 33.73 86.74 33.54 86.55C33.35 86.38 33.27 86.14 33.27 85.83C33.27 85.58 33.33 85.22 33.41 84.78L34.48 79.46L33.11 79.46L32.14 84.28C31.95 85.11 31.87 85.72 31.87 86.08C31.87 86.61 32.06 87.05 32.47 87.44C32.84 87.8 33.35 87.99 33.97 87.99C34.99 87.99 35.99 87.41 36.96 86.27L36.64 87.8L37.93 87.8L39.62 79.46L38.22 79.46L37.5 83.06Z" />
					<path id="Fill 61" fill-rule="evenodd" class="shp0" d="M45.79 85.45C45.55 85.9 45.2 86.23 44.8 86.48C44.36 86.73 43.93 86.87 43.47 86.87C42.96 86.87 42.58 86.73 42.31 86.48C42.04 86.23 41.91 85.9 41.91 85.51C41.91 85.2 41.99 84.92 42.18 84.67C42.34 84.42 42.58 84.25 42.91 84.14C43.26 84.03 43.82 83.92 44.63 83.86C45.15 83.81 45.52 83.75 45.74 83.72C45.95 83.67 46.17 83.61 46.36 83.53C46.22 84.36 46.04 85.01 45.79 85.45ZM45.04 79.2C44.09 79.2 43.31 79.43 42.69 79.87C42.07 80.32 41.61 80.96 41.34 81.77L42.75 81.91C42.91 81.41 43.18 81.05 43.55 80.77C43.9 80.51 44.39 80.38 44.96 80.38C45.58 80.38 46.06 80.51 46.36 80.77C46.6 80.96 46.74 81.21 46.74 81.55C46.74 81.8 46.68 82.13 46.57 82.52C46.2 82.66 45.55 82.77 44.69 82.8C43.82 82.86 43.23 82.89 42.93 82.97C42.42 83.05 42.02 83.22 41.67 83.42C41.32 83.64 41.05 83.95 40.86 84.31C40.64 84.67 40.53 85.06 40.53 85.54C40.53 86.26 40.78 86.85 41.24 87.29C41.69 87.74 42.29 87.99 43.04 87.99C43.55 87.99 44.01 87.88 44.47 87.68C44.9 87.49 45.36 87.18 45.85 86.73C45.87 87.18 45.93 87.52 46.01 87.79L47.41 87.79C47.3 87.29 47.25 86.9 47.22 86.65C47.22 86.23 47.3 85.7 47.44 85.03L47.9 82.94C48.03 82.36 48.09 81.83 48.09 81.38C48.09 80.79 47.87 80.32 47.41 79.96C46.84 79.46 46.04 79.2 45.04 79.2Z" />
					<path id="Fill 63" class="shp0" d="M44.09 78.37L45.23 78.37L47.28 76.19L45.52 76.19L44.09 78.37Z" />
					<path id="Fill 65" class="shp0" d="M54.29 79.26C53.89 79.26 53.49 79.43 53.09 79.73C52.69 80.04 52.29 80.51 51.86 81.14L52.21 79.46L51.01 79.46L49.33 87.79L50.64 87.79L51.3 84.44C51.6 83 52 82 52.5 81.45C52.98 80.9 53.49 80.62 53.97 80.62C54.23 80.62 54.5 80.7 54.74 80.9L55.3 79.57C54.9 79.37 54.55 79.26 54.29 79.26" />
					<path id="Fill 67" fill-rule="evenodd" class="shp0" d="M61.04 84.22C60.93 84.61 60.8 84.94 60.61 85.27C60.44 85.61 60.23 85.88 59.96 86.13C59.72 86.38 59.45 86.58 59.15 86.69C58.88 86.83 58.58 86.88 58.29 86.88C57.72 86.88 57.26 86.69 56.88 86.27C56.51 85.86 56.32 85.27 56.32 84.5C56.32 84.06 56.4 83.59 56.53 83.03C56.67 82.5 56.88 82.03 57.18 81.62C57.45 81.2 57.77 80.9 58.12 80.68C58.5 80.45 58.88 80.37 59.31 80.37C59.88 80.37 60.34 80.56 60.71 80.98C61.09 81.4 61.28 81.98 61.28 82.75C61.28 83.22 61.2 83.72 61.04 84.22ZM56.34 80.59C55.43 81.64 54.94 83 54.94 84.64C54.94 85.3 55.08 85.88 55.34 86.38C55.61 86.88 56.02 87.3 56.53 87.58C57.05 87.85 57.64 87.99 58.26 87.99C59.04 87.99 59.77 87.77 60.47 87.33C61.15 86.88 61.69 86.24 62.06 85.41C62.44 84.61 62.63 83.69 62.63 82.75C62.63 81.67 62.33 80.84 61.74 80.2C61.15 79.57 60.36 79.26 59.37 79.26C58.12 79.26 57.13 79.71 56.34 80.59Z" />
					<path id="Fill 69" class="shp0" d="M67.7 84.47C67.3 85.25 66.98 85.91 66.71 86.49C66.61 85.36 66.5 84.55 66.42 84.06L65.73 79.46L64.42 79.46L65.73 87.79L67.25 87.79L71.82 79.46L70.39 79.46L67.7 84.47Z" />
				</g>
			</g>
		</g>
	</g>
</svg>