<svg version="1.2" baseProfile="tiny-ps" xmlns="http://www.w3.org/2000/svg" viewBox="0 0 200 125" width="200" height="125">
	<title>SSA-web_design-v06</title>
	<style>
		tspan { white-space:pre }
		.shp0 { fill: #006ca7 } 
	</style>
	<g id="SSA-web_design-v06">
		<g id="Group 33">
			<g id="Group 32">
				<g id="Group 31">
					<g id="Group 25">
						<g id="Group 26">
							<g id="Group 23">
								<g id="Zurich_Logo_Vert_Blue_CMYK 2">
									<path id="Fill 1" class="shp0" d="M93.88 0.03C74.99 0.03 59.69 15.34 59.69 34.19C59.69 41.97 62.3 49.15 66.69 54.92L95.11 17.6L89.03 17.6C85.8 17.6 82.76 17.82 80.56 18.25C79.24 18.52 78.05 19 77.09 19.68C75.95 20.47 74.53 22.16 73.61 23.82C73.52 24.01 73.35 24.3 73.16 24.69L71.49 24.33L74.27 13.6L109.88 13.6L81.55 51.4C83.39 51.23 84.13 51.18 85.63 51.18C86.76 51.18 88.5 51.25 90.87 51.4L95.88 51.69C97.69 51.81 99.21 51.85 100.37 51.85C102.98 51.85 104.67 51.66 106.33 51.13C107.63 50.72 108.86 50.14 110 49.37C112 48 113.91 45.8 115.07 43.59C115.19 43.37 115.35 43.03 115.57 42.57L117.07 42.96C116.59 44.82 116.32 45.54 115.57 47.23C114.05 50.62 112.34 52.89 109.97 54.63C107.56 56.41 104.86 57.3 101.7 57.35L101.22 57.35C98.85 57.35 97.04 57.16 91.42 56.29C85.7 55.42 82.78 55.11 79.91 55.11C77.98 55.11 76.2 55.25 74.34 55.57C71.88 55.98 70.91 56.24 68.69 57.25C74.94 64.07 83.92 68.34 93.88 68.34C112.77 68.34 128.09 53.06 128.09 34.16C128.07 15.34 112.77 0.03 93.88 0.03" />
									<path id="Fill 2" class="shp0" d="M115.53 97.28C115.53 95.09 115.59 94.49 115.87 93.61C115.98 93.25 116.14 92.91 116.34 92.59C116.67 92.04 116.91 91.77 117.56 91.23L107.07 91.23C107.75 91.81 107.97 92.05 108.28 92.52C108.49 92.86 108.67 93.21 108.79 93.59C109.03 94.37 109.11 95.16 109.13 97.1C109.13 98.1 109.14 98.75 109.14 99.07L109.14 118.64C109.14 119.79 108.93 121.01 108.62 121.8C108.49 122.13 108.31 122.46 108.1 122.75C107.85 123.11 107.68 123.31 107.1 123.91L117.48 123.91C116.97 123.46 116.79 123.26 116.48 122.75C116.26 122.43 116.08 122.09 115.95 121.76C115.68 121.01 115.51 119.92 115.51 118.89L115.51 99.19L115.53 97.28" />
									<path id="Fill 3" class="shp0" d="M185.42 97.26C185.42 95.81 185.53 94.71 185.78 93.8C185.89 93.38 186.07 92.98 186.29 92.6C186.64 92.04 186.89 91.77 187.59 91.23L176.91 91.23C177.53 91.74 177.75 91.98 178.11 92.56C178.34 92.93 178.52 93.32 178.65 93.69C178.9 94.47 179 95.42 179 97.13L179 105.07L164.35 105.07L164.35 99.11C164.35 97.3 164.36 96.12 164.43 95.23C164.47 94.7 164.56 94.23 164.7 93.81C164.92 93.11 165.52 92.14 166.05 91.58C166.12 91.5 166.26 91.38 166.41 91.23L155.93 91.23C156.56 91.87 156.73 92.07 157 92.49C157.23 92.82 157.43 93.19 157.57 93.59C157.84 94.42 157.9 94.87 157.93 97.05L157.96 99.12L157.96 117.01C157.96 118.83 157.93 119.62 157.83 120.45C157.77 120.88 157.66 121.31 157.5 121.75C157.23 122.46 156.86 123.01 156.24 123.58C156.17 123.65 156.05 123.76 155.88 123.91L166.24 123.91C165.79 123.44 165.63 123.24 165.36 122.83C165.17 122.52 164.99 122.18 164.84 121.81C164.51 120.95 164.4 120.33 164.36 118.95C164.35 118.25 164.35 117.61 164.35 117L164.35 109.08L179 109.08L179 117.05C179 118.81 178.98 119.46 178.85 120.37C178.8 120.87 178.69 121.35 178.5 121.79C178.27 122.4 177.89 122.95 177.33 123.5C177.23 123.58 177.09 123.73 176.88 123.91L187.33 123.91C186.9 123.48 186.73 123.29 186.45 122.89C186.19 122.53 185.99 122.18 185.85 121.82C185.53 121.05 185.45 120.48 185.42 118.87C185.4 117.9 185.39 117.35 185.39 117.17L185.42 99.19L185.42 97.26" />
									<path id="Fill 4" fill-rule="evenodd" class="shp0" d="M89.36 105.62C88.19 106.3 86.99 106.69 85.24 106.94C84.57 107.05 83.99 107.1 83.53 107.1C83.36 107.1 83.25 107.09 83 107.08L83 94.98C83.42 94.97 83.57 94.97 83.85 94.97C85.46 94.97 87.02 95.16 88.25 95.51C89.08 95.74 89.84 96.15 90.48 96.69C91.58 97.63 92.16 99 92.16 100.7C92.16 102.19 91.73 103.44 90.88 104.39C90.48 104.85 89.97 105.25 89.36 105.62ZM98.14 117.84C97.17 116.8 96.38 115.91 95.76 115.19L90.67 109.21C91.3 109.03 91.56 108.94 92.12 108.71C93.77 108.06 95.03 107.34 96.16 106.38C97.45 105.29 98.25 104.13 98.73 102.66C99.01 101.83 99.13 100.98 99.13 100.14C99.13 98.13 98.39 96.31 96.93 94.78C95.58 93.37 93.71 92.33 91.61 91.83C90.14 91.49 88.62 91.33 86.02 91.27C85.04 91.24 84.02 91.23 82.99 91.23L74.55 91.23C75.11 91.76 75.32 91.99 75.64 92.46C75.88 92.83 76.09 93.24 76.22 93.65C76.44 94.39 76.53 95.4 76.53 97.13L76.53 118.57C76.53 120.12 76.43 121.01 76.17 121.74C76.02 122.1 75.83 122.45 75.6 122.77C75.29 123.16 75.11 123.35 74.5 123.91L84.9 123.91C84.42 123.4 84.28 123.24 83.99 122.84C83.76 122.53 83.57 122.19 83.44 121.84C83.16 121.12 83.03 120.34 83.02 118.83C83.01 118.33 83 117.78 83 117.19L83 109.84L89.06 117.1C89.34 117.44 89.8 117.97 90.41 118.68C91.12 119.47 91.65 120.07 92.02 120.44C93.19 121.64 94.3 122.53 95.39 123.12C96.34 123.62 97.23 123.84 98.64 123.88C99.17 123.9 99.74 123.91 100.34 123.91L104.44 123.91C103.9 123.47 103.67 123.29 103.25 122.92C102.81 122.53 102.33 122.11 101.85 121.64C100.7 120.55 99.67 119.51 98.14 117.84Z" />
									<path id="Fill 5" class="shp0" d="M146.91 119.18C144.94 120.01 143.14 120.39 141.2 120.39C137.81 120.39 134.92 119.19 132.77 116.88C130.65 114.59 129.52 111.41 129.52 107.82C129.52 104.4 130.58 101.22 132.47 99.01C133.29 98.04 134.28 97.23 135.43 96.59C137.28 95.55 139.43 95.01 141.76 95.01C143.75 95.01 145.69 95.41 147.63 96.2C148.85 96.69 149.29 96.93 150.33 97.67L150.33 91.53C149.52 91.27 149.2 91.18 148.34 90.99C146.45 90.59 144.64 90.41 142.58 90.41C139.06 90.41 136.03 90.98 133.26 92.15C131.61 92.84 130.1 93.74 128.76 94.81C124.73 98.06 122.54 102.75 122.54 108.17C122.54 113.42 124.65 117.96 128.51 121.01C131.7 123.52 135.8 124.79 140.73 124.79C143.81 124.79 146.68 124.33 149.91 123.32C150.03 123.29 150.21 123.23 150.44 123.16L150.44 117.22C149.66 117.74 149.39 117.91 148.92 118.19C148.29 118.55 147.62 118.89 146.91 119.18" />
									<path id="Fill 6" class="shp0" d="M59.94 92.5C60.14 92.84 60.32 93.22 60.42 93.61C60.65 94.4 60.71 95.19 60.71 97.03L60.71 109.45C60.71 112.12 60.63 113.7 60.43 115C60.31 115.87 60.01 116.68 59.59 117.4C58.8 118.73 57.32 119.75 55.57 120.2C54.86 120.37 54.09 120.46 53.25 120.46C50.44 120.46 48.03 119.41 46.86 117.69C45.96 116.36 45.71 115.09 45.67 111.73L45.65 109.04L45.65 99.19C45.65 97.28 45.66 96.37 45.73 95.39C45.76 94.81 45.84 94.3 45.97 93.89C46.2 93.14 46.75 92.14 47.28 91.53C47.35 91.46 47.43 91.37 47.56 91.24L36.92 91.24C37.58 91.78 37.79 92.03 38.11 92.56C38.31 92.92 38.48 93.3 38.57 93.69C38.7 94.19 38.78 94.69 38.79 95.2C38.8 95.52 38.8 96.2 38.81 97.23L38.82 99.12L38.82 108.48C38.82 111.95 38.83 112.83 38.95 114.23C39.14 116.62 39.86 118.52 41.24 120.25C43.72 123.36 47.7 124.99 52.78 124.99C55.21 124.99 57.56 124.63 59.35 123.96C61.24 123.26 62.97 122.1 64.22 120.72C65.73 119.02 66.6 116.94 66.86 114.37C67.02 112.87 67.08 111.09 67.08 108.53L67.08 99.13L67.06 97.27L67.06 96.9C67.06 95.49 67.14 94.68 67.34 93.92C67.45 93.45 67.64 93.01 67.9 92.6C68.25 92.04 68.49 91.78 69.18 91.24L58.76 91.24C59.39 91.74 59.61 91.97 59.94 92.5" />
									<path id="Fill 7" class="shp0" d="M24.07 119.31C22.62 119.58 20.98 119.73 18.94 119.77C18.25 119.79 17.39 119.79 16.32 119.79L11.31 119.79L31.14 91.23L5.42 91.23L2.26 98.2C3.31 97.64 3.73 97.44 4.65 97.07C6.11 96.5 7.72 96.04 9.27 95.77C10.62 95.54 11.87 95.43 13.88 95.37C14.79 95.34 15.64 95.32 16.43 95.32L20.23 95.32L0.22 123.91L28.51 123.91L31.77 116.45C30.64 117.1 30.23 117.31 29.37 117.71C27.72 118.46 25.93 119 24.07 119.31" />
									<path id="Fill 8" fill-rule="evenodd" class="shp0" d="M196.26 82.37L195.38 82.37L195.38 81.12L196.21 81.12C196.79 81.12 197.21 81.24 197.21 81.74C197.21 82.17 196.92 82.37 196.26 82.37ZM195.99 80.54L194.8 80.54L194.8 84.46L195.38 84.46L195.38 82.93L196.4 82.93C196.44 82.93 196.48 82.93 196.51 82.92L197.32 84.46L197.98 84.46L197.09 82.8C197.59 82.59 197.83 82.18 197.83 81.73C197.83 80.72 197.13 80.54 195.99 80.54Z" />
									<path id="Fill 9" fill-rule="evenodd" class="shp0" d="M196.19 85.78C194.46 85.78 193.09 84.5 193.09 82.62C193.09 80.72 194.46 79.45 196.19 79.45C197.95 79.45 199.28 80.72 199.28 82.62C199.28 84.5 197.95 85.78 196.19 85.78ZM192.49 82.62C192.49 84.82 194.14 86.31 196.19 86.31C198.23 86.31 199.88 84.82 199.88 82.62C199.88 80.42 198.23 78.92 196.19 78.92C194.14 78.92 192.49 80.42 192.49 82.62Z" />
								</g>
							</g>
						</g>
					</g>
				</g>
			</g>
		</g>
	</g>
</svg>